<svg width="15" height="15" viewBox="0 0 15 15" fill="none" xmlns="http://www.w3.org/2000/svg">
<path d="M10.04 5.19727C10.04 5.13281 9.98731 5.08008 9.92285 5.08008L8.95606 5.08447L7.5 6.82031L6.04541 5.08594L5.07715 5.08154C5.0127 5.08154 4.95996 5.13281 4.95996 5.19873C4.95996 5.22656 4.97021 5.25293 4.98779 5.2749L6.89355 7.54541L4.98779 9.81445C4.97009 9.83592 4.96027 9.8628 4.95996 9.89063C4.95996 9.95508 5.0127 10.0078 5.07715 10.0078L6.04541 10.0034L7.5 8.26758L8.95459 10.002L9.92139 10.0063C9.98584 10.0063 10.0386 9.95508 10.0386 9.88916C10.0386 9.86133 10.0283 9.83496 10.0107 9.81299L8.10791 7.54395L10.0137 5.27344C10.0312 5.25293 10.04 5.2251 10.04 5.19727Z" fill="black"/>
<path d="M7.5 0.952148C3.87598 0.952148 0.9375 3.89062 0.9375 7.51465C0.9375 11.1387 3.87598 14.0771 7.5 14.0771C11.124 14.0771 14.0625 11.1387 14.0625 7.51465C14.0625 3.89062 11.124 0.952148 7.5 0.952148ZM7.5 12.9639C4.49121 12.9639 2.05078 10.5234 2.05078 7.51465C2.05078 4.50586 4.49121 2.06543 7.5 2.06543C10.5088 2.06543 12.9492 4.50586 12.9492 7.51465C12.9492 10.5234 10.5088 12.9639 7.5 12.9639Z" fill="black"/>
</svg>
