<svg width="36" height="36" viewBox="0 0 36 36" fill="none" xmlns="http://www.w3.org/2000/svg">
<path d="M18 24.25C16.3424 24.25 14.7527 23.5915 13.5806 22.4194C12.4085 21.2473 11.75 19.6576 11.75 18C11.75 16.3424 12.4085 14.7527 13.5806 13.5806C14.7527 12.4085 16.3424 11.75 18 11.75C19.6576 11.75 21.2473 12.4085 22.4194 13.5806C23.5915 14.7527 24.25 16.3424 24.25 18C24.25 19.6576 23.5915 21.2473 22.4194 22.4194C21.2473 23.5915 19.6576 24.25 18 24.25ZM16.125 2.375C16.125 1.87772 16.3225 1.40081 16.6742 1.04917C17.0258 0.697544 17.5027 0.5 18 0.5C18.4973 0.5 18.9742 0.697544 19.3258 1.04917C19.6775 1.40081 19.875 1.87772 19.875 2.375V5.64C22.5122 6.04143 24.9521 7.27536 26.8384 9.16164C28.7246 11.0479 29.9586 13.4878 30.36 16.125H33.625C34.1223 16.125 34.5992 16.3225 34.9508 16.6742C35.3025 17.0258 35.5 17.5027 35.5 18C35.5 18.4973 35.3025 18.9742 34.9508 19.3258C34.5992 19.6775 34.1223 19.875 33.625 19.875H30.36C29.9589 22.5124 28.7251 24.9524 26.8388 26.8388C24.9524 28.7251 22.5124 29.9589 19.875 30.36V33.625C19.875 34.1223 19.6775 34.5992 19.3258 34.9508C18.9742 35.3025 18.4973 35.5 18 35.5C17.5027 35.5 17.0258 35.3025 16.6742 34.9508C16.3225 34.5992 16.125 34.1223 16.125 33.625V30.36C13.4876 29.9589 11.0476 28.7251 9.16121 26.8388C7.27486 24.9524 6.04106 22.5124 5.64 19.875H2.375C1.87772 19.875 1.40081 19.6775 1.04918 19.3258C0.697544 18.9742 0.5 18.4973 0.5 18C0.5 17.5027 0.697544 17.0258 1.04918 16.6742C1.40081 16.3225 1.87772 16.125 2.375 16.125H5.64C6.04106 13.4876 7.27486 11.0476 9.16121 9.16121C11.0476 7.27486 13.4876 6.04106 16.125 5.64V2.375ZM18 26.75C20.3206 26.75 22.5462 25.8281 24.1872 24.1872C25.8281 22.5462 26.75 20.3206 26.75 18C26.75 15.6794 25.8281 13.4538 24.1872 11.8128C22.5462 10.1719 20.3206 9.25 18 9.25C15.6794 9.25 13.4538 10.1719 11.8128 11.8128C10.1719 13.4538 9.25 15.6794 9.25 18C9.25 20.3206 10.1719 22.5462 11.8128 24.1872C13.4538 25.8281 15.6794 26.75 18 26.75Z" fill="#6739B7"/>
</svg>
