<svg width="8" height="15" viewBox="0 0 8 15" fill="none" xmlns="http://www.w3.org/2000/svg">
<path d="M0.2117 1.26469C0.144076 1.19313 0.0912097 1.10895 0.0561186 1.01696C0.0210276 0.924968 0.00439898 0.826965 0.0071831 0.728546C0.00996723 0.630127 0.0321093 0.533221 0.0723447 0.443359C0.11258 0.353497 0.170121 0.272441 0.241682 0.204817C0.313244 0.137193 0.397424 0.0843261 0.489417 0.049235C0.581409 0.014144 0.679412 -0.0024843 0.777831 0.000299826C0.87625 0.00308395 0.973157 0.0252258 1.06302 0.0654613C1.15288 0.105697 1.23394 0.163238 1.30156 0.234799L7.67282 6.98084C7.8044 7.12001 7.87771 7.30427 7.87771 7.49579C7.87771 7.68731 7.8044 7.87157 7.67282 8.01074L1.30156 14.7575C1.23438 14.8307 1.15334 14.8897 1.06315 14.9313C0.97296 14.9728 0.875412 14.996 0.776175 14.9995C0.676937 15.0031 0.577988 14.9868 0.485075 14.9518C0.392162 14.9167 0.307137 14.8636 0.234939 14.7954C0.16274 14.7272 0.104808 14.6454 0.0645073 14.5547C0.0242062 14.4639 0.00233979 14.366 0.000177709 14.2668C-0.00198437 14.1675 0.0156008 14.0688 0.0519126 13.9763C0.0882243 13.8839 0.142538 13.7996 0.2117 13.7284L6.09725 7.49579L0.2117 1.26469Z" fill="#6739B7"/>
</svg>
