<svg width="40" height="40" viewBox="0 0 40 40" fill="none" xmlns="http://www.w3.org/2000/svg">
<path d="M11.6668 8.33301C9.8285 8.33301 8.3335 9.82801 8.3335 11.6663V28.333C8.3335 30.1713 9.8285 31.6663 11.6668 31.6663H28.3335C30.1718 31.6663 31.6668 30.1713 31.6668 28.333V11.6663C31.6668 9.82801 30.1718 8.33301 28.3335 8.33301H11.6668ZM20.001 28.333C15.3986 28.333 11.6668 24.602 11.6668 19.9997V19.9997C11.6668 15.3973 15.3986 11.6663 20.001 11.6663V11.6663C24.6027 11.6663 28.3342 15.3963 28.3352 19.998V19.998C28.3361 24.601 24.604 28.333 20.001 28.333V28.333Z" fill="#6739B7"/>
<path d="M18.3266 20.9264L16.1666 18.8081L13.8333 21.1914L18.3399 25.6031L26.1716 17.8514L23.8283 15.4814L18.3266 20.9264Z" fill="#6739B7"/>
</svg>
