<svg width="27" height="27" viewBox="0 0 27 27" fill="none" xmlns="http://www.w3.org/2000/svg">
<rect width="27" height="27" fill="#07A605" fill-opacity="0.6"/>
<path d="M5.9 13.39C5.9 11.66 6.19 10.31 6.77 9.34C7.36 8.36 8.37 7.87 9.8 7.87C11.23 7.87 12.235 8.36 12.815 9.34C13.405 10.31 13.7 11.66 13.7 13.39C13.7 15.14 13.405 16.51 12.815 17.5C12.235 18.48 11.23 18.97 9.8 18.97C8.37 18.97 7.36 18.48 6.77 17.5C6.19 16.51 5.9 15.14 5.9 13.39ZM12.02 13.39C12.02 12.58 11.965 11.895 11.855 11.335C11.755 10.775 11.545 10.32 11.225 9.97C10.905 9.61 10.43 9.43 9.8 9.43C9.17 9.43 8.695 9.61 8.375 9.97C8.055 10.32 7.84 10.775 7.73 11.335C7.63 11.895 7.58 12.58 7.58 13.39C7.58 14.23 7.63 14.935 7.73 15.505C7.83 16.075 8.04 16.535 8.36 16.885C8.69 17.235 9.17 17.41 9.8 17.41C10.43 17.41 10.905 17.235 11.225 16.885C11.555 16.535 11.77 16.075 11.87 15.505C11.97 14.935 12.02 14.23 12.02 13.39ZM15.7344 9.625V8.065H18.8544V19H17.1294V9.625H15.7344Z" fill="white"/>
</svg>
