<svg width="28" height="28" viewBox="0 0 28 28" fill="none" xmlns="http://www.w3.org/2000/svg">
<path d="M17.5243 26.0525C17.2564 26.3205 16.9382 26.5331 16.5881 26.6782C16.2379 26.8233 15.8626 26.898 15.4836 26.898C15.1046 26.898 14.7293 26.8233 14.3792 26.6782C14.029 26.5331 13.7109 26.3205 13.443 26.0525L2.04431 14.6538C1.50317 14.1128 1.1991 13.379 1.19897 12.6138V4.44845C1.19897 2.85779 2.49231 1.56445 4.08431 1.56445H12.2483C13.0123 1.56445 13.747 1.86845 14.2883 2.40979L25.687 13.8085C25.955 14.0764 26.1677 14.3945 26.3127 14.7447C26.4578 15.0948 26.5325 15.4701 26.5325 15.8491C26.5325 16.2281 26.4578 16.6034 26.3127 16.9536C26.1677 17.3037 25.955 17.6218 25.687 17.8898L17.5243 26.0525Z" stroke="white" stroke-width="2" stroke-linecap="round" stroke-linejoin="round"/>
</svg>
