<svg width="25" height="25" viewBox="0 0 25 25" fill="none" xmlns="http://www.w3.org/2000/svg">
<path d="M21.6589 11.4522C22.1329 12.0722 22.1329 12.9092 21.6589 13.5282C20.1659 15.4772 16.5839 19.4902 12.4019 19.4902C8.21987 19.4902 4.63787 15.4772 3.14487 13.5282C2.91425 13.2314 2.78906 12.8662 2.78906 12.4902C2.78906 12.1143 2.91425 11.7491 3.14487 11.4522C4.63787 9.50323 8.21987 5.49023 12.4019 5.49023C16.5839 5.49023 20.1659 9.50323 21.6589 11.4522V11.4522Z" stroke="#835CC7" stroke-width="2" stroke-linecap="round" stroke-linejoin="round"/>
<path d="M12.4019 15.4902C14.0587 15.4902 15.4019 14.1471 15.4019 12.4902C15.4019 10.8334 14.0587 9.49023 12.4019 9.49023C10.745 9.49023 9.40186 10.8334 9.40186 12.4902C9.40186 14.1471 10.745 15.4902 12.4019 15.4902Z" stroke="#835CC7" stroke-width="2" stroke-linecap="round" stroke-linejoin="round"/>
</svg>
