<svg width="22" height="21" viewBox="0 0 22 21" fill="none" xmlns="http://www.w3.org/2000/svg">
<g clip-path="url(#clip0_474_302)">
<path d="M17.9819 10.0227V10.9773C17.9819 11.1165 17.9371 11.2308 17.8476 11.3203C17.7581 11.4098 17.6438 11.4545 17.5046 11.4545H12.2546V16.7045C12.2546 16.8438 12.2098 16.9581 12.1204 17.0476C12.0309 17.1371 11.9165 17.1818 11.7773 17.1818H10.8228C10.6836 17.1818 10.5692 17.1371 10.4797 17.0476C10.3902 16.9581 10.3455 16.8438 10.3455 16.7045V11.4545H5.0955C4.9563 11.4545 4.84195 11.4098 4.75246 11.3203C4.66297 11.2308 4.61823 11.1165 4.61823 10.9773V10.0227C4.61823 9.88352 4.66297 9.76918 4.75246 9.67969C4.84195 9.5902 4.9563 9.54545 5.0955 9.54545H10.3455V4.29545C10.3455 4.15625 10.3902 4.0419 10.4797 3.95241C10.5692 3.86293 10.6836 3.81818 10.8228 3.81818H11.7773C11.9165 3.81818 12.0309 3.86293 12.1204 3.95241C12.2098 4.0419 12.2546 4.15625 12.2546 4.29545V9.54545H17.5046C17.6438 9.54545 17.7581 9.5902 17.8476 9.67969C17.9371 9.76918 17.9819 9.88352 17.9819 10.0227ZM19.891 16.7045V4.29545C19.891 3.6392 19.6573 3.07741 19.19 2.61009C18.7226 2.14276 18.1608 1.90909 17.5046 1.90909H5.0955C4.43925 1.90909 3.87746 2.14276 3.41013 2.61009C2.9428 3.07741 2.70914 3.6392 2.70914 4.29545V16.7045C2.70914 17.3608 2.9428 17.9226 3.41013 18.3899C3.87746 18.8572 4.43925 19.0909 5.0955 19.0909H17.5046C18.1608 19.0909 18.7226 18.8572 19.19 18.3899C19.6573 17.9226 19.891 17.3608 19.891 16.7045ZM21.8 4.29545V16.7045C21.8 17.8878 21.3799 18.8995 20.5398 19.7397C19.6996 20.5799 18.6878 21 17.5046 21H5.0955C3.91226 21 2.90055 20.5799 2.06035 19.7397C1.22015 18.8995 0.800049 17.8878 0.800049 16.7045V4.29545C0.800049 3.11222 1.22015 2.1005 2.06035 1.2603C2.90055 0.420099 3.91226 0 5.0955 0H17.5046C18.6878 0 19.6996 0.420099 20.5398 1.2603C21.3799 2.1005 21.8 3.11222 21.8 4.29545Z" fill="#6739B7"/>
</g>
<defs>
<clipPath id="clip0_474_302">
<rect width="21" height="21" fill="white" transform="translate(0.800049)"/>
</clipPath>
</defs>
</svg>
