<svg width="29" height="29" viewBox="0 0 29 29" fill="none" xmlns="http://www.w3.org/2000/svg">
<path d="M10.2711 20.0422L5.68788 15.459C5.45999 15.2389 5.15476 15.1171 4.83794 15.1198C4.52112 15.1226 4.21805 15.2497 3.99402 15.4737C3.76998 15.6977 3.6429 16.0008 3.64015 16.3176C3.6374 16.6344 3.75919 16.9397 3.9793 17.1676L9.4168 22.6051C9.6434 22.8316 9.95068 22.9589 10.2711 22.9589C10.5915 22.9589 10.8988 22.8316 11.1254 22.6051L24.417 9.3134C24.6372 9.08551 24.7589 8.78028 24.7562 8.46346C24.7534 8.14664 24.6264 7.84357 24.4023 7.61954C24.1783 7.3955 23.8752 7.26842 23.5584 7.26567C23.2416 7.26292 22.9364 7.38471 22.7085 7.60482L10.2711 20.0422Z" fill="#4DCE4C"/>
</svg>
