<svg width="30" height="30" viewBox="0 0 30 30" fill="none" xmlns="http://www.w3.org/2000/svg">
<path d="M11.631 7.125C11.631 6.82663 11.7495 6.54048 11.9605 6.3295C12.1715 6.11853 12.4576 6 12.756 6C13.0544 6 13.3405 6.11853 13.5515 6.3295C13.7625 6.54048 13.881 6.82663 13.881 7.125V9.912L16.527 9.0525C16.6685 9.00278 16.8184 8.98185 16.9681 8.99093C17.1178 9.00001 17.2641 9.03892 17.3986 9.10538C17.533 9.17183 17.6528 9.26449 17.7509 9.3779C17.849 9.49131 17.9234 9.62318 17.9698 9.76577C18.0162 9.90836 18.0336 10.0588 18.021 10.2082C18.0085 10.3576 17.9661 10.503 17.8966 10.6359C17.827 10.7687 17.7316 10.8863 17.6159 10.9817C17.5002 11.0771 17.3666 11.1484 17.223 11.1915L14.571 12.054L16.209 14.31C16.3844 14.5515 16.4568 14.8528 16.4101 15.1476C16.3634 15.4424 16.2015 15.7066 15.96 15.882C15.7185 16.0574 15.4172 16.1298 15.1224 16.0831C14.8276 16.0364 14.5634 15.8745 14.388 15.633L12.753 13.38L11.115 15.633C11.0293 15.7554 10.9201 15.8595 10.7937 15.9392C10.6673 16.0189 10.5263 16.0726 10.3789 16.0972C10.2316 16.1219 10.0808 16.1169 9.93533 16.0826C9.7899 16.0483 9.65276 15.9854 9.53192 15.8975C9.41107 15.8097 9.30894 15.6986 9.23149 15.5708C9.15403 15.443 9.1028 15.3011 9.08079 15.1533C9.05879 15.0056 9.06644 14.8549 9.1033 14.7101C9.14016 14.5653 9.2055 14.4293 9.2955 14.31L10.935 12.0555L8.2785 11.1915C8.13383 11.1494 7.99907 11.0787 7.88225 10.9836C7.76542 10.8884 7.66889 10.7708 7.59839 10.6377C7.52789 10.5045 7.48486 10.3585 7.47184 10.2084C7.45883 10.0583 7.47609 9.90714 7.52262 9.76383C7.56915 9.62053 7.64399 9.48803 7.7427 9.3742C7.84141 9.26037 7.96198 9.16753 8.09725 9.10119C8.23253 9.03484 8.37975 8.99635 8.53019 8.98798C8.68062 8.97962 8.83121 9.00156 8.973 9.0525L11.631 9.915V7.125ZM20.25 24C19.6533 24 19.081 23.7629 18.659 23.341C18.2371 22.919 18 22.3467 18 21.75C18 21.1533 18.2371 20.581 18.659 20.159C19.081 19.7371 19.6533 19.5 20.25 19.5C20.8467 19.5 21.419 19.7371 21.841 20.159C22.2629 20.581 22.5 21.1533 22.5 21.75C22.5 22.3467 22.2629 22.919 21.841 23.341C21.419 23.7629 20.8467 24 20.25 24Z" fill="white"/>
</svg>
