<svg width="40" height="40" viewBox="0 0 40 40" fill="none" xmlns="http://www.w3.org/2000/svg">
<path d="M11.25 20C10.2554 20 9.30161 20.3951 8.59835 21.0983C7.89509 21.8016 7.5 22.7554 7.5 23.75V25C7.5 29.9275 12.15 35 20 35C27.85 35 32.5 29.9275 32.5 25V23.75C32.5 22.7554 32.1049 21.8016 31.4017 21.0983C30.6984 20.3951 29.7446 20 28.75 20H11.25ZM20 3.75C18.1766 3.75 16.428 4.47433 15.1386 5.76364C13.8493 7.05295 13.125 8.80164 13.125 10.625C13.125 12.4484 13.8493 14.197 15.1386 15.4864C16.428 16.7757 18.1766 17.5 20 17.5C21.8234 17.5 23.572 16.7757 24.8614 15.4864C26.1507 14.197 26.875 12.4484 26.875 10.625C26.875 8.80164 26.1507 7.05295 24.8614 5.76364C23.572 4.47433 21.8234 3.75 20 3.75Z" fill="#6739B7"/>
</svg>
