<svg width="12" height="12" viewBox="0 0 12 12" fill="none" xmlns="http://www.w3.org/2000/svg">
<path d="M1 6C1 4.67392 1.52678 3.40215 2.46447 2.46447C3.40215 1.52678 4.67392 1 6 1C7.32608 1 8.59785 1.52678 9.53553 2.46447C10.4732 3.40215 11 4.67392 11 6C11 7.32608 10.4732 8.59785 9.53553 9.53553C8.59785 10.4732 7.32608 11 6 11C4.67392 11 3.40215 10.4732 2.46447 9.53553C1.52678 8.59785 1 7.32608 1 6ZM8.354 5.104C8.40049 5.05751 8.43736 5.00232 8.46252 4.94158C8.48768 4.88084 8.50063 4.81574 8.50063 4.75C8.50063 4.68426 8.48768 4.61916 8.46252 4.55842C8.43736 4.49768 8.40049 4.44249 8.354 4.396C8.30751 4.34951 8.25232 4.31264 8.19158 4.28748C8.13084 4.26232 8.06574 4.24937 8 4.24937C7.93426 4.24937 7.86916 4.26232 7.80842 4.28748C7.74768 4.31264 7.69249 4.34951 7.646 4.396L5.5 6.543L4.354 5.396C4.30751 5.34951 4.25232 5.31264 4.19158 5.28748C4.13084 5.26232 4.06574 5.24937 4 5.24937C3.93426 5.24937 3.86916 5.26232 3.80842 5.28748C3.74768 5.31264 3.69249 5.34951 3.646 5.396C3.59951 5.44249 3.56264 5.49768 3.53748 5.55842C3.51232 5.61916 3.49937 5.68426 3.49937 5.75C3.49937 5.81574 3.51232 5.88084 3.53748 5.94158C3.56264 6.00232 3.59951 6.05751 3.646 6.104L5.146 7.604C5.19245 7.65056 5.24762 7.68751 5.30837 7.71271C5.36911 7.73792 5.43423 7.75089 5.5 7.75089C5.56577 7.75089 5.63089 7.73792 5.69163 7.71271C5.75238 7.68751 5.80755 7.65056 5.854 7.604L8.354 5.104Z" fill="#4DCE4C"/>
</svg>
