<svg width="15" height="15" viewBox="0 0 15 15" fill="none" xmlns="http://www.w3.org/2000/svg">
<path d="M7.73629 1.14728C7.66683 1.09672 7.583 1.06974 7.4971 1.07032C7.41119 1.0709 7.32773 1.099 7.25896 1.15049C6.50575 1.71567 5.58004 2.11264 4.70146 2.38799C3.83023 2.65718 2.93527 2.84249 2.02879 2.94139C2.0154 2.94288 2.00201 2.9443 1.98861 2.94567L1.97896 2.94621H1.97682C1.87602 2.9543 1.78198 3.0001 1.71346 3.07448C1.64494 3.14885 1.60699 3.24633 1.60718 3.34746V6.82907C1.60718 9.55746 3.46932 12.6523 7.37682 13.908C7.45694 13.9338 7.54313 13.9338 7.62325 13.908C7.77646 13.8587 7.92646 13.8062 8.07325 13.7521C7.39058 13.0356 6.99638 12.0923 6.9662 11.1031C6.93602 10.1139 7.272 9.14835 7.90972 8.39155C8.54745 7.63475 9.44205 7.13994 10.4221 7.00197C11.4021 6.864 12.3985 7.09258 13.2204 7.64389C13.2461 7.41353 13.259 7.18639 13.259 6.96299V3.34692C13.2589 3.24632 13.2212 3.14939 13.1531 3.0753C13.0851 3.0012 12.9917 2.95533 12.8915 2.94674H12.8904L12.885 2.94621L12.8609 2.94353C12.8395 2.94139 12.8068 2.93817 12.7634 2.93282C12.6777 2.92317 12.5507 2.9071 12.3911 2.88299C11.9583 2.81656 11.5289 2.72967 11.1043 2.62264C10.064 2.36014 8.78093 1.90746 7.73629 1.14728ZM14.4643 10.9809C14.4643 10.0573 14.0975 9.17163 13.4444 8.5186C12.7914 7.86558 11.9057 7.49871 10.9822 7.49871C10.0587 7.49871 9.17296 7.86558 8.51993 8.5186C7.8669 9.17163 7.50004 10.0573 7.50004 10.9809C7.50004 11.9044 7.8669 12.7901 8.51993 13.4431C9.17296 14.0961 10.0587 14.463 10.9822 14.463C11.9057 14.463 12.7914 14.0961 13.4444 13.4431C14.0975 12.7901 14.4643 11.9044 14.4643 10.9809ZM13.0468 9.45192C13.0718 9.4768 13.0916 9.50636 13.1051 9.5389C13.1186 9.57145 13.1255 9.60633 13.1255 9.64157C13.1255 9.6768 13.1186 9.71168 13.1051 9.74423C13.0916 9.77677 13.0718 9.80633 13.0468 9.83121L10.3682 12.5098C10.3434 12.5347 10.3138 12.5545 10.2813 12.568C10.2487 12.5815 10.2138 12.5885 10.1786 12.5885C10.1434 12.5885 10.1085 12.5815 10.0759 12.568C10.0434 12.5545 10.0138 12.5347 9.98896 12.5098L8.91754 11.4384C8.89263 11.4134 8.87288 11.3839 8.8594 11.3513C8.84592 11.3188 8.83898 11.2839 8.83898 11.2487C8.83898 11.2135 8.84592 11.1786 8.8594 11.1461C8.87288 11.1135 8.89263 11.084 8.91754 11.0591C8.94244 11.0342 8.972 11.0144 9.00454 11.0009C9.03708 10.9874 9.07196 10.9805 9.10718 10.9805C9.1424 10.9805 9.17727 10.9874 9.20981 11.0009C9.24235 11.0144 9.27192 11.0342 9.29682 11.0591L10.1786 11.9414L12.6675 9.45192C12.6924 9.42698 12.722 9.40719 12.7545 9.39368C12.7871 9.38018 12.8219 9.37323 12.8572 9.37323C12.8924 9.37323 12.9273 9.38018 12.9598 9.39368C12.9924 9.40719 13.0219 9.42698 13.0468 9.45192Z" fill="white"/>
</svg>
