<svg width="15" height="15" viewBox="0 0 15 15" fill="none" xmlns="http://www.w3.org/2000/svg">
<path d="M6.60366 1.93272C6.68621 1.76532 6.81397 1.62436 6.97247 1.5258C7.13097 1.42724 7.31389 1.375 7.50054 1.375C7.68719 1.375 7.87011 1.42724 8.02861 1.5258C8.18711 1.62436 8.31486 1.76532 8.39741 1.93272L9.78741 4.74772L12.8949 5.19897C13.0796 5.22579 13.2532 5.30379 13.3959 5.42413C13.5386 5.54446 13.6447 5.70234 13.7024 5.87989C13.76 6.05745 13.7668 6.24758 13.7219 6.42878C13.6771 6.60999 13.5824 6.77502 13.4487 6.90522L11.1999 9.09647L11.7312 12.1915C11.7628 12.3753 11.7423 12.5643 11.6721 12.7372C11.6019 12.91 11.4848 13.0597 11.334 13.1695C11.1831 13.2792 11.0046 13.3446 10.8185 13.3582C10.6325 13.3718 10.4464 13.3331 10.2812 13.2465L7.49991 11.784L4.71991 13.2465C4.55471 13.3331 4.36858 13.3718 4.18253 13.3582C3.99649 13.3446 3.81796 13.2792 3.66712 13.1695C3.51628 13.0597 3.39915 12.91 3.32896 12.7372C3.25876 12.5643 3.23831 12.3753 3.26991 12.1915L3.79991 9.09647L1.55116 6.90522C1.41737 6.77494 1.32272 6.60981 1.27795 6.42851C1.23317 6.24722 1.24006 6.05701 1.29782 5.87942C1.35559 5.70184 1.46192 5.54398 1.60478 5.42372C1.74765 5.30345 1.92133 5.2256 2.10616 5.19897L5.21366 4.74897L6.60241 1.93272H6.60366Z" fill="#FFC700"/>
</svg>
