<svg width="18" height="18" viewBox="0 0 18 18" fill="none" xmlns="http://www.w3.org/2000/svg">
<path d="M12.9375 2.25C13.6834 2.25 14.3988 2.54632 14.9262 3.07376C15.4537 3.60121 15.75 4.31658 15.75 5.0625V7.03912C15.403 6.75262 15.0257 6.50478 14.625 6.3V5.0625C14.625 4.61495 14.4472 4.18572 14.1307 3.86926C13.8143 3.55279 13.3851 3.375 12.9375 3.375H5.0625C4.61495 3.375 4.18572 3.55279 3.86926 3.86926C3.55279 4.18572 3.375 4.61495 3.375 5.0625V5.625H11.25V5.64975C10.172 5.74665 9.13861 6.12617 8.25412 6.75H3.375V12.9375C3.375 13.3851 3.55279 13.8143 3.86926 14.1307C4.18572 14.4472 4.61495 14.625 5.0625 14.625H6.3C6.50588 15.0278 6.7545 15.4046 7.03912 15.75H5.0625C4.31658 15.75 3.60121 15.4537 3.07376 14.9262C2.54632 14.3988 2.25 13.6834 2.25 12.9375V5.0625C2.25 4.31658 2.54632 3.60121 3.07376 3.07376C3.60121 2.54632 4.31658 2.25 5.0625 2.25H12.9375ZM11.8125 16.875C12.4773 16.875 13.1356 16.7441 13.7498 16.4896C14.364 16.2352 14.9221 15.8623 15.3922 15.3922C15.8623 14.9221 16.2352 14.364 16.4896 13.7498C16.7441 13.1356 16.875 12.4773 16.875 11.8125C16.875 11.1477 16.7441 10.4894 16.4896 9.87516C16.2352 9.26095 15.8623 8.70287 15.3922 8.23277C14.9221 7.76268 14.364 7.38977 13.7498 7.13536C13.1356 6.88095 12.4773 6.75 11.8125 6.75C10.4698 6.75 9.18217 7.28337 8.23277 8.23277C7.28337 9.18217 6.75 10.4698 6.75 11.8125C6.75 13.1552 7.28337 14.4428 8.23277 15.3922C9.18217 16.3416 10.4698 16.875 11.8125 16.875ZM11.8125 9C11.9617 9 12.1048 9.05926 12.2102 9.16475C12.3157 9.27024 12.375 9.41332 12.375 9.5625V11.25H14.0625C14.2117 11.25 14.3548 11.3093 14.4602 11.4148C14.5657 11.5202 14.625 11.6633 14.625 11.8125C14.625 11.9617 14.5657 12.1048 14.4602 12.2102C14.3548 12.3157 14.2117 12.375 14.0625 12.375H12.375V14.0625C12.375 14.2117 12.3157 14.3548 12.2102 14.4602C12.1048 14.5657 11.9617 14.625 11.8125 14.625C11.6633 14.625 11.5202 14.5657 11.4148 14.4602C11.3093 14.3548 11.25 14.2117 11.25 14.0625V12.375H9.5625C9.41332 12.375 9.27024 12.3157 9.16475 12.2102C9.05926 12.1048 9 11.9617 9 11.8125C9 11.6633 9.05926 11.5202 9.16475 11.4148C9.27024 11.3093 9.41332 11.25 9.5625 11.25H11.25V9.5625C11.25 9.41332 11.3093 9.27024 11.4148 9.16475C11.5202 9.05926 11.6633 9 11.8125 9Z" fill="white"/>
</svg>
