<svg width="10" height="10" viewBox="0 0 10 10" fill="none" xmlns="http://www.w3.org/2000/svg">
<path d="M6.8885 1.12529C7.01813 0.991518 7.17307 0.884874 7.34431 0.811566C7.51555 0.738258 7.69967 0.69975 7.88593 0.698286C8.0722 0.696821 8.25689 0.732428 8.42927 0.803034C8.60164 0.87364 8.75824 0.977834 8.88995 1.10955C9.02167 1.24126 9.12586 1.39786 9.19647 1.57024C9.26707 1.74261 9.30268 1.9273 9.30122 2.11357C9.29975 2.29984 9.26124 2.48395 9.18794 2.65519C9.11463 2.82643 9.00799 2.98138 8.87422 3.111L8.32422 3.661L6.3385 1.67529L6.8885 1.12529ZM5.95993 2.05386L1.60743 6.40636C1.45029 6.5635 1.336 6.7585 1.276 6.97279L0.723501 8.946C0.710735 8.99174 0.71036 9.04006 0.722414 9.08599C0.734467 9.13192 0.758516 9.17383 0.792096 9.20741C0.825675 9.24099 0.867579 9.26504 0.913513 9.27709C0.959447 9.28914 1.00776 9.28877 1.0535 9.276L3.02636 8.7235C3.24062 8.66355 3.43582 8.54941 3.59314 8.39207L7.946 4.03993L5.96029 2.05422L5.95993 2.05386Z" fill="#C4C4C4"/>
</svg>
