<svg width="40" height="40" viewBox="0 0 40 40" fill="none" xmlns="http://www.w3.org/2000/svg">
<path d="M17.996 4.77818C18.5466 4.28345 19.2608 4.00977 20.001 4.00977C20.7412 4.00977 21.4554 4.28345 22.006 4.77818L33.006 14.6602C33.319 14.9417 33.5693 15.2859 33.7405 15.6704C33.9118 16.0549 34.0002 16.4712 34 16.8922V18.8002C33.2368 18.3596 32.3859 18.0926 31.5078 18.018C30.6296 17.9433 29.7459 18.063 28.9193 18.3685C28.0926 18.6739 27.3434 19.1577 26.7248 19.7853C26.1062 20.413 25.6334 21.1692 25.34 22.0002H17C16.7348 22.0002 16.4804 22.1055 16.2929 22.2931C16.1054 22.4806 16 22.735 16 23.0002V31.0002C16 31.7958 15.6839 32.5589 15.1213 33.1215C14.5587 33.6841 13.7956 34.0002 13 34.0002H9C8.20435 34.0002 7.44129 33.6841 6.87868 33.1215C6.31607 32.5589 6 31.7958 6 31.0002V16.8922C6 16.0402 6.36 15.2302 6.996 14.6602L17.996 4.77818V4.77818ZM35 24.0002C35 25.061 34.5786 26.0785 33.8284 26.8286C33.0783 27.5788 32.0609 28.0002 31 28.0002C29.9391 28.0002 28.9217 27.5788 28.1716 26.8286C27.4214 26.0785 27 25.061 27 24.0002C27 22.9393 27.4214 21.9219 28.1716 21.1718C28.9217 20.4216 29.9391 20.0002 31 20.0002C32.0609 20.0002 33.0783 20.4216 33.8284 21.1718C34.5786 21.9219 35 22.9393 35 24.0002ZM38 33.0002C38 35.4902 36 38.0002 31 38.0002C26 38.0002 24 35.5002 24 33.0002C24 32.2045 24.3161 31.4415 24.8787 30.8789C25.4413 30.3162 26.2044 30.0002 27 30.0002H35C35.7956 30.0002 36.5587 30.3162 37.1213 30.8789C37.6839 31.4415 38 32.2045 38 33.0002Z" fill="#6739B7"/>
</svg>
