<svg width="25" height="25" viewBox="0 0 25 25" fill="none" xmlns="http://www.w3.org/2000/svg">
<path d="M11.9477 7.26016C11.8012 7.40666 11.7189 7.60534 11.7189 7.8125C11.7189 8.01966 11.8012 8.21834 11.9477 8.36484L15.3016 11.7188H7.8125C7.6053 11.7188 7.40659 11.8011 7.26007 11.9476C7.11356 12.0941 7.03125 12.2928 7.03125 12.5C7.03125 12.7072 7.11356 12.9059 7.26007 13.0524C7.40659 13.1989 7.6053 13.2812 7.8125 13.2812H15.3016L11.9477 16.6352C11.8053 16.7825 11.7266 16.9798 11.7284 17.1847C11.7302 17.3895 11.8123 17.5855 11.9572 17.7303C12.102 17.8752 12.298 17.9573 12.5028 17.9591C12.7077 17.9609 12.905 17.8822 13.0523 17.7398L17.7398 13.0523C17.8863 12.9058 17.9686 12.7072 17.9686 12.5C17.9686 12.2928 17.8863 12.0942 17.7398 11.9477L13.0523 7.26016C12.9058 7.11369 12.7072 7.03142 12.5 7.03142C12.2928 7.03142 12.0942 7.11369 11.9477 7.26016ZM12.5 1.5625C6.45938 1.5625 1.5625 6.45938 1.5625 12.5C1.5625 18.5406 6.45938 23.4375 12.5 23.4375C18.5406 23.4375 23.4375 18.5406 23.4375 12.5C23.4375 6.45938 18.5406 1.5625 12.5 1.5625ZM3.125 12.5C3.125 7.32266 7.32266 3.125 12.5 3.125C17.6773 3.125 21.875 7.32266 21.875 12.5C21.875 17.6773 17.6773 21.875 12.5 21.875C7.32266 21.875 3.125 17.6773 3.125 12.5Z" fill="#6739B7"/>
</svg>
