<svg width="323" height="202" viewBox="0 0 323 202" fill="none" xmlns="http://www.w3.org/2000/svg">
<g clip-path="url(#clip0_1413_662)">
<g opacity="0.64">
<path d="M307.55 0H14.5202C10.4602 0 6.79016 1.67 4.16016 4.35C6.58016 2.54 9.58016 1.45 12.8402 1.45H305.87C313.89 1.45 320.39 7.95 320.39 15.97V188.21C320.39 192.17 318.8 195.75 316.23 198.37C319.77 195.72 322.07 191.51 322.07 186.75V14.52C322.07 6.5 315.57 0 307.55 0Z" fill="url(#paint0_linear_1413_662)"/>
</g>
<path d="M307.55 0H14.52C6.5 0 0 6.5 0 14.52V186.75C0 194.77 6.5 201.27 14.52 201.27H307.55C315.57 201.27 322.07 194.77 322.07 186.75V14.52C322.07 6.5 315.57 0 307.55 0Z" fill="url(#paint1_linear_1413_662)"/>
<path opacity="0.76" d="M307.55 201.27C315.57 201.27 322.07 194.77 322.07 186.75V14.52C322.07 6.5 315.57 0 307.55 0H259.34L118.66 201.27H307.55Z" fill="url(#paint2_linear_1413_662)"/>
<path opacity="0.78" d="M106.58 201.27L247.26 0H231.6L90.9297 201.27H106.58Z" fill="url(#paint3_linear_1413_662)"/>
<path opacity="0.78" d="M81.4498 201.27L222.13 0H216.73L76.0498 201.27H81.4498Z" fill="url(#paint4_linear_1413_662)"/>
<g opacity="0.1">
<mask id="mask0_1413_662" style="mask-type:alpha" maskUnits="userSpaceOnUse" x="-1" y="-1" width="323" height="202">
<path d="M307.056 -0.458496H13.8923C5.86895 -0.458496 -0.633789 6.04333 -0.633789 14.0656V186.354C-0.633789 194.376 5.86895 200.878 13.8923 200.878H307.046C315.069 200.878 321.572 194.376 321.572 186.354V14.0656C321.572 6.04333 315.069 -0.458496 307.056 -0.458496Z" fill="url(#paint5_linear_1413_662)"/>
</mask>
<g mask="url(#mask0_1413_662)">
<g opacity="0.5">
<path d="M3.80802 16.4461L-6.89648 5.75306L3.80802 -4.93994V16.4461Z" fill="#D9D9D9"/>
<path d="M-17.6006 -4.93994H3.80842L-6.89608 5.75306L-17.6006 -4.93994Z" fill="#BBBBBB"/>
<path d="M3.80842 16.4459H-17.6006L-6.89608 5.75293L3.80842 16.4459Z" fill="white"/>
<path d="M68.0151 16.4461L57.3105 5.75306L68.0151 -4.93994V16.4461Z" fill="#7F7F7F"/>
<path d="M46.6064 -4.93994L57.3109 5.75306L46.6064 16.4461V-4.93994Z" fill="#D9D9D9"/>
<path d="M68.0154 16.4459H46.6064L57.3109 5.75293L68.0154 16.4459Z" fill="#BBBBBB"/>
<path d="M46.6064 -4.93994H68.0154L57.3109 5.75306L46.6064 -4.93994Z" fill="white"/>
<path d="M3.80762 -4.93994L14.5021 5.75306L3.80762 16.4461V-4.93994Z" fill="white"/>
<path d="M25.2065 16.4461L14.502 5.75306L25.2065 -4.93994V16.4461Z" fill="#D9D9D9"/>
<path d="M3.80762 -4.93994H25.2066L14.5021 5.75306L3.80762 -4.93994Z" fill="#BBBBBB"/>
<path d="M25.2066 16.4459H3.80762L14.5021 5.75293L25.2066 16.4459Z" fill="#9C9C9C"/>
<path d="M132.222 16.4461L121.518 5.75306L132.222 -4.93994V16.4461Z" fill="white"/>
<path d="M110.823 -4.93994L121.518 5.75306L110.823 16.4461V-4.93994Z" fill="#7F7F7F"/>
<path d="M132.222 16.4459H110.823L121.518 5.75293L132.222 16.4459Z" fill="#9C9C9C"/>
<path d="M110.823 -4.93994H132.222L121.518 5.75306L110.823 -4.93994Z" fill="#D9D9D9"/>
<path d="M153.62 16.4461L142.926 5.75306L153.62 -4.93994V16.4461Z" fill="#7F7F7F"/>
<path d="M132.222 -4.93994L142.926 5.75306L132.222 16.4461V-4.93994Z" fill="#D9D9D9"/>
<path d="M153.621 16.4459H132.222L142.926 5.75293L153.621 16.4459Z" fill="#BBBBBB"/>
<path d="M132.222 -4.93994H153.621L142.926 5.75306L132.222 -4.93994Z" fill="white"/>
<path d="M175.03 16.4461L164.325 5.75306L175.03 -4.93994V16.4461Z" fill="#D9D9D9"/>
<path d="M153.621 -4.93994L164.326 5.75306L153.621 16.4461V-4.93994Z" fill="#D9D9D9"/>
<path d="M175.03 16.4459H153.621L164.326 5.75293L175.03 16.4459Z" fill="#BBBBBB"/>
<path d="M153.621 -4.93994H175.03L164.326 5.75306L153.621 -4.93994Z" fill="#9C9C9C"/>
<path d="M110.823 16.4461L100.118 5.75306L110.823 -4.93994V16.4461Z" fill="white"/>
<path d="M89.4141 -4.93994L100.119 5.75306L89.4141 16.4461V-4.93994Z" fill="#D9D9D9"/>
<path d="M110.823 16.4459H89.4141L100.119 5.75293L110.823 16.4459Z" fill="#9C9C9C"/>
<path d="M89.4141 -4.93994H110.823L100.119 5.75306L89.4141 -4.93994Z" fill="#BBBBBB"/>
<path d="M89.4135 16.4461L78.709 5.75306L89.4135 -4.93994V16.4461Z" fill="white"/>
<path d="M68.0146 -4.93994L78.7091 5.75306L68.0146 16.4461V-4.93994Z" fill="#9C9C9C"/>
<path d="M89.4136 16.4459H68.0146L78.7091 5.75293L89.4136 16.4459Z" fill="#D9D9D9"/>
<path d="M68.0146 -4.93994H89.4136L78.7091 5.75306L68.0146 -4.93994Z" fill="#7F7F7F"/>
<path d="M25.207 -4.93994L35.9115 5.75306L25.207 16.4461V-4.93994Z" fill="#BBBBBB"/>
<path d="M46.6056 16.4461L35.9111 5.75306L46.6056 -4.93994V16.4461Z" fill="#9C9C9C"/>
<path d="M25.207 -4.93994H46.606L35.9115 5.75306L25.207 -4.93994Z" fill="#7F7F7F"/>
<path d="M46.606 16.4459H25.207L35.9115 5.75293L46.606 16.4459Z" fill="white"/>
<path d="M175.03 37.8323L164.325 27.1393L175.03 16.4463V37.8323Z" fill="#BBBBBB"/>
<path d="M153.621 16.4463L164.326 27.1393L153.621 37.8323V16.4463Z" fill="#BBBBBB"/>
<path d="M175.03 37.8322H153.621L164.326 27.1392L175.03 37.8322Z" fill="#9C9C9C"/>
<path d="M153.621 16.4463H175.03L164.326 27.1393L153.621 16.4463Z" fill="#D9D9D9"/>
<path d="M153.62 37.8323L142.926 27.1393L153.62 16.4463V37.8323Z" fill="white"/>
<path d="M132.222 16.4463L142.926 27.1393L132.222 37.8323V16.4463Z" fill="#D9D9D9"/>
<path d="M153.621 37.8322H132.222L142.926 27.1392L153.621 37.8322Z" fill="#BBBBBB"/>
<path d="M132.222 16.4463H153.621L142.926 27.1393L132.222 16.4463Z" fill="#9C9C9C"/>
<path d="M68.0146 16.4463L78.7091 27.1393L68.0146 37.8323V16.4463Z" fill="#D9D9D9"/>
<path d="M89.4135 37.8323L78.709 27.1393L89.4135 16.4463V37.8323Z" fill="#D9D9D9"/>
<path d="M68.0146 16.4463H89.4136L78.7091 27.1393L68.0146 16.4463Z" fill="#BBBBBB"/>
<path d="M89.4136 37.8322H68.0146L78.7091 27.1392L89.4136 37.8322Z" fill="white"/>
<path d="M132.222 37.8323L121.518 27.1393L132.222 16.4463V37.8323Z" fill="#7F7F7F"/>
<path d="M110.823 16.4463L121.518 27.1393L110.823 37.8323V16.4463Z" fill="#D9D9D9"/>
<path d="M132.222 37.8322H110.823L121.518 27.1392L132.222 37.8322Z" fill="#BBBBBB"/>
<path d="M110.823 16.4463H132.222L121.518 27.1393L110.823 16.4463Z" fill="white"/>
<path d="M3.80762 16.4463L14.5021 27.1393L3.80762 37.8323V16.4463Z" fill="white"/>
<path d="M25.2065 37.8323L14.502 27.1393L25.2065 16.4463V37.8323Z" fill="#BBBBBB"/>
<path d="M3.80762 16.4463H25.2066L14.5021 27.1393L3.80762 16.4463Z" fill="#9C9C9C"/>
<path d="M25.2066 37.8322H3.80762L14.5021 27.1392L25.2066 37.8322Z" fill="#D9D9D9"/>
<path d="M3.80802 37.8323L-6.89648 27.1393L3.80802 16.4463V37.8323Z" fill="#9C9C9C"/>
<path d="M-17.6006 16.4463H3.80842L-6.89608 27.1393L-17.6006 16.4463Z" fill="#D9D9D9"/>
<path d="M3.80842 37.8322H-17.6006L-6.89608 27.1392L3.80842 37.8322Z" fill="white"/>
<path d="M25.207 16.4463L35.9115 27.1393L25.207 37.8323V16.4463Z" fill="white"/>
<path d="M46.6056 37.8323L35.9111 27.1393L46.6056 16.4463V37.8323Z" fill="#D9D9D9"/>
<path d="M25.207 16.4463H46.606L35.9115 27.1393L25.207 16.4463Z" fill="#9C9C9C"/>
<path d="M46.606 37.8322H25.207L35.9115 27.1392L46.606 37.8322Z" fill="#BBBBBB"/>
<path d="M46.6064 16.4463L57.3109 27.1393L46.6064 37.8323V16.4463Z" fill="white"/>
<path d="M68.0151 37.8323L57.3105 27.1393L68.0151 16.4463V37.8323Z" fill="#9C9C9C"/>
<path d="M46.6064 16.4463H68.0154L57.3109 27.1393L46.6064 16.4463Z" fill="#D9D9D9"/>
<path d="M68.0154 37.8322H46.6064L57.3109 27.1392L68.0154 37.8322Z" fill="#7F7F7F"/>
<path d="M110.823 37.8323L100.118 27.1393L110.823 16.4463V37.8323Z" fill="#BBBBBB"/>
<path d="M89.4141 16.4463L100.119 27.1393L89.4141 37.8323V16.4463Z" fill="#9C9C9C"/>
<path d="M110.823 37.8322H89.4141L100.119 27.1392L110.823 37.8322Z" fill="#7F7F7F"/>
<path d="M89.4141 16.4463H110.823L100.119 27.1393L89.4141 16.4463Z" fill="white"/>
<path d="M175.03 208.94L164.325 198.247L175.03 187.554V208.94Z" fill="white"/>
<path d="M153.621 187.554L164.326 198.247L153.621 208.94V187.554Z" fill="#BBBBBB"/>
<path d="M175.03 208.94H153.621L164.326 198.247L175.03 208.94Z" fill="#9C9C9C"/>
<path d="M153.621 187.554H175.03L164.326 198.247L153.621 187.554Z" fill="#D9D9D9"/>
<path d="M153.62 208.94L142.926 198.247L153.62 187.554V208.94Z" fill="#7F7F7F"/>
<path d="M132.222 187.554L142.926 198.247L132.222 208.94V187.554Z" fill="#D9D9D9"/>
<path d="M153.621 208.94H132.222L142.926 198.247L153.621 208.94Z" fill="#BBBBBB"/>
<path d="M132.222 187.554H153.621L142.926 198.247L132.222 187.554Z" fill="white"/>
<path d="M68.0146 187.554L78.7091 198.247L68.0146 208.94V187.554Z" fill="#7F7F7F"/>
<path d="M89.4135 208.94L78.709 198.247L89.4135 187.554V208.94Z" fill="#D9D9D9"/>
<path d="M68.0146 187.554H89.4136L78.7091 198.247L68.0146 187.554Z" fill="#BBBBBB"/>
<path d="M89.4136 208.94H68.0146L78.7091 198.247L89.4136 208.94Z" fill="white"/>
<path d="M132.222 208.94L121.518 198.247L132.222 187.554V208.94Z" fill="white"/>
<path d="M110.823 187.554L121.518 198.247L110.823 208.94V187.554Z" fill="#D9D9D9"/>
<path d="M132.222 208.94H110.823L121.518 198.247L132.222 208.94Z" fill="#BBBBBB"/>
<path d="M110.823 187.554H132.222L121.518 198.247L110.823 187.554Z" fill="#9C9C9C"/>
<path d="M3.80762 187.554L14.5021 198.247L3.80762 208.94V187.554Z" fill="white"/>
<path d="M25.2065 208.94L14.502 198.247L25.2065 187.554V208.94Z" fill="#7F7F7F"/>
<path d="M3.80762 187.554H25.2066L14.5021 198.247L3.80762 187.554Z" fill="#9C9C9C"/>
<path d="M25.2066 208.94H3.80762L14.5021 198.247L25.2066 208.94Z" fill="#D9D9D9"/>
<path d="M3.80802 208.94L-6.89648 198.247L3.80802 187.554V208.94Z" fill="#D9D9D9"/>
<path d="M-17.6006 187.554H3.80842L-6.89608 198.247L-17.6006 187.554Z" fill="#BBBBBB"/>
<path d="M3.80842 208.94H-17.6006L-6.89608 198.247L3.80842 208.94Z" fill="white"/>
<path d="M25.207 187.554L35.9115 198.247L25.207 208.94V187.554Z" fill="white"/>
<path d="M46.6056 208.94L35.9111 198.247L46.6056 187.554V208.94Z" fill="#D9D9D9"/>
<path d="M25.207 187.554H46.606L35.9115 198.247L25.207 187.554Z" fill="#9C9C9C"/>
<path d="M46.606 208.94H25.207L35.9115 198.247L46.606 208.94Z" fill="#BBBBBB"/>
<path d="M46.6064 187.554L57.3109 198.247L46.6064 208.94V187.554Z" fill="white"/>
<path d="M68.0151 208.94L57.3105 198.247L68.0151 187.554V208.94Z" fill="#9C9C9C"/>
<path d="M46.6064 187.554H68.0154L57.3109 198.247L46.6064 187.554Z" fill="#D9D9D9"/>
<path d="M68.0154 208.94H46.6064L57.3109 198.247L68.0154 208.94Z" fill="#7F7F7F"/>
<path d="M110.823 208.94L100.118 198.247L110.823 187.554V208.94Z" fill="#BBBBBB"/>
<path d="M89.4141 187.554L100.119 198.247L89.4141 208.94V187.554Z" fill="#9C9C9C"/>
<path d="M110.823 208.94H89.4141L100.119 198.247L110.823 208.94Z" fill="#7F7F7F"/>
<path d="M89.4141 187.554H110.823L100.119 198.247L89.4141 187.554Z" fill="white"/>
<path d="M3.80802 187.554L-6.89648 176.861L3.80802 166.168V187.554Z" fill="#D9D9D9"/>
<path d="M-17.6006 166.168H3.80842L-6.89608 176.861L-17.6006 166.168Z" fill="#BBBBBB"/>
<path d="M3.80842 187.554H-17.6006L-6.89608 176.861L3.80842 187.554Z" fill="#9C9C9C"/>
<path d="M68.0151 187.554L57.3105 176.861L68.0151 166.168V187.554Z" fill="#D9D9D9"/>
<path d="M46.6064 166.168L57.3109 176.861L46.6064 187.554V166.168Z" fill="#D9D9D9"/>
<path d="M68.0154 187.554H46.6064L57.3109 176.861L68.0154 187.554Z" fill="#BBBBBB"/>
<path d="M46.6064 166.168H68.0154L57.3109 176.861L46.6064 166.168Z" fill="white"/>
<path d="M3.80762 166.168L14.5021 176.861L3.80762 187.554V166.168Z" fill="#7F7F7F"/>
<path d="M25.2065 187.554L14.502 176.861L25.2065 166.168V187.554Z" fill="#D9D9D9"/>
<path d="M3.80762 166.168H25.2066L14.5021 176.861L3.80762 166.168Z" fill="#BBBBBB"/>
<path d="M25.2066 187.554H3.80762L14.5021 176.861L25.2066 187.554Z" fill="white"/>
<path d="M132.222 187.554L121.518 176.861L132.222 166.168V187.554Z" fill="white"/>
<path d="M110.823 166.168L121.518 176.861L110.823 187.554V166.168Z" fill="#BBBBBB"/>
<path d="M132.222 187.554H110.823L121.518 176.861L132.222 187.554Z" fill="#9C9C9C"/>
<path d="M110.823 166.168H132.222L121.518 176.861L110.823 166.168Z" fill="#D9D9D9"/>
<path d="M153.62 187.554L142.926 176.861L153.62 166.168V187.554Z" fill="#BBBBBB"/>
<path d="M132.222 166.168L142.926 176.861L132.222 187.554V166.168Z" fill="#9C9C9C"/>
<path d="M153.621 187.554H132.222L142.926 176.861L153.621 187.554Z" fill="#D9D9D9"/>
<path d="M132.222 166.168H153.621L142.926 176.861L132.222 166.168Z" fill="white"/>
<path d="M175.03 187.554L164.325 176.861L175.03 166.168V187.554Z" fill="white"/>
<path d="M153.621 166.168L164.326 176.861L153.621 187.554V166.168Z" fill="#D9D9D9"/>
<path d="M175.03 187.554H153.621L164.326 176.861L175.03 187.554Z" fill="#BBBBBB"/>
<path d="M153.621 166.168H175.03L164.326 176.861L153.621 166.168Z" fill="#9C9C9C"/>
<path d="M110.823 187.554L100.118 176.861L110.823 166.168V187.554Z" fill="white"/>
<path d="M89.4141 166.168L100.119 176.861L89.4141 187.554V166.168Z" fill="#D9D9D9"/>
<path d="M110.823 187.554H89.4141L100.119 176.861L110.823 187.554Z" fill="#9C9C9C"/>
<path d="M89.4141 166.168H110.823L100.119 176.861L89.4141 166.168Z" fill="#BBBBBB"/>
<path d="M89.4135 187.554L78.709 176.861L89.4135 166.168V187.554Z" fill="white"/>
<path d="M68.0146 166.168L78.7091 176.861L68.0146 187.554V166.168Z" fill="#9C9C9C"/>
<path d="M89.4136 187.554H68.0146L78.7091 176.861L89.4136 187.554Z" fill="#D9D9D9"/>
<path d="M68.0146 166.168H89.4136L78.7091 176.861L68.0146 166.168Z" fill="#7F7F7F"/>
<path d="M25.207 166.168L35.9115 176.861L25.207 187.554V166.168Z" fill="#BBBBBB"/>
<path d="M46.6056 187.554L35.9111 176.861L46.6056 166.168V187.554Z" fill="#9C9C9C"/>
<path d="M25.207 166.168H46.606L35.9115 176.861L25.207 166.168Z" fill="#7F7F7F"/>
<path d="M46.606 187.554H25.207L35.9115 176.861L46.606 187.554Z" fill="white"/>
<path d="M175.03 80.6143L164.325 69.9113L175.03 59.2183V80.6143Z" fill="white"/>
<path d="M153.621 59.2183L164.326 69.9113L153.621 80.6143V59.2183Z" fill="#BBBBBB"/>
<path d="M175.03 80.6141H153.621L164.326 69.9111L175.03 80.6141Z" fill="#D9D9D9"/>
<path d="M153.621 59.2183H175.03L164.326 69.9113L153.621 59.2183Z" fill="#D9D9D9"/>
<path d="M153.62 80.6143L142.926 69.9113L153.62 59.2183V80.6143Z" fill="#D9D9D9"/>
<path d="M132.222 59.2183L142.926 69.9113L132.222 80.6143V59.2183Z" fill="#9C9C9C"/>
<path d="M153.621 80.6141H132.222L142.926 69.9111L153.621 80.6141Z" fill="#BBBBBB"/>
<path d="M132.222 59.2183H153.621L142.926 69.9113L132.222 59.2183Z" fill="white"/>
<path d="M68.0146 59.2183L78.7091 69.9113L68.0146 80.6143V59.2183Z" fill="#BBBBBB"/>
<path d="M89.4135 80.6143L78.709 69.9113L89.4135 59.2183V80.6143Z" fill="#9C9C9C"/>
<path d="M68.0146 59.2183H89.4136L78.7091 69.9113L68.0146 59.2183Z" fill="#D9D9D9"/>
<path d="M89.4136 80.6141H68.0146L78.7091 69.9111L89.4136 80.6141Z" fill="white"/>
<path d="M132.222 80.6143L121.518 69.9113L132.222 59.2183V80.6143Z" fill="#BBBBBB"/>
<path d="M110.823 59.2183L121.518 69.9113L110.823 80.6143V59.2183Z" fill="#7F7F7F"/>
<path d="M132.222 80.6141H110.823L121.518 69.9111L132.222 80.6141Z" fill="white"/>
<path d="M110.823 59.2183H132.222L121.518 69.9113L110.823 59.2183Z" fill="#9C9C9C"/>
<path d="M3.80762 59.2183L14.5021 69.9113L3.80762 80.6143V59.2183Z" fill="white"/>
<path d="M25.2065 80.6143L14.502 69.9113L25.2065 59.2183V80.6143Z" fill="#BBBBBB"/>
<path d="M3.80762 59.2183H25.2066L14.5021 69.9113L3.80762 59.2183Z" fill="#9C9C9C"/>
<path d="M25.2066 80.6141H3.80762L14.5021 69.9111L25.2066 80.6141Z" fill="#D9D9D9"/>
<path d="M3.80802 80.6143L-6.89648 69.9113L3.80802 59.2183V80.6143Z" fill="#D9D9D9"/>
<path d="M-17.6006 59.2183H3.80842L-6.89608 69.9113L-17.6006 59.2183Z" fill="#BBBBBB"/>
<path d="M3.80842 80.6141H-17.6006L-6.89608 69.9111L3.80842 80.6141Z" fill="white"/>
<path d="M25.207 59.2183L35.9115 69.9113L25.207 80.6143V59.2183Z" fill="white"/>
<path d="M46.6056 80.6143L35.9111 69.9113L46.6056 59.2183V80.6143Z" fill="#D9D9D9"/>
<path d="M25.207 59.2183H46.606L35.9115 69.9113L25.207 59.2183Z" fill="#9C9C9C"/>
<path d="M46.606 80.6141H25.207L35.9115 69.9111L46.606 80.6141Z" fill="#BBBBBB"/>
<path d="M46.6064 59.2183L57.3109 69.9113L46.6064 80.6143V59.2183Z" fill="white"/>
<path d="M68.0151 80.6143L57.3105 69.9113L68.0151 59.2183V80.6143Z" fill="#D9D9D9"/>
<path d="M46.6064 59.2183H68.0154L57.3109 69.9113L46.6064 59.2183Z" fill="#BBBBBB"/>
<path d="M68.0154 80.6141H46.6064L57.3109 69.9111L68.0154 80.6141Z" fill="#9C9C9C"/>
<path d="M110.823 80.6143L100.118 69.9113L110.823 59.2183V80.6143Z" fill="#BBBBBB"/>
<path d="M89.4141 59.2183L100.119 69.9113L89.4141 80.6143V59.2183Z" fill="#7F7F7F"/>
<path d="M110.823 80.6141H89.4141L100.119 69.9111L110.823 80.6141Z" fill="#9C9C9C"/>
<path d="M89.4141 59.2183H110.823L100.119 69.9113L89.4141 59.2183Z" fill="white"/>
<path d="M3.80802 59.218L-6.89648 48.525L3.80802 37.832V59.218Z" fill="#D9D9D9"/>
<path d="M-17.6006 37.832H3.80842L-6.89608 48.525L-17.6006 37.832Z" fill="#BBBBBB"/>
<path d="M3.80842 59.2179H-17.6006L-6.89608 48.5249L3.80842 59.2179Z" fill="#9C9C9C"/>
<path d="M68.0151 59.218L57.3105 48.525L68.0151 37.832V59.218Z" fill="white"/>
<path d="M46.6064 37.832L57.3109 48.525L46.6064 59.218V37.832Z" fill="#7F7F7F"/>
<path d="M68.0154 59.2179H46.6064L57.3109 48.5249L68.0154 59.2179Z" fill="#9C9C9C"/>
<path d="M46.6064 37.832H68.0154L57.3109 48.525L46.6064 37.832Z" fill="#D9D9D9"/>
<path d="M3.80762 37.832L14.5021 48.525L3.80762 59.218V37.832Z" fill="white"/>
<path d="M25.2065 59.218L14.502 48.525L25.2065 37.832V59.218Z" fill="#D9D9D9"/>
<path d="M3.80762 37.832H25.2066L14.5021 48.525L3.80762 37.832Z" fill="#BBBBBB"/>
<path d="M25.2066 59.2179H3.80762L14.5021 48.5249L25.2066 59.2179Z" fill="#9C9C9C"/>
<path d="M132.222 59.218L121.518 48.525L132.222 37.832V59.218Z" fill="#D9D9D9"/>
<path d="M110.823 37.832L121.518 48.525L110.823 59.218V37.832Z" fill="#BBBBBB"/>
<path d="M132.222 59.2179H110.823L121.518 48.5249L132.222 59.2179Z" fill="white"/>
<path d="M110.823 37.832H132.222L121.518 48.525L110.823 37.832Z" fill="#9C9C9C"/>
<path d="M153.62 59.218L142.926 48.525L153.62 37.832V59.218Z" fill="#9C9C9C"/>
<path d="M132.222 37.832L142.926 48.525L132.222 59.218V37.832Z" fill="#BBBBBB"/>
<path d="M153.621 59.2179H132.222L142.926 48.5249L153.621 59.2179Z" fill="#D9D9D9"/>
<path d="M132.222 37.832H153.621L142.926 48.525L132.222 37.832Z" fill="white"/>
<path d="M175.03 59.218L164.325 48.525L175.03 37.832V59.218Z" fill="white"/>
<path d="M153.621 37.832L164.326 48.525L153.621 59.218V37.832Z" fill="#D9D9D9"/>
<path d="M175.03 59.2179H153.621L164.326 48.5249L175.03 59.2179Z" fill="#BBBBBB"/>
<path d="M153.621 37.832H175.03L164.326 48.525L153.621 37.832Z" fill="#9C9C9C"/>
<path d="M110.823 59.218L100.118 48.525L110.823 37.832V59.218Z" fill="white"/>
<path d="M89.4141 37.832L100.119 48.525L89.4141 59.218V37.832Z" fill="#9C9C9C"/>
<path d="M110.823 59.2179H89.4141L100.119 48.5249L110.823 59.2179Z" fill="#D9D9D9"/>
<path d="M89.4141 37.832H110.823L100.119 48.525L89.4141 37.832Z" fill="#BBBBBB"/>
<path d="M89.4135 59.218L78.709 48.525L89.4135 37.832V59.218Z" fill="#D9D9D9"/>
<path d="M68.0146 37.832L78.7091 48.525L68.0146 59.218V37.832Z" fill="#BBBBBB"/>
<path d="M89.4136 59.2179H68.0146L78.7091 48.5249L89.4136 59.2179Z" fill="#9C9C9C"/>
<path d="M68.0146 37.832H89.4136L78.7091 48.525L68.0146 37.832Z" fill="#7F7F7F"/>
<path d="M25.207 37.832L35.9115 48.525L25.207 59.218V37.832Z" fill="#BBBBBB"/>
<path d="M46.6056 59.218L35.9111 48.525L46.6056 37.832V59.218Z" fill="#9C9C9C"/>
<path d="M25.207 37.832H46.606L35.9115 48.525L25.207 37.832Z" fill="#7F7F7F"/>
<path d="M46.606 59.2179H25.207L35.9115 48.5249L46.606 59.2179Z" fill="white"/>
<path d="M175.03 166.168L164.325 155.465L175.03 144.772V166.168Z" fill="white"/>
<path d="M153.621 144.772L164.326 155.465L153.621 166.168V144.772Z" fill="#BBBBBB"/>
<path d="M175.03 166.168H153.621L164.326 155.465L175.03 166.168Z" fill="#9C9C9C"/>
<path d="M153.621 144.772H175.03L164.326 155.465L153.621 144.772Z" fill="#D9D9D9"/>
<path d="M153.62 166.168L142.926 155.465L153.62 144.772V166.168Z" fill="#7F7F7F"/>
<path d="M132.222 144.772L142.926 155.465L132.222 166.168V144.772Z" fill="#D9D9D9"/>
<path d="M153.621 166.168H132.222L142.926 155.465L153.621 166.168Z" fill="#BBBBBB"/>
<path d="M132.222 144.772H153.621L142.926 155.465L132.222 144.772Z" fill="white"/>
<path d="M68.0146 144.772L78.7091 155.465L68.0146 166.168V144.772Z" fill="#7F7F7F"/>
<path d="M89.4135 166.168L78.709 155.465L89.4135 144.772V166.168Z" fill="#D9D9D9"/>
<path d="M68.0146 144.772H89.4136L78.7091 155.465L68.0146 144.772Z" fill="#9C9C9C"/>
<path d="M89.4136 166.168H68.0146L78.7091 155.465L89.4136 166.168Z" fill="white"/>
<path d="M132.222 166.168L121.518 155.465L132.222 144.772V166.168Z" fill="white"/>
<path d="M110.823 144.772L121.518 155.465L110.823 166.168V144.772Z" fill="#D9D9D9"/>
<path d="M132.222 166.168H110.823L121.518 155.465L132.222 166.168Z" fill="#BBBBBB"/>
<path d="M110.823 144.772H132.222L121.518 155.465L110.823 144.772Z" fill="#9C9C9C"/>
<path d="M3.80762 144.772L14.5021 155.465L3.80762 166.168V144.772Z" fill="white"/>
<path d="M25.2065 166.168L14.502 155.465L25.2065 144.772V166.168Z" fill="#7F7F7F"/>
<path d="M3.80762 144.772H25.2066L14.5021 155.465L3.80762 144.772Z" fill="#9C9C9C"/>
<path d="M25.2066 166.168H3.80762L14.5021 155.465L25.2066 166.168Z" fill="#D9D9D9"/>
<path d="M3.80802 166.168L-6.89648 155.465L3.80802 144.772V166.168Z" fill="#D9D9D9"/>
<path d="M-17.6006 144.772H3.80842L-6.89608 155.465L-17.6006 144.772Z" fill="#BBBBBB"/>
<path d="M3.80842 166.168H-17.6006L-6.89608 155.465L3.80842 166.168Z" fill="white"/>
<path d="M25.207 144.772L35.9115 155.465L25.207 166.168V144.772Z" fill="white"/>
<path d="M46.6056 166.168L35.9111 155.465L46.6056 144.772V166.168Z" fill="#D9D9D9"/>
<path d="M25.207 144.772H46.606L35.9115 155.465L25.207 144.772Z" fill="#9C9C9C"/>
<path d="M46.606 166.168H25.207L35.9115 155.465L46.606 166.168Z" fill="#BBBBBB"/>
<path d="M46.6064 144.772L57.3109 155.465L46.6064 166.168V144.772Z" fill="white"/>
<path d="M68.0151 166.168L57.3105 155.465L68.0151 144.772V166.168Z" fill="#9C9C9C"/>
<path d="M46.6064 144.772H68.0154L57.3109 155.465L46.6064 144.772Z" fill="#D9D9D9"/>
<path d="M68.0154 166.168H46.6064L57.3109 155.465L68.0154 166.168Z" fill="#7F7F7F"/>
<path d="M110.823 166.168L100.118 155.465L110.823 144.772V166.168Z" fill="#BBBBBB"/>
<path d="M89.4141 144.772L100.119 155.465L89.4141 166.168V144.772Z" fill="#9C9C9C"/>
<path d="M110.823 166.168H89.4141L100.119 155.465L110.823 166.168Z" fill="#7F7F7F"/>
<path d="M89.4141 144.772H110.823L100.119 155.465L89.4141 144.772Z" fill="white"/>
<path d="M3.80802 144.772L-6.89648 134.079L3.80802 123.386V144.772Z" fill="#D9D9D9"/>
<path d="M-17.6006 123.386H3.80842L-6.89608 134.079L-17.6006 123.386Z" fill="#BBBBBB"/>
<path d="M3.80842 144.772H-17.6006L-6.89608 134.079L3.80842 144.772Z" fill="#9C9C9C"/>
<path d="M68.0151 144.772L57.3105 134.079L68.0151 123.386V144.772Z" fill="#D9D9D9"/>
<path d="M46.6064 123.386L57.3109 134.079L46.6064 144.772V123.386Z" fill="#D9D9D9"/>
<path d="M68.0154 144.772H46.6064L57.3109 134.079L68.0154 144.772Z" fill="#BBBBBB"/>
<path d="M46.6064 123.386H68.0154L57.3109 134.079L46.6064 123.386Z" fill="white"/>
<path d="M3.80762 123.386L14.5021 134.079L3.80762 144.772V123.386Z" fill="#7F7F7F"/>
<path d="M25.2065 144.772L14.502 134.079L25.2065 123.386V144.772Z" fill="#D9D9D9"/>
<path d="M3.80762 123.386H25.2066L14.5021 134.079L3.80762 123.386Z" fill="#BBBBBB"/>
<path d="M25.2066 144.772H3.80762L14.5021 134.079L25.2066 144.772Z" fill="white"/>
<path d="M132.222 144.772L121.518 134.079L132.222 123.386V144.772Z" fill="white"/>
<path d="M110.823 123.386L121.518 134.079L110.823 144.772V123.386Z" fill="#BBBBBB"/>
<path d="M132.222 144.772H110.823L121.518 134.079L132.222 144.772Z" fill="#9C9C9C"/>
<path d="M110.823 123.386H132.222L121.518 134.079L110.823 123.386Z" fill="#D9D9D9"/>
<path d="M153.62 144.772L142.926 134.079L153.62 123.386V144.772Z" fill="#BBBBBB"/>
<path d="M132.222 123.386L142.926 134.079L132.222 144.772V123.386Z" fill="#9C9C9C"/>
<path d="M153.621 144.772H132.222L142.926 134.079L153.621 144.772Z" fill="#D9D9D9"/>
<path d="M132.222 123.386H153.621L142.926 134.079L132.222 123.386Z" fill="white"/>
<path d="M175.03 144.772L164.325 134.079L175.03 123.386V144.772Z" fill="white"/>
<path d="M153.621 123.386L164.326 134.079L153.621 144.772V123.386Z" fill="#D9D9D9"/>
<path d="M175.03 144.772H153.621L164.326 134.079L175.03 144.772Z" fill="#BBBBBB"/>
<path d="M153.621 123.386H175.03L164.326 134.079L153.621 123.386Z" fill="#9C9C9C"/>
<path d="M110.823 144.772L100.118 134.079L110.823 123.386V144.772Z" fill="white"/>
<path d="M89.4141 123.386L100.119 134.079L89.4141 144.772V123.386Z" fill="#D9D9D9"/>
<path d="M110.823 144.772H89.4141L100.119 134.079L110.823 144.772Z" fill="#9C9C9C"/>
<path d="M89.4141 123.386H110.823L100.119 134.079L89.4141 123.386Z" fill="#BBBBBB"/>
<path d="M89.4135 144.772L78.709 134.079L89.4135 123.386V144.772Z" fill="white"/>
<path d="M68.0146 123.386L78.7091 134.079L68.0146 144.772V123.386Z" fill="#9C9C9C"/>
<path d="M89.4136 144.772H68.0146L78.7091 134.079L89.4136 144.772Z" fill="#D9D9D9"/>
<path d="M68.0146 123.386H89.4136L78.7091 134.079L68.0146 123.386Z" fill="#7F7F7F"/>
<path d="M25.207 123.386L35.9115 134.079L25.207 144.772V123.386Z" fill="#BBBBBB"/>
<path d="M46.6056 144.772L35.9111 134.079L46.6056 123.386V144.772Z" fill="#9C9C9C"/>
<path d="M25.207 123.386H46.606L35.9115 134.079L25.207 123.386Z" fill="#7F7F7F"/>
<path d="M46.606 144.772H25.207L35.9115 134.079L46.606 144.772Z" fill="white"/>
<path d="M3.80802 102L-6.89648 91.3073L3.80802 80.6143V102Z" fill="#9C9C9C"/>
<path d="M-17.6006 80.6143H3.80842L-6.89608 91.3073L-17.6006 80.6143Z" fill="#BBBBBB"/>
<path d="M3.80842 102H-17.6006L-6.89608 91.3071L3.80842 102Z" fill="white"/>
<path d="M68.0151 102L57.3105 91.3073L68.0151 80.6143V102Z" fill="#BBBBBB"/>
<path d="M46.6064 80.6143L57.3109 91.3073L46.6064 102V80.6143Z" fill="#9C9C9C"/>
<path d="M68.0154 102H46.6064L57.3109 91.3071L68.0154 102Z" fill="#D9D9D9"/>
<path d="M46.6064 80.6143H68.0154L57.3109 91.3073L46.6064 80.6143Z" fill="white"/>
<path d="M3.80762 80.6143L14.5021 91.3073L3.80762 102V80.6143Z" fill="#BBBBBB"/>
<path d="M25.2065 102L14.502 91.3073L25.2065 80.6143V102Z" fill="#7F7F7F"/>
<path d="M3.80762 80.6143H25.2066L14.5021 91.3073L3.80762 80.6143Z" fill="white"/>
<path d="M25.2066 102H3.80762L14.5021 91.3071L25.2066 102Z" fill="#9C9C9C"/>
<path d="M132.222 102L121.518 91.3073L132.222 80.6143V102Z" fill="white"/>
<path d="M110.823 80.6143L121.518 91.3073L110.823 102V80.6143Z" fill="#BBBBBB"/>
<path d="M132.222 102H110.823L121.518 91.3071L132.222 102Z" fill="#9C9C9C"/>
<path d="M110.823 80.6143H132.222L121.518 91.3073L110.823 80.6143Z" fill="#D9D9D9"/>
<path d="M153.62 102L142.926 91.3073L153.62 80.6143V102Z" fill="#7F7F7F"/>
<path d="M132.222 80.6143L142.926 91.3073L132.222 102V80.6143Z" fill="#D9D9D9"/>
<path d="M153.621 102H132.222L142.926 91.3071L153.621 102Z" fill="#BBBBBB"/>
<path d="M132.222 80.6143H153.621L142.926 91.3073L132.222 80.6143Z" fill="white"/>
<path d="M175.03 102L164.325 91.3073L175.03 80.6143V102Z" fill="white"/>
<path d="M153.621 80.6143L164.326 91.3073L153.621 102V80.6143Z" fill="#D9D9D9"/>
<path d="M175.03 102H153.621L164.326 91.3071L175.03 102Z" fill="#BBBBBB"/>
<path d="M153.621 80.6143H175.03L164.326 91.3073L153.621 80.6143Z" fill="#9C9C9C"/>
<path d="M110.823 102L100.118 91.3073L110.823 80.6143V102Z" fill="white"/>
<path d="M89.4141 80.6143L100.119 91.3073L89.4141 102V80.6143Z" fill="#D9D9D9"/>
<path d="M110.823 102H89.4141L100.119 91.3071L110.823 102Z" fill="#9C9C9C"/>
<path d="M89.4141 80.6143H110.823L100.119 91.3073L89.4141 80.6143Z" fill="#BBBBBB"/>
<path d="M89.4135 102L78.709 91.3073L89.4135 80.6143V102Z" fill="white"/>
<path d="M68.0146 80.6143L78.7091 91.3073L68.0146 102V80.6143Z" fill="#D9D9D9"/>
<path d="M89.4136 102H68.0146L78.7091 91.3071L89.4136 102Z" fill="#BBBBBB"/>
<path d="M68.0146 80.6143H89.4136L78.7091 91.3073L68.0146 80.6143Z" fill="#9C9C9C"/>
<path d="M25.207 80.6143L35.9115 91.3073L25.207 102V80.6143Z" fill="#BBBBBB"/>
<path d="M46.6056 102L35.9111 91.3073L46.6056 80.6143V102Z" fill="#7F7F7F"/>
<path d="M25.207 80.6143H46.606L35.9115 91.3073L25.207 80.6143Z" fill="#9C9C9C"/>
<path d="M46.606 102H25.207L35.9115 91.3071L46.606 102Z" fill="white"/>
<path d="M175.03 123.386L164.325 112.693L175.03 102V123.386Z" fill="white"/>
<path d="M153.621 102L164.326 112.693L153.621 123.386V102Z" fill="#BBBBBB"/>
<path d="M175.03 123.386H153.621L164.326 112.693L175.03 123.386Z" fill="#9C9C9C"/>
<path d="M153.621 102H175.03L164.326 112.693L153.621 102Z" fill="#D9D9D9"/>
<path d="M153.62 123.386L142.926 112.693L153.62 102V123.386Z" fill="white"/>
<path d="M132.222 102L142.926 112.693L132.222 123.386V102Z" fill="#D9D9D9"/>
<path d="M153.621 123.386H132.222L142.926 112.693L153.621 123.386Z" fill="#BBBBBB"/>
<path d="M132.222 102H153.621L142.926 112.693L132.222 102Z" fill="#9C9C9C"/>
<path d="M68.0146 102L78.7091 112.693L68.0146 123.386V102Z" fill="white"/>
<path d="M89.4135 123.386L78.709 112.693L89.4135 102V123.386Z" fill="#7F7F7F"/>
<path d="M68.0146 102H89.4136L78.7091 112.693L68.0146 102Z" fill="#9C9C9C"/>
<path d="M89.4136 123.386H68.0146L78.7091 112.693L89.4136 123.386Z" fill="#D9D9D9"/>
<path d="M132.222 123.386L121.518 112.693L132.222 102V123.386Z" fill="white"/>
<path d="M110.823 102L121.518 112.693L110.823 123.386V102Z" fill="#D9D9D9"/>
<path d="M132.222 123.386H110.823L121.518 112.693L132.222 123.386Z" fill="#BBBBBB"/>
<path d="M110.823 102H132.222L121.518 112.693L110.823 102Z" fill="#9C9C9C"/>
<path d="M3.80762 102L14.5021 112.693L3.80762 123.386V102Z" fill="#D9D9D9"/>
<path d="M25.2065 123.386L14.502 112.693L25.2065 102V123.386Z" fill="#BBBBBB"/>
<path d="M3.80762 102H25.2066L14.5021 112.693L3.80762 102Z" fill="white"/>
<path d="M25.2066 123.386H3.80762L14.5021 112.693L25.2066 123.386Z" fill="#9C9C9C"/>
<path d="M3.80802 123.386L-6.89648 112.693L3.80802 102V123.386Z" fill="#BBBBBB"/>
<path d="M-17.6006 102H3.80842L-6.89608 112.693L-17.6006 102Z" fill="#D9D9D9"/>
<path d="M3.80842 123.386H-17.6006L-6.89608 112.693L3.80842 123.386Z" fill="white"/>
<path d="M25.207 102L35.9115 112.693L25.207 123.386V102Z" fill="white"/>
<path d="M46.6056 123.386L35.9111 112.693L46.6056 102V123.386Z" fill="#9C9C9C"/>
<path d="M25.207 102H46.606L35.9115 112.693L25.207 102Z" fill="#D9D9D9"/>
<path d="M46.606 123.386H25.207L35.9115 112.693L46.606 123.386Z" fill="#BBBBBB"/>
<path d="M46.6064 102L57.3109 112.693L46.6064 123.386V102Z" fill="#D9D9D9"/>
<path d="M68.0151 123.386L57.3105 112.693L68.0151 102V123.386Z" fill="#BBBBBB"/>
<path d="M46.6064 102H68.0154L57.3109 112.693L46.6064 102Z" fill="#9C9C9C"/>
<path d="M68.0154 123.386H46.6064L57.3109 112.693L68.0154 123.386Z" fill="#7F7F7F"/>
<path d="M110.823 123.386L100.118 112.693L110.823 102V123.386Z" fill="#BBBBBB"/>
<path d="M89.4141 102L100.119 112.693L89.4141 123.386V102Z" fill="#9C9C9C"/>
<path d="M110.823 123.386H89.4141L100.119 112.693L110.823 123.386Z" fill="#7F7F7F"/>
<path d="M89.4141 102H110.823L100.119 112.693L89.4141 102Z" fill="white"/>
<path d="M175.08 209L185.775 198.297L196.469 209H175.08Z" fill="white"/>
<path d="M196.469 187.594L185.775 198.297L175.08 187.594H196.469Z" fill="#BBBBBB"/>
<path d="M175.08 209V187.594L185.775 198.297L175.08 209Z" fill="#9C9C9C"/>
<path d="M196.469 187.594V209L185.774 198.297L196.469 187.594Z" fill="#D9D9D9"/>
<path d="M175.08 187.594L185.775 176.901L196.469 187.594H175.08Z" fill="#7F7F7F"/>
<path d="M196.469 166.198L185.775 176.901L175.08 166.198H196.469Z" fill="#D9D9D9"/>
<path d="M175.08 187.594V166.198L185.775 176.901L175.08 187.594Z" fill="#BBBBBB"/>
<path d="M196.469 166.198V187.594L185.774 176.901L196.469 166.198Z" fill="white"/>
<path d="M196.469 102L185.775 112.693L175.08 102H196.469Z" fill="#7F7F7F"/>
<path d="M175.08 123.396L185.775 112.693L196.469 123.396H175.08Z" fill="#D9D9D9"/>
<path d="M196.469 102V123.396L185.774 112.693L196.469 102Z" fill="#BBBBBB"/>
<path d="M175.08 123.396V102L185.775 112.693L175.08 123.396Z" fill="#9C9C9C"/>
<path d="M175.08 166.198L185.775 155.495L196.469 166.198H175.08Z" fill="white"/>
<path d="M196.469 144.802L185.775 155.495L175.08 144.802H196.469Z" fill="#D9D9D9"/>
<path d="M175.08 166.198V144.802L185.775 155.495L175.08 166.198Z" fill="#BBBBBB"/>
<path d="M196.469 144.802V166.198L185.774 155.495L196.469 144.802Z" fill="#9C9C9C"/>
<path d="M196.469 37.8018L185.775 48.4948L175.08 37.8018H196.469Z" fill="white"/>
<path d="M175.08 59.1976L185.775 48.4946L196.469 59.1976H175.08Z" fill="#7F7F7F"/>
<path d="M196.469 37.8018V59.1978L185.774 48.4948L196.469 37.8018Z" fill="#9C9C9C"/>
<path d="M175.08 59.1978V37.8018L185.775 48.4948L175.08 59.1978Z" fill="#D9D9D9"/>
<path d="M196.469 16.396L185.775 27.099L175.08 16.396H196.469Z" fill="#7F7F7F"/>
<path d="M175.08 37.8021L185.775 27.0991L196.469 37.8021H175.08Z" fill="#D9D9D9"/>
<path d="M196.469 16.396V37.802L185.774 27.099L196.469 16.396Z" fill="#BBBBBB"/>
<path d="M175.08 37.802V16.396L185.775 27.099L175.08 37.802Z" fill="white"/>
<path d="M196.469 -5L185.775 5.703L175.08 -5H196.469Z" fill="#D9D9D9"/>
<path d="M175.08 16.3961L185.775 5.70312L196.469 16.3961H175.08Z" fill="#D9D9D9"/>
<path d="M196.469 -5V16.396L185.774 5.703L196.469 -5Z" fill="#BBBBBB"/>
<path d="M175.08 16.396V-5L185.775 5.703L175.08 16.396Z" fill="#9C9C9C"/>
<path d="M196.469 59.1982L185.775 69.9012L175.08 59.1982H196.469Z" fill="white"/>
<path d="M175.08 80.5944L185.775 69.9014L196.469 80.5944H175.08Z" fill="#D9D9D9"/>
<path d="M196.469 59.1982V80.5942L185.774 69.9012L196.469 59.1982Z" fill="#9C9C9C"/>
<path d="M175.08 80.5942V59.1982L185.775 69.9012L175.08 80.5942Z" fill="#BBBBBB"/>
<path d="M196.469 80.5938L185.775 91.2967L175.08 80.5938H196.469Z" fill="white"/>
<path d="M175.08 102L185.775 91.2969L196.469 102H175.08Z" fill="#9C9C9C"/>
<path d="M196.469 80.5938V102L185.774 91.2967L196.469 80.5938Z" fill="#D9D9D9"/>
<path d="M175.08 102V80.5938L185.775 91.2967L175.08 102Z" fill="#7F7F7F"/>
<path d="M175.08 144.802L185.775 134.099L196.469 144.802H175.08Z" fill="#BBBBBB"/>
<path d="M196.469 123.396L185.775 134.099L175.08 123.396H196.469Z" fill="#9C9C9C"/>
<path d="M175.08 144.802V123.396L185.775 134.099L175.08 144.802Z" fill="#7F7F7F"/>
<path d="M196.469 123.396V144.802L185.774 134.099L196.469 123.396Z" fill="white"/>
<path d="M217.868 -5L207.173 5.703L196.469 -5H217.868Z" fill="#BBBBBB"/>
<path d="M196.469 16.3961L207.173 5.70312L217.868 16.3961H196.469Z" fill="#BBBBBB"/>
<path d="M217.867 -5V16.396L207.173 5.703L217.867 -5Z" fill="#9C9C9C"/>
<path d="M196.469 16.396V-5L207.173 5.703L196.469 16.396Z" fill="#D9D9D9"/>
<path d="M217.868 16.396L207.173 27.099L196.469 16.396H217.868Z" fill="white"/>
<path d="M196.469 37.8021L207.173 27.0991L217.868 37.8021H196.469Z" fill="#D9D9D9"/>
<path d="M217.867 16.396V37.802L207.173 27.099L217.867 16.396Z" fill="#BBBBBB"/>
<path d="M196.469 37.802V16.396L207.173 27.099L196.469 37.802Z" fill="#9C9C9C"/>
<path d="M196.469 102L207.173 91.2969L217.868 102H196.469Z" fill="#D9D9D9"/>
<path d="M217.868 80.5938L207.173 91.2967L196.469 80.5938H217.868Z" fill="#D9D9D9"/>
<path d="M196.469 102V80.5938L207.173 91.2967L196.469 102Z" fill="#BBBBBB"/>
<path d="M217.867 80.5938V102L207.173 91.2967L217.867 80.5938Z" fill="white"/>
<path d="M217.868 37.8018L207.173 48.4948L196.469 37.8018H217.868Z" fill="#7F7F7F"/>
<path d="M196.469 59.1976L207.173 48.4946L217.868 59.1976H196.469Z" fill="#D9D9D9"/>
<path d="M217.867 37.8018V59.1978L207.173 48.4948L217.867 37.8018Z" fill="#BBBBBB"/>
<path d="M196.469 59.1978V37.8018L207.173 48.4948L196.469 59.1978Z" fill="white"/>
<path d="M196.469 166.198L207.173 155.495L217.868 166.198H196.469Z" fill="white"/>
<path d="M217.868 144.802L207.173 155.495L196.469 144.802H217.868Z" fill="#BBBBBB"/>
<path d="M196.469 166.198V144.802L207.173 155.495L196.469 166.198Z" fill="#9C9C9C"/>
<path d="M217.867 144.802V166.198L207.173 155.495L217.867 144.802Z" fill="#D9D9D9"/>
<path d="M196.469 187.594L207.173 176.901L217.868 187.594H196.469Z" fill="#BBBBBB"/>
<path d="M217.868 166.198L207.173 176.901L196.469 166.198H217.868Z" fill="#9C9C9C"/>
<path d="M196.469 187.594V166.198L207.173 176.901L196.469 187.594Z" fill="#D9D9D9"/>
<path d="M217.867 166.198V187.594L207.173 176.901L217.867 166.198Z" fill="white"/>
<path d="M196.469 209L207.173 198.297L217.868 209H196.469Z" fill="white"/>
<path d="M217.868 187.594L207.173 198.297L196.469 187.594H217.868Z" fill="#D9D9D9"/>
<path d="M196.469 209V187.594L207.173 198.297L196.469 209Z" fill="#BBBBBB"/>
<path d="M217.867 187.594V209L207.173 198.297L217.867 187.594Z" fill="#9C9C9C"/>
<path d="M196.469 144.802L207.173 134.099L217.868 144.802H196.469Z" fill="white"/>
<path d="M217.868 123.396L207.173 134.099L196.469 123.396H217.868Z" fill="#D9D9D9"/>
<path d="M196.469 144.802V123.396L207.173 134.099L196.469 144.802Z" fill="#9C9C9C"/>
<path d="M217.867 123.396V144.802L207.173 134.099L217.867 123.396Z" fill="#BBBBBB"/>
<path d="M196.469 123.396L207.173 112.693L217.868 123.396H196.469Z" fill="white"/>
<path d="M217.868 102L207.173 112.693L196.469 102H217.868Z" fill="#9C9C9C"/>
<path d="M196.469 123.396V102L207.173 112.693L196.469 123.396Z" fill="#D9D9D9"/>
<path d="M217.867 102V123.396L207.173 112.693L217.867 102Z" fill="#7F7F7F"/>
<path d="M217.868 59.1982L207.173 69.9012L196.469 59.1982H217.868Z" fill="#BBBBBB"/>
<path d="M196.469 80.5944L207.173 69.9014L217.868 80.5944H196.469Z" fill="#9C9C9C"/>
<path d="M217.867 59.1982V80.5942L207.173 69.9012L217.867 59.1982Z" fill="#7F7F7F"/>
<path d="M196.469 80.5942V59.1982L207.173 69.9012L196.469 80.5942Z" fill="white"/>
<path d="M303.434 209L314.128 198.297L324.823 209H303.434Z" fill="white"/>
<path d="M324.823 187.594L314.128 198.297L303.434 187.594H324.823Z" fill="#BBBBBB"/>
<path d="M303.434 209V187.594L314.128 198.297L303.434 209Z" fill="#D9D9D9"/>
<path d="M324.822 187.594V209L314.128 198.297L324.822 187.594Z" fill="#D9D9D9"/>
<path d="M303.434 187.594L314.128 176.901L324.823 187.594H303.434Z" fill="#D9D9D9"/>
<path d="M324.823 166.198L314.128 176.901L303.434 166.198H324.823Z" fill="#9C9C9C"/>
<path d="M303.434 187.594V166.198L314.128 176.901L303.434 187.594Z" fill="#BBBBBB"/>
<path d="M324.822 166.198V187.594L314.128 176.901L324.822 166.198Z" fill="white"/>
<path d="M324.823 102L314.128 112.693L303.434 102H324.823Z" fill="#BBBBBB"/>
<path d="M303.434 123.396L314.128 112.693L324.823 123.396H303.434Z" fill="#9C9C9C"/>
<path d="M324.822 102V123.396L314.128 112.693L324.822 102Z" fill="#D9D9D9"/>
<path d="M303.434 123.396V102L314.128 112.693L303.434 123.396Z" fill="white"/>
<path d="M303.434 166.198L314.128 155.495L324.823 166.198H303.434Z" fill="#BBBBBB"/>
<path d="M324.823 144.802L314.128 155.495L303.434 144.802H324.823Z" fill="#7F7F7F"/>
<path d="M303.434 166.198V144.802L314.128 155.495L303.434 166.198Z" fill="white"/>
<path d="M324.822 144.802V166.198L314.128 155.495L324.822 144.802Z" fill="#9C9C9C"/>
<path d="M324.823 37.8018L314.128 48.4948L303.434 37.8018H324.823Z" fill="white"/>
<path d="M303.434 59.1976L314.128 48.4946L324.823 59.1976H303.434Z" fill="#BBBBBB"/>
<path d="M324.822 37.8018V59.1978L314.128 48.4948L324.822 37.8018Z" fill="#9C9C9C"/>
<path d="M303.434 59.1978V37.8018L314.128 48.4948L303.434 59.1978Z" fill="#D9D9D9"/>
<path d="M324.823 16.396L314.128 27.099L303.434 16.396H324.823Z" fill="#7F7F7F"/>
<path d="M303.434 37.8021L314.128 27.0991L324.823 37.8021H303.434Z" fill="#D9D9D9"/>
<path d="M324.822 16.396V37.802L314.128 27.099L324.822 16.396Z" fill="#BBBBBB"/>
<path d="M303.434 37.802V16.396L314.128 27.099L303.434 37.802Z" fill="white"/>
<path d="M324.823 -5L314.128 5.703L303.434 -5H324.823Z" fill="white"/>
<path d="M303.434 16.3961L314.128 5.70312L324.823 16.3961H303.434Z" fill="#D9D9D9"/>
<path d="M324.822 -5V16.396L314.128 5.703L324.822 -5Z" fill="#BBBBBB"/>
<path d="M303.434 16.396V-5L314.128 5.703L303.434 16.396Z" fill="#9C9C9C"/>
<path d="M324.823 59.1982L314.128 69.9012L303.434 59.1982H324.823Z" fill="white"/>
<path d="M303.434 80.5944L314.128 69.9014L324.823 80.5944H303.434Z" fill="#D9D9D9"/>
<path d="M324.822 59.1982V80.5942L314.128 69.9012L324.822 59.1982Z" fill="#9C9C9C"/>
<path d="M303.434 80.5942V59.1982L314.128 69.9012L303.434 80.5942Z" fill="#BBBBBB"/>
<path d="M324.823 80.5938L314.128 91.2967L303.434 80.5938H324.823Z" fill="white"/>
<path d="M303.434 102L314.128 91.2969L324.823 102H303.434Z" fill="#D9D9D9"/>
<path d="M324.822 80.5938V102L314.128 91.2967L324.822 80.5938Z" fill="#BBBBBB"/>
<path d="M303.434 102V80.5938L314.128 91.2967L303.434 102Z" fill="#9C9C9C"/>
<path d="M303.434 144.802L314.128 134.099L324.823 144.802H303.434Z" fill="#BBBBBB"/>
<path d="M324.823 123.396L314.128 134.099L303.434 123.396H324.823Z" fill="#7F7F7F"/>
<path d="M303.434 144.802V123.396L314.128 134.099L303.434 144.802Z" fill="#9C9C9C"/>
<path d="M324.822 123.396V144.802L314.128 134.099L324.822 123.396Z" fill="white"/>
<path d="M217.868 209L228.563 198.297L239.257 209H217.868Z" fill="white"/>
<path d="M239.257 187.594L228.563 198.297L217.868 187.594H239.257Z" fill="#BBBBBB"/>
<path d="M217.868 209V187.594L228.563 198.297L217.868 209Z" fill="#9C9C9C"/>
<path d="M239.257 187.594V209L228.562 198.297L239.257 187.594Z" fill="#D9D9D9"/>
<path d="M217.868 187.594L228.563 176.901L239.257 187.594H217.868Z" fill="#7F7F7F"/>
<path d="M239.257 166.198L228.563 176.901L217.868 166.198H239.257Z" fill="#D9D9D9"/>
<path d="M217.868 187.594V166.198L228.563 176.901L217.868 187.594Z" fill="#BBBBBB"/>
<path d="M239.257 166.198V187.594L228.562 176.901L239.257 166.198Z" fill="white"/>
<path d="M239.257 102L228.563 112.693L217.868 102H239.257Z" fill="#7F7F7F"/>
<path d="M217.868 123.396L228.563 112.693L239.257 123.396H217.868Z" fill="#D9D9D9"/>
<path d="M239.257 102V123.396L228.562 112.693L239.257 102Z" fill="#9C9C9C"/>
<path d="M217.868 123.396V102L228.563 112.693L217.868 123.396Z" fill="white"/>
<path d="M217.868 166.198L228.563 155.495L239.257 166.198H217.868Z" fill="white"/>
<path d="M239.257 144.802L228.563 155.495L217.868 144.802H239.257Z" fill="#D9D9D9"/>
<path d="M217.868 166.198V144.802L228.563 155.495L217.868 166.198Z" fill="#BBBBBB"/>
<path d="M239.257 144.802V166.198L228.562 155.495L239.257 144.802Z" fill="#9C9C9C"/>
<path d="M239.257 37.8018L228.563 48.4948L217.868 37.8018H239.257Z" fill="white"/>
<path d="M217.868 59.1976L228.563 48.4946L239.257 59.1976H217.868Z" fill="#7F7F7F"/>
<path d="M239.257 37.8018V59.1978L228.562 48.4948L239.257 37.8018Z" fill="#9C9C9C"/>
<path d="M217.868 59.1978V37.8018L228.563 48.4948L217.868 59.1978Z" fill="#D9D9D9"/>
<path d="M239.257 16.396L228.563 27.099L217.868 16.396H239.257Z" fill="#7F7F7F"/>
<path d="M217.868 37.8021L228.563 27.0991L239.257 37.8021H217.868Z" fill="#D9D9D9"/>
<path d="M239.257 16.396V37.802L228.562 27.099L239.257 16.396Z" fill="#BBBBBB"/>
<path d="M217.868 37.802V16.396L228.563 27.099L217.868 37.802Z" fill="white"/>
<path d="M239.257 -5L228.563 5.703L217.868 -5H239.257Z" fill="#D9D9D9"/>
<path d="M217.868 16.3961L228.563 5.70312L239.257 16.3961H217.868Z" fill="#D9D9D9"/>
<path d="M239.257 -5V16.396L228.562 5.703L239.257 -5Z" fill="#BBBBBB"/>
<path d="M217.868 16.396V-5L228.563 5.703L217.868 16.396Z" fill="#9C9C9C"/>
<path d="M239.257 59.1982L228.563 69.9012L217.868 59.1982H239.257Z" fill="white"/>
<path d="M217.868 80.5944L228.563 69.9014L239.257 80.5944H217.868Z" fill="#D9D9D9"/>
<path d="M239.257 59.1982V80.5942L228.562 69.9012L239.257 59.1982Z" fill="#9C9C9C"/>
<path d="M217.868 80.5942V59.1982L228.563 69.9012L217.868 80.5942Z" fill="#BBBBBB"/>
<path d="M239.257 80.5938L228.563 91.2967L217.868 80.5938H239.257Z" fill="white"/>
<path d="M217.868 102L228.563 91.2969L239.257 102H217.868Z" fill="#9C9C9C"/>
<path d="M239.257 80.5938V102L228.562 91.2967L239.257 80.5938Z" fill="#D9D9D9"/>
<path d="M217.868 102V80.5938L228.563 91.2967L217.868 102Z" fill="#7F7F7F"/>
<path d="M217.868 144.802L228.563 134.099L239.257 144.802H217.868Z" fill="#BBBBBB"/>
<path d="M239.257 123.396L228.563 134.099L217.868 123.396H239.257Z" fill="#9C9C9C"/>
<path d="M217.868 144.802V123.396L228.563 134.099L217.868 144.802Z" fill="#7F7F7F"/>
<path d="M239.257 123.396V144.802L228.562 134.099L239.257 123.396Z" fill="white"/>
<path d="M260.646 -5L249.951 5.703L239.257 -5H260.646Z" fill="#BBBBBB"/>
<path d="M239.257 16.3961L249.951 5.70312L260.646 16.3961H239.257Z" fill="#BBBBBB"/>
<path d="M260.646 -5V16.396L249.951 5.703L260.646 -5Z" fill="#9C9C9C"/>
<path d="M239.257 16.396V-5L249.951 5.703L239.257 16.396Z" fill="#D9D9D9"/>
<path d="M260.646 16.396L249.951 27.099L239.257 16.396H260.646Z" fill="white"/>
<path d="M239.257 37.8021L249.951 27.0991L260.646 37.8021H239.257Z" fill="#D9D9D9"/>
<path d="M260.646 16.396V37.802L249.951 27.099L260.646 16.396Z" fill="#BBBBBB"/>
<path d="M239.257 37.802V16.396L249.951 27.099L239.257 37.802Z" fill="#9C9C9C"/>
<path d="M239.257 102L249.951 91.2969L260.646 102H239.257Z" fill="#D9D9D9"/>
<path d="M260.646 80.5938L249.951 91.2967L239.257 80.5938H260.646Z" fill="#D9D9D9"/>
<path d="M239.257 102V80.5938L249.951 91.2967L239.257 102Z" fill="#BBBBBB"/>
<path d="M260.646 80.5938V102L249.951 91.2967L260.646 80.5938Z" fill="white"/>
<path d="M260.646 37.8018L249.951 48.4948L239.257 37.8018H260.646Z" fill="#7F7F7F"/>
<path d="M239.257 59.1976L249.951 48.4946L260.646 59.1976H239.257Z" fill="#D9D9D9"/>
<path d="M260.646 37.8018V59.1978L249.951 48.4948L260.646 37.8018Z" fill="#BBBBBB"/>
<path d="M239.257 59.1978V37.8018L249.951 48.4948L239.257 59.1978Z" fill="white"/>
<path d="M239.257 166.198L249.951 155.495L260.646 166.198H239.257Z" fill="white"/>
<path d="M260.646 144.802L249.951 155.495L239.257 144.802H260.646Z" fill="#BBBBBB"/>
<path d="M239.257 166.198V144.802L249.951 155.495L239.257 166.198Z" fill="#9C9C9C"/>
<path d="M260.646 144.802V166.198L249.951 155.495L260.646 144.802Z" fill="#D9D9D9"/>
<path d="M239.257 187.594L249.951 176.901L260.646 187.594H239.257Z" fill="#BBBBBB"/>
<path d="M260.646 166.198L249.951 176.901L239.257 166.198H260.646Z" fill="#9C9C9C"/>
<path d="M239.257 187.594V166.198L249.951 176.901L239.257 187.594Z" fill="#D9D9D9"/>
<path d="M260.646 166.198V187.594L249.951 176.901L260.646 166.198Z" fill="white"/>
<path d="M239.257 209L249.951 198.297L260.646 209H239.257Z" fill="white"/>
<path d="M260.646 187.594L249.951 198.297L239.257 187.594H260.646Z" fill="#D9D9D9"/>
<path d="M239.257 209V187.594L249.951 198.297L239.257 209Z" fill="#BBBBBB"/>
<path d="M260.646 187.594V209L249.951 198.297L260.646 187.594Z" fill="#9C9C9C"/>
<path d="M239.257 144.802L249.951 134.099L260.646 144.802H239.257Z" fill="white"/>
<path d="M260.646 123.396L249.951 134.099L239.257 123.396H260.646Z" fill="#D9D9D9"/>
<path d="M239.257 144.802V123.396L249.951 134.099L239.257 144.802Z" fill="#9C9C9C"/>
<path d="M260.646 123.396V144.802L249.951 134.099L260.646 123.396Z" fill="#BBBBBB"/>
<path d="M239.257 123.396L249.951 112.693L260.646 123.396H239.257Z" fill="white"/>
<path d="M260.646 102L249.951 112.693L239.257 102H260.646Z" fill="#9C9C9C"/>
<path d="M239.257 123.396V102L249.951 112.693L239.257 123.396Z" fill="#D9D9D9"/>
<path d="M260.646 102V123.396L249.951 112.693L260.646 102Z" fill="#7F7F7F"/>
<path d="M260.646 59.1982L249.951 69.9012L239.257 59.1982H260.646Z" fill="#BBBBBB"/>
<path d="M239.257 80.5944L249.951 69.9014L260.646 80.5944H239.257Z" fill="#9C9C9C"/>
<path d="M260.646 59.1982V80.5942L249.951 69.9012L260.646 59.1982Z" fill="#7F7F7F"/>
<path d="M239.257 80.5942V59.1982L249.951 69.9012L239.257 80.5942Z" fill="white"/>
<path d="M303.434 -5L292.74 5.703L282.035 -5H303.434Z" fill="white"/>
<path d="M282.035 16.3961L292.74 5.70312L303.434 16.3961H282.035Z" fill="#BBBBBB"/>
<path d="M303.434 -5V16.396L292.739 5.703L303.434 -5Z" fill="#D9D9D9"/>
<path d="M282.035 16.396V-5L292.74 5.703L282.035 16.396Z" fill="#D9D9D9"/>
<path d="M303.434 16.396L292.74 27.099L282.035 16.396H303.434Z" fill="#D9D9D9"/>
<path d="M282.035 37.8021L292.74 27.0991L303.434 37.8021H282.035Z" fill="#9C9C9C"/>
<path d="M303.434 16.396V37.802L292.739 27.099L303.434 16.396Z" fill="#BBBBBB"/>
<path d="M282.035 37.802V16.396L292.74 27.099L282.035 37.802Z" fill="white"/>
<path d="M282.035 102L292.74 91.2969L303.434 102H282.035Z" fill="#BBBBBB"/>
<path d="M303.434 80.5938L292.74 91.2967L282.035 80.5938H303.434Z" fill="#9C9C9C"/>
<path d="M282.035 102V80.5938L292.74 91.2967L282.035 102Z" fill="#D9D9D9"/>
<path d="M303.434 80.5938V102L292.739 91.2967L303.434 80.5938Z" fill="white"/>
<path d="M303.434 37.8018L292.74 48.4948L282.035 37.8018H303.434Z" fill="#BBBBBB"/>
<path d="M282.035 59.1976L292.74 48.4946L303.434 59.1976H282.035Z" fill="#7F7F7F"/>
<path d="M303.434 37.8018V59.1978L292.739 48.4948L303.434 37.8018Z" fill="white"/>
<path d="M282.035 59.1978V37.8018L292.74 48.4948L282.035 59.1978Z" fill="#9C9C9C"/>
<path d="M282.035 166.198L292.74 155.495L303.434 166.198H282.035Z" fill="white"/>
<path d="M303.434 144.802L292.74 155.495L282.035 144.802H303.434Z" fill="#BBBBBB"/>
<path d="M282.035 166.198V144.802L292.74 155.495L282.035 166.198Z" fill="#9C9C9C"/>
<path d="M303.434 144.802V166.198L292.739 155.495L303.434 144.802Z" fill="#D9D9D9"/>
<path d="M282.035 187.594L292.74 176.901L303.434 187.594H282.035Z" fill="#7F7F7F"/>
<path d="M303.434 166.198L292.74 176.901L282.035 166.198H303.434Z" fill="#D9D9D9"/>
<path d="M282.035 187.594V166.198L292.74 176.901L282.035 187.594Z" fill="#BBBBBB"/>
<path d="M303.434 166.198V187.594L292.739 176.901L303.434 166.198Z" fill="white"/>
<path d="M282.035 209L292.74 198.297L303.434 209H282.035Z" fill="white"/>
<path d="M303.434 187.594L292.74 198.297L282.035 187.594H303.434Z" fill="#D9D9D9"/>
<path d="M282.035 209V187.594L292.74 198.297L282.035 209Z" fill="#BBBBBB"/>
<path d="M303.434 187.594V209L292.739 198.297L303.434 187.594Z" fill="#9C9C9C"/>
<path d="M282.035 144.802L292.74 134.099L303.434 144.802H282.035Z" fill="white"/>
<path d="M303.434 123.396L292.74 134.099L282.035 123.396H303.434Z" fill="#D9D9D9"/>
<path d="M282.035 144.802V123.396L292.74 134.099L282.035 144.802Z" fill="#9C9C9C"/>
<path d="M303.434 123.396V144.802L292.739 134.099L303.434 123.396Z" fill="#BBBBBB"/>
<path d="M282.035 123.396L292.74 112.693L303.434 123.396H282.035Z" fill="white"/>
<path d="M303.434 102L292.74 112.693L282.035 102H303.434Z" fill="#D9D9D9"/>
<path d="M282.035 123.396V102L292.74 112.693L282.035 123.396Z" fill="#BBBBBB"/>
<path d="M303.434 102V123.396L292.739 112.693L303.434 102Z" fill="#9C9C9C"/>
<path d="M303.434 59.1982L292.74 69.9012L282.035 59.1982H303.434Z" fill="#BBBBBB"/>
<path d="M282.035 80.5944L292.74 69.9014L303.434 80.5944H282.035Z" fill="#7F7F7F"/>
<path d="M303.434 59.1982V80.5942L292.739 69.9012L303.434 59.1982Z" fill="#9C9C9C"/>
<path d="M282.035 80.5942V59.1982L292.74 69.9012L282.035 80.5942Z" fill="white"/>
<path d="M260.646 209L271.341 198.297L282.035 209H260.646Z" fill="white"/>
<path d="M282.035 187.594L271.341 198.297L260.646 187.594H282.035Z" fill="#BBBBBB"/>
<path d="M260.646 209V187.594L271.341 198.297L260.646 209Z" fill="#9C9C9C"/>
<path d="M282.035 187.594V209L271.341 198.297L282.035 187.594Z" fill="#D9D9D9"/>
<path d="M260.646 187.594L271.341 176.901L282.035 187.594H260.646Z" fill="white"/>
<path d="M282.035 166.198L271.341 176.901L260.646 166.198H282.035Z" fill="#D9D9D9"/>
<path d="M260.646 187.594V166.198L271.341 176.901L260.646 187.594Z" fill="#BBBBBB"/>
<path d="M282.035 166.198V187.594L271.341 176.901L282.035 166.198Z" fill="#9C9C9C"/>
<path d="M282.035 102L271.341 112.693L260.646 102H282.035Z" fill="white"/>
<path d="M260.646 123.396L271.341 112.693L282.035 123.396H260.646Z" fill="#7F7F7F"/>
<path d="M282.035 102V123.396L271.341 112.693L282.035 102Z" fill="#9C9C9C"/>
<path d="M260.646 123.396V102L271.341 112.693L260.646 123.396Z" fill="#D9D9D9"/>
<path d="M260.646 166.198L271.341 155.495L282.035 166.198H260.646Z" fill="white"/>
<path d="M282.035 144.802L271.341 155.495L260.646 144.802H282.035Z" fill="#D9D9D9"/>
<path d="M260.646 166.198V144.802L271.341 155.495L260.646 166.198Z" fill="#BBBBBB"/>
<path d="M282.035 144.802V166.198L271.341 155.495L282.035 144.802Z" fill="#9C9C9C"/>
<path d="M282.035 37.8018L271.341 48.4948L260.646 37.8018H282.035Z" fill="#D9D9D9"/>
<path d="M260.646 59.1976L271.341 48.4946L282.035 59.1976H260.646Z" fill="#BBBBBB"/>
<path d="M282.035 37.8018V59.1978L271.341 48.4948L282.035 37.8018Z" fill="white"/>
<path d="M260.646 59.1978V37.8018L271.341 48.4948L260.646 59.1978Z" fill="#9C9C9C"/>
<path d="M282.035 16.396L271.341 27.099L260.646 16.396H282.035Z" fill="#9C9C9C"/>
<path d="M260.646 37.8021L271.341 27.0991L282.035 37.8021H260.646Z" fill="#BBBBBB"/>
<path d="M282.035 16.396V37.802L271.341 27.099L282.035 16.396Z" fill="#D9D9D9"/>
<path d="M260.646 37.802V16.396L271.341 27.099L260.646 37.802Z" fill="white"/>
<path d="M282.035 -5L271.341 5.703L260.646 -5H282.035Z" fill="white"/>
<path d="M260.646 16.3961L271.341 5.70312L282.035 16.3961H260.646Z" fill="#D9D9D9"/>
<path d="M282.035 -5V16.396L271.341 5.703L282.035 -5Z" fill="#BBBBBB"/>
<path d="M260.646 16.396V-5L271.341 5.703L260.646 16.396Z" fill="#9C9C9C"/>
<path d="M282.035 59.1982L271.341 69.9012L260.646 59.1982H282.035Z" fill="white"/>
<path d="M260.646 80.5944L271.341 69.9014L282.035 80.5944H260.646Z" fill="#9C9C9C"/>
<path d="M282.035 59.1982V80.5942L271.341 69.9012L282.035 59.1982Z" fill="#D9D9D9"/>
<path d="M260.646 80.5942V59.1982L271.341 69.9012L260.646 80.5942Z" fill="#BBBBBB"/>
<path d="M282.035 80.5938L271.341 91.2967L260.646 80.5938H282.035Z" fill="#D9D9D9"/>
<path d="M260.646 102L271.341 91.2969L282.035 102H260.646Z" fill="#BBBBBB"/>
<path d="M282.035 80.5938V102L271.341 91.2967L282.035 80.5938Z" fill="#9C9C9C"/>
<path d="M260.646 102V80.5938L271.341 91.2967L260.646 102Z" fill="#7F7F7F"/>
<path d="M260.646 144.802L271.341 134.099L282.035 144.802H260.646Z" fill="#BBBBBB"/>
<path d="M282.035 123.396L271.341 134.099L260.646 123.396H282.035Z" fill="#9C9C9C"/>
<path d="M260.646 144.802V123.396L271.341 134.099L260.646 144.802Z" fill="#7F7F7F"/>
<path d="M282.035 123.396V144.802L271.341 134.099L282.035 123.396Z" fill="white"/>
</g>
</g>
</g>
<g clip-path="url(#clip1_1413_662)">
<path d="M71.2503 115.85H33.9903C31.5303 115.85 29.5303 113.85 29.5303 111.39V86.98C29.5303 84.52 31.5303 82.52 33.9903 82.52H71.2503C73.7103 82.52 75.7103 84.52 75.7103 86.98V111.39C75.7203 113.85 73.7203 115.85 71.2503 115.85Z" fill="url(#paint6_linear_1413_662)"/>
<path d="M75.7202 93.2999H63.3702C60.4902 93.2999 58.1502 90.9599 58.1502 88.0799C58.1502 85.1999 60.4902 82.8599 63.3702 82.8599V82.1899C60.2402 82.1899 57.6702 84.6499 57.5002 87.7499H47.7402C47.5702 84.6499 45.0102 82.1899 41.8702 82.1899V82.8499C44.7502 82.8499 47.0902 85.1899 47.0902 88.0699C47.0902 90.9499 44.7502 93.2899 41.8702 93.2899H29.5302H29.2002V105.06H29.5302H41.8702C44.7502 105.06 47.0902 107.4 47.0902 110.28C47.0902 113.16 44.7502 115.5 41.8702 115.5V116.16C45.0002 116.16 47.5702 113.7 47.7402 110.6H57.5002C57.6702 113.69 60.2402 116.16 63.3702 116.16V115.5C60.4902 115.5 58.1502 113.16 58.1502 110.28C58.1502 107.4 60.4902 105.06 63.3702 105.06H75.7102H76.0402V93.2999H75.7202ZM29.8602 104.41V93.9599H41.8702C44.7502 93.9599 47.0902 96.2999 47.0902 99.1799C47.0902 102.06 44.7502 104.4 41.8702 104.4H29.8602V104.41ZM57.5002 109.97H47.7402C47.6002 107.55 46.0002 105.51 43.8002 104.75C46.1002 103.95 47.7602 101.76 47.7602 99.1899C47.7602 96.6199 46.1002 94.4399 43.8002 93.6299C46.0002 92.8599 47.6002 90.8299 47.7402 88.4099H57.5002C57.6402 90.8299 59.2402 92.8699 61.4402 93.6299C59.1402 94.4299 57.4802 96.6199 57.4802 99.1899C57.4802 101.76 59.1402 103.94 61.4402 104.75C59.2402 105.51 57.6402 107.54 57.5002 109.97ZM63.3702 104.41C60.4902 104.41 58.1502 102.07 58.1502 99.1899C58.1502 96.3099 60.4902 93.9699 63.3702 93.9699H75.3802V104.42H63.3702V104.41Z" fill="#D8A960"/>
<path d="M71.2503 115.85H33.9903C31.5303 115.85 29.5303 113.85 29.5303 111.39V86.98C29.5303 84.52 31.5303 82.52 33.9903 82.52H71.2503C73.7103 82.52 75.7103 84.52 75.7103 86.98V111.39C75.7203 113.85 73.7203 115.85 71.2503 115.85Z" stroke="#D8A960" stroke-width="0.6629" stroke-miterlimit="10"/>
</g>
</g>
<defs>
<linearGradient id="paint0_linear_1413_662" x1="111.476" y1="152.306" x2="271.956" y2="-15.04" gradientUnits="userSpaceOnUse">
<stop stop-color="#373737" stop-opacity="0"/>
<stop offset="1" stop-color="#6F7072"/>
</linearGradient>
<linearGradient id="paint1_linear_1413_662" x1="14.2835" y1="-23.2107" x2="318.457" y2="233.486" gradientUnits="userSpaceOnUse">
<stop stop-color="#2B2F76"/>
<stop offset="0.4513" stop-color="#911361"/>
<stop offset="1" stop-color="#32133C"/>
</linearGradient>
<linearGradient id="paint2_linear_1413_662" x1="307.993" y1="-314.715" x2="226.51" y2="158.906" gradientUnits="userSpaceOnUse">
<stop stop-color="white"/>
<stop offset="1" stop-color="white" stop-opacity="0"/>
</linearGradient>
<linearGradient id="paint3_linear_1413_662" x1="242.49" y1="-325.984" x2="161.007" y2="147.636" gradientUnits="userSpaceOnUse">
<stop stop-color="white"/>
<stop offset="1" stop-color="white" stop-opacity="0"/>
</linearGradient>
<linearGradient id="paint4_linear_1413_662" x1="223.06" y1="-329.329" x2="141.577" y2="144.293" gradientUnits="userSpaceOnUse">
<stop stop-color="white"/>
<stop offset="1" stop-color="white" stop-opacity="0"/>
</linearGradient>
<linearGradient id="paint5_linear_1413_662" x1="157.826" y1="4.90301" x2="162.623" y2="177.632" gradientUnits="userSpaceOnUse">
<stop/>
<stop offset="1" stop-color="white"/>
</linearGradient>
<linearGradient id="paint6_linear_1413_662" x1="29.5317" y1="99.1872" x2="75.7154" y2="99.1872" gradientUnits="userSpaceOnUse">
<stop stop-color="#FFFFC7"/>
<stop offset="0.578" stop-color="#FFCB68"/>
<stop offset="1" stop-color="#F5E08F"/>
</linearGradient>
<clipPath id="clip0_1413_662">
<rect width="322.07" height="201.27" fill="white"/>
</clipPath>
<clipPath id="clip1_1413_662">
<rect width="46.85" height="33.99" fill="white" transform="translate(29.2002 82.1899)"/>
</clipPath>
</defs>
</svg>
