<svg width="33" height="33" viewBox="0 0 33 33" fill="none" xmlns="http://www.w3.org/2000/svg">
<path d="M4.75893 25.8398L2.1875 31.5003H30.4732L25.3304 25.8398" stroke="#1E73B0" stroke-width="3" stroke-linejoin="round"/>
<path d="M26.3571 22.0192L28.9286 11.7596L31.5 1.5C31.5 1.5 22.5 2.91512 22.5 5.74536C22.5 7.51426 25.9286 8.5756 24.6429 9.63694C23.3571 10.6983 18.6429 11.7596 18.6429 14.5899C18.6429 16.3588 20.0486 17.6748 18.6429 18.8352C17.3571 19.8966 16.0714 19.3404 13.9286 18.8352C11.5286 18.2692 6.64286 17.7739 4.92857 18.1277C3.21429 18.4814 1.5 19.189 1.5 21.3117C1.5 22.4792 2.35714 23.7881 4.5 24.1419C6.64286 24.4957 9.21429 22.7268 12.6429 22.7268C16.0714 22.7268 20.3571 24.8495 22.9286 24.8495C25.5 24.8495 26.3571 22.0192 26.3571 22.0192Z" stroke="#1E73B0" stroke-width="3" stroke-linejoin="round"/>
</svg>
