<svg width="63" height="63" viewBox="0 0 63 63" fill="none" xmlns="http://www.w3.org/2000/svg">
<circle cx="31.4999" cy="31.5" r="31" fill="white" stroke="#6739B7"/>
<path d="M21.9999 29.5C21.9999 29.1685 22.1316 28.8505 22.366 28.6161C22.6004 28.3817 22.9184 28.25 23.2499 28.25H28.2499V23.25C28.2499 22.9185 28.3816 22.6005 28.616 22.3661C28.8504 22.1317 29.1684 22 29.4999 22C29.8314 22 30.1493 22.1317 30.3838 22.3661C30.6182 22.6005 30.7499 22.9185 30.7499 23.25V28.25H35.7499C36.0814 28.25 36.3993 28.3817 36.6338 28.6161C36.8682 28.8505 36.9999 29.1685 36.9999 29.5C36.9999 29.8315 36.8682 30.1495 36.6338 30.3839C36.3993 30.6183 36.0814 30.75 35.7499 30.75H30.7499V35.75C30.7499 36.0815 30.6182 36.3995 30.3838 36.6339C30.1493 36.8683 29.8314 37 29.4999 37C29.1684 37 28.8504 36.8683 28.616 36.6339C28.3816 36.3995 28.2499 36.0815 28.2499 35.75V30.75H23.2499C22.9184 30.75 22.6004 30.6183 22.366 30.3839C22.1316 30.1495 21.9999 29.8315 21.9999 29.5ZM21.9999 17C20.6738 17 19.402 17.5268 18.4643 18.4645C17.5267 19.4021 16.9999 20.6739 16.9999 22V37C16.9999 38.3261 17.5267 39.5979 18.4643 40.5355C19.402 41.4732 20.6738 42 21.9999 42H36.9999C38.326 42 39.5977 41.4732 40.5354 40.5355C41.4731 39.5979 41.9999 38.3261 41.9999 37V22C41.9999 20.6739 41.4731 19.4021 40.5354 18.4645C39.5977 17.5268 38.326 17 36.9999 17H21.9999ZM19.4999 22C19.4999 21.337 19.7633 20.7011 20.2321 20.2322C20.701 19.7634 21.3368 19.5 21.9999 19.5H36.9999C37.6629 19.5 38.2988 19.7634 38.7676 20.2322C39.2365 20.7011 39.4999 21.337 39.4999 22V37C39.4999 37.663 39.2365 38.2989 38.7676 38.7678C38.2988 39.2366 37.6629 39.5 36.9999 39.5H21.9999C21.3368 39.5 20.701 39.2366 20.2321 38.7678C19.7633 38.2989 19.4999 37.663 19.4999 37V22ZM38.2499 44.5C39.9075 44.5 41.4972 43.8415 42.6693 42.6694C43.8414 41.4973 44.4999 39.9076 44.4999 38.25V20.17C45.26 20.6088 45.8911 21.24 46.33 22.0001C46.7688 22.7601 46.9999 23.6223 46.9999 24.5V38.25C46.9999 40.5706 46.078 42.7962 44.4371 44.4372C42.7961 46.0781 40.5705 47 38.2499 47H24.4999C23.6222 47 22.76 46.7689 21.9999 46.3301C21.2399 45.8913 20.6087 45.2601 20.1699 44.5H38.2499Z" fill="#6739B7"/>
</svg>
