<svg width="36" height="36" viewBox="0 0 36 36" fill="none" xmlns="http://www.w3.org/2000/svg">
<path d="M3.4165 28.1681C3.4165 30.6473 5.31234 32.5431 7.7915 32.5431H28.2082C30.6873 32.5431 32.5832 30.6473 32.5832 28.1681V16.5015H3.4165V28.1681ZM28.2082 6.29313H25.2915V4.8348C25.2915 3.9598 24.7082 3.37646 23.8332 3.37646C22.9582 3.37646 22.3748 3.9598 22.3748 4.8348V6.29313H13.6248V4.8348C13.6248 3.9598 13.0415 3.37646 12.1665 3.37646C11.2915 3.37646 10.7082 3.9598 10.7082 4.8348V6.29313H7.7915C5.31234 6.29313 3.4165 8.18896 3.4165 10.6681V13.5848H32.5832V10.6681C32.5832 8.18896 30.6873 6.29313 28.2082 6.29313Z" fill="#6739B7"/>
</svg>
