<svg width="15" height="15" viewBox="0 0 15 15" fill="none" xmlns="http://www.w3.org/2000/svg">
<path d="M3.77344 11.3672C3.65625 11.3438 3.5625 11.3203 3.44531 11.2734C3.32813 11.2266 3.23438 11.2031 3.14063 11.1562C2.92969 11.0625 2.74219 10.9453 2.55469 10.8047C2.17969 10.5469 1.875 10.1953 1.64063 9.77344C1.40625 9.375 1.26563 8.90625 1.24219 8.46094C1.21875 8.22656 1.24219 8.01563 1.26563 7.78125C1.28906 7.66406 1.3125 7.57031 1.33594 7.45312C1.35938 7.33594 1.40625 7.24219 1.42969 7.125L1.45313 7.45312C1.45313 7.57031 1.47656 7.66406 1.5 7.78125C1.52344 7.99219 1.57031 8.20312 1.61719 8.39062C1.71094 8.78906 1.85156 9.16406 2.0625 9.51562C2.27344 9.86719 2.50781 10.1953 2.8125 10.5C2.95313 10.6406 3.11719 10.7812 3.28125 10.9219C3.35156 10.9922 3.44531 11.0625 3.53906 11.1328L3.77344 11.3672ZM3.70313 12.2109C3.63281 12.2578 3.53906 12.2812 3.44531 12.3047C3.35156 12.3281 3.28125 12.3516 3.1875 12.3516C3.02344 12.375 2.83594 12.3984 2.64844 12.375C2.29688 12.3516 1.92188 12.2578 1.61719 12.0937C1.28906 11.9297 1.00781 11.6719 0.820313 11.3672C0.726563 11.2266 0.632813 11.0625 0.5625 10.8984C0.539063 10.8281 0.515625 10.7344 0.492187 10.6406C0.492187 10.5703 0.46875 10.5 0.46875 10.4063C0.539063 10.4766 0.585938 10.5469 0.632813 10.5938C0.703125 10.6641 0.75 10.7344 0.796875 10.7812C0.914063 10.8984 1.00781 11.0156 1.125 11.1094C1.35938 11.3203 1.59375 11.5078 1.875 11.6484C2.13281 11.7891 2.4375 11.9062 2.71875 12C2.85938 12.0469 3.02344 12.0703 3.1875 12.1172C3.25781 12.1406 3.35156 12.1406 3.42188 12.1641C3.53906 12.1875 3.60938 12.1875 3.70313 12.2109Z" fill="#42ADE2"/>
<path d="M9 0.820313C9.11719 0.84375 9.21094 0.890625 9.32812 0.9375C9.44531 0.984375 9.53906 1.03125 9.63281 1.07812C9.84375 1.19531 10.0312 1.3125 10.2187 1.45312C10.5937 1.73438 10.8984 2.10938 11.1094 2.53125C11.3203 2.95312 11.4375 3.42188 11.4375 3.86719C11.4375 4.10156 11.4141 4.3125 11.3672 4.54687C11.3437 4.66406 11.3203 4.75781 11.2734 4.875C11.2266 4.99219 11.2031 5.08594 11.1562 5.17969L11.1328 4.85156C11.1328 4.73438 11.1328 4.64062 11.1094 4.52344L11.0391 3.89062C10.9687 3.49219 10.8281 3.09375 10.6406 2.71875C10.4531 2.34375 10.2188 2.01562 9.9375 1.71094C9.79688 1.54688 9.63281 1.40625 9.49219 1.24219C9.42187 1.17188 9.32813 1.10156 9.23438 1.03125L9 0.820313ZM11.0391 0.726562C11.1328 0.75 11.2031 0.773438 11.2734 0.820313C11.3437 0.84375 11.4375 0.890625 11.5078 0.9375C11.6484 1.03125 11.7891 1.125 11.9297 1.24219C12.1875 1.47656 12.3984 1.75781 12.5156 2.08594C12.6563 2.41406 12.7031 2.76563 12.6562 3.11719C12.6328 3.28125 12.5859 3.44531 12.5391 3.60937C12.5156 3.67969 12.4687 3.77344 12.4453 3.84375C12.3984 3.91406 12.375 3.98437 12.3047 4.05469V3.58594C12.3047 3.42188 12.2813 3.28125 12.2813 3.14062C12.2344 2.83594 12.1875 2.55469 12.0703 2.29688C11.9531 2.01562 11.8125 1.78125 11.6484 1.52344C11.5547 1.40625 11.4609 1.26563 11.3672 1.14844C11.3203 1.07813 11.2734 1.03125 11.2031 0.960938C11.1562 0.84375 11.0859 0.773438 11.0391 0.726562Z" fill="#42ADE2"/>
<path d="M2.34376 4.21832C1.87501 4.42926 1.71095 4.99176 1.92189 5.46051L4.87501 11.6246L6.51564 10.8511L3.56251 4.66364C3.35157 4.19489 2.81251 3.98395 2.34376 4.21832ZM10.1016 9.11676L11.8359 8.29645L8.46095 1.2652C8.22657 0.796449 7.66407 0.585511 7.17189 0.819886C6.70314 1.05426 6.4922 1.61676 6.72657 2.10895L10.1016 9.11676Z" fill="#FFDD67"/>
<path d="M7.19531 0.796919C7.14844 0.820357 7.10156 0.843794 7.05469 0.890669C7.5 0.773482 7.96875 0.984419 8.17969 1.40629L11.5547 8.43754L11.8594 8.29692L8.48437 1.26567C8.25 0.773482 7.6875 0.562544 7.19531 0.796919Z" fill="#EBA352"/>
<path d="M6.51564 10.8278L8.32033 9.96064L4.87501 2.78877C4.64064 2.29658 4.03126 2.0622 3.53908 2.29658C3.04689 2.53095 2.83595 3.14033 3.07033 3.63252L6.51564 10.8278Z" fill="#FFDD67"/>
<path d="M3.53906 2.31986C3.49219 2.3433 3.44531 2.36674 3.39844 2.41361C3.84375 2.29643 4.35938 2.50736 4.57031 2.95268L6.70313 7.42924L7.21875 7.73393L4.875 2.81205C4.64062 2.29643 4.05469 2.08549 3.53906 2.31986Z" fill="#EBA352"/>
<path d="M8.03908 9.39891L9.84376 8.53173L6.39845 1.35985C6.16408 0.867664 5.5547 0.633289 5.06251 0.891102C4.57033 1.12548 4.35939 1.73485 4.59376 2.22704L8.03908 9.39891Z" fill="#FFDD67"/>
<path d="M5.0625 0.866738C5.01563 0.890176 4.96875 0.937051 4.92188 0.960488C5.36719 0.843301 5.88281 1.05424 6.09375 1.49955L8.50781 6.56205L9.02344 6.86674L6.39844 1.35893C6.16406 0.843301 5.55469 0.632363 5.0625 0.866738Z" fill="#EBA352"/>
<path d="M2.34375 4.21879C2.29688 4.24223 2.25 4.26567 2.20312 4.31254C2.625 4.19536 3.07031 4.40629 3.25781 4.82817L5.01562 8.50786L5.53125 8.81254L3.5625 4.68754C3.35156 4.19536 2.8125 3.98442 2.34375 4.21879Z" fill="#EBA352"/>
<path d="M14.25 3.51544C13.6172 3.02325 12.5859 3.56232 12.0703 5.24981C11.7188 6.42169 11.6719 6.77325 10.9219 7.12481L10.5 6.25763C10.5 6.25763 3.84376 9.46856 4.10157 9.98419C4.10157 9.98419 4.89844 12.4686 6.25782 13.617C8.27344 15.3514 12.9844 13.4998 13.1953 9.02325C13.3125 6.42169 14.9297 4.0545 14.25 3.51544Z" fill="#FFDD67"/>
<path d="M14.25 3.51562C14.1328 3.42187 13.9922 3.375 13.8516 3.35156C13.875 3.375 13.9219 3.375 13.9453 3.39844C14.6484 3.9375 13.9219 5.17969 13.5234 6.30469C13.1953 7.19531 12.9141 8.10938 12.9609 9C13.1484 12.8906 9.23438 14.7422 6.89062 14.0391C9.1875 15 13.4531 13.1719 13.2656 9.11719C13.2188 8.22656 13.4766 7.35937 13.8281 6.42187C14.2031 5.29687 14.9297 4.05469 14.25 3.51562Z" fill="#EBA352"/>
<path d="M11.1328 7.03125C9.67969 7.19531 7.54688 9.28125 9.04688 11.5547C7.94531 9.25781 9.75 7.71094 10.8984 7.17188C11.0156 7.07813 11.1328 7.03125 11.1328 7.03125Z" fill="#EBA352"/>
</svg>
