<svg width="23" height="25" viewBox="0 0 23 25" fill="none" xmlns="http://www.w3.org/2000/svg">
<path d="M11.4983 0C10.7662 0 10.0303 0.159627 9.47541 0.479334L2.0258 4.74833C0.911127 5.38719 0 6.95367 0 8.23038V16.7697C0 18.0467 0.911127 19.6137 2.02585 20.2522L9.47541 24.5221C10.0303 24.8408 10.7661 25 11.4983 25C12.2338 25 12.9692 24.8408 13.5242 24.5221L20.9737 20.2522C22.0868 19.6137 23 18.0467 23 16.7697V8.23033C23 6.95361 22.0868 5.38709 20.9737 4.74828L13.5241 0.479384C12.9692 0.159627 12.2338 0 11.4983 0ZM16.5345 7.27685C16.7491 7.27685 16.9635 7.3576 17.126 7.51944L18.0322 8.41798C18.3572 8.74197 18.3572 9.2717 18.0322 9.59539L10.0895 17.481C9.76122 17.8043 9.22952 17.8043 8.90447 17.481L5.40406 14.0075C5.07901 13.6842 5.14796 13.0863 5.40406 12.8311L6.31061 11.9325C6.63571 11.6085 7.17071 11.6085 7.49571 11.9325L8.90447 13.33C9.22952 13.6533 9.76122 13.6533 10.0895 13.33L15.9404 7.51944C16.0983 7.36371 16.3119 7.27647 16.5344 7.27685H16.5345Z" fill="#6739B7"/>
</svg>
