<svg width="26" height="27" viewBox="0 0 26 27" fill="none" xmlns="http://www.w3.org/2000/svg">
<path d="M23.9296 8.68032L14.5266 0.744879C13.9606 0.268156 13.2457 0 12.501 0C11.7563 0 11.0513 0.258225 10.4853 0.744879L1.10215 8.68032C0.407102 9.27623 0 10.1502 0 11.0739V24.0248C0 24.6704 0.248232 25.2862 0.714909 25.7529C1.17166 26.2098 1.78728 26.468 2.44261 26.468H22.6289C23.2743 26.468 23.8998 26.2197 24.3566 25.7529C24.8133 25.2961 25.0814 24.6803 25.0814 24.0248V11.0739C25.0516 10.1502 24.6445 9.27623 23.9296 8.68032ZM22.9565 24.0248C22.9565 24.1142 22.9168 24.2036 22.8473 24.2632C22.7878 24.3327 22.6885 24.3724 22.5991 24.3724H2.42275C2.23409 24.3724 2.07522 24.2135 2.07522 24.0248V11.0739C2.07522 10.915 2.10501 10.7759 2.16459 10.6369C2.22416 10.4978 2.32346 10.3786 2.43268 10.2793L11.8159 2.34389C12.0045 2.18498 12.2428 2.09559 12.4811 2.09559C12.7294 2.09559 12.9677 2.18498 13.1563 2.34389L22.5594 10.2793C22.6785 10.3687 22.7679 10.4978 22.8275 10.6369C22.887 10.7759 22.9367 10.915 22.9367 11.0739V24.0248H22.9565Z" fill="#BFBFBF"/>
<path d="M8.34057 19.148C8.34057 19.6049 8.15192 20.0518 7.82425 20.3796C7.49658 20.7073 7.04976 20.896 6.59302 20.896C6.13627 20.896 5.68945 20.7073 5.36178 20.3796C5.03411 20.0518 4.84546 19.6049 4.84546 19.148C4.84546 18.6912 5.03411 18.2542 5.36178 17.9165C5.68945 17.5888 6.13627 17.4199 6.59302 17.4199C7.04976 17.4199 7.49658 17.5987 7.82425 17.9165C8.15192 18.2443 8.34057 18.6912 8.34057 19.148Z" fill="#BFBFBF"/>
<path d="M8.34057 13.5761C8.34057 14.033 8.15192 14.4799 7.82425 14.8076C7.49658 15.1354 7.04976 15.3241 6.59302 15.3241C6.13627 15.3241 5.68945 15.1354 5.36178 14.8076C5.03411 14.4799 4.84546 14.033 4.84546 13.5761C4.84546 13.1192 5.03411 12.6723 5.36178 12.3446C5.68945 12.0168 6.13627 11.8281 6.59302 11.8281C7.04976 11.8281 7.49658 12.0168 7.82425 12.3446C8.15192 12.6723 8.34057 13.1192 8.34057 13.5761Z" fill="#BFBFBF"/>
<path d="M14.2487 19.148C14.2487 19.6049 14.07 20.0518 13.7522 20.3796C13.4146 20.7073 12.9777 20.896 12.521 20.896C12.0642 20.896 11.6174 20.7073 11.2898 20.3796C10.9621 20.0518 10.7734 19.6049 10.7734 19.148C10.7734 18.6912 10.9621 18.2542 11.2898 17.9165C11.6174 17.5888 12.0642 17.4199 12.521 17.4199C12.9777 17.4199 13.4146 17.5987 13.7522 17.9165C14.0799 18.2443 14.2487 18.6912 14.2487 19.148Z" fill="#BFBFBF"/>
<path d="M14.2487 13.5761C14.2487 14.033 14.07 14.4799 13.7522 14.8076C13.4146 15.1354 12.9777 15.3241 12.521 15.3241C12.0642 15.3241 11.6174 15.1354 11.2898 14.8076C10.9621 14.4799 10.7734 14.033 10.7734 13.5761C10.7734 13.1192 10.9621 12.6723 11.2898 12.3446C11.6174 12.0168 12.0642 11.8281 12.521 11.8281C12.9777 11.8281 13.4146 12.0168 13.7522 12.3446C14.0799 12.6723 14.2487 13.1192 14.2487 13.5761Z" fill="#BFBFBF"/>
<path d="M20.1763 19.148C20.1763 19.6049 19.9877 20.0518 19.66 20.3796C19.3324 20.7073 18.8955 20.896 18.4288 20.896C17.972 20.896 17.5352 20.7073 17.2075 20.3796C16.8699 20.0518 16.6912 19.6049 16.6912 19.148C16.6912 18.6912 16.8699 18.2542 17.2075 17.9165C17.5352 17.5888 17.972 17.4199 18.4288 17.4199C18.8955 17.4199 19.3324 17.5987 19.66 17.9165C19.9877 18.2443 20.1763 18.6912 20.1763 19.148Z" fill="#BFBFBF"/>
<path d="M20.1763 13.5761C20.1763 14.033 19.9877 14.4799 19.66 14.8076C19.3324 15.1354 18.8955 15.3241 18.4288 15.3241C17.972 15.3241 17.5352 15.1354 17.2075 14.8076C16.8699 14.4799 16.6912 14.033 16.6912 13.5761C16.6912 13.1192 16.8699 12.6723 17.2075 12.3446C17.5352 12.0168 17.972 11.8281 18.4288 11.8281C18.8955 11.8281 19.3324 12.0168 19.66 12.3446C19.9877 12.6723 20.1763 13.1192 20.1763 13.5761Z" fill="#BFBFBF"/>
</svg>
