<svg width="26" height="27" viewBox="0 0 26 27" fill="none" xmlns="http://www.w3.org/2000/svg">
<path d="M23.9296 8.68032L14.5266 0.744879C13.9606 0.268156 13.2457 0 12.501 0C11.7563 0 11.0513 0.258225 10.4853 0.744879L1.10215 8.68032C0.407102 9.27623 0 10.1502 0 11.0739V24.0248C0 24.6704 0.248232 25.2862 0.714909 25.7529C1.17166 26.2098 1.78728 26.468 2.44261 26.468H22.6289C23.2743 26.468 23.8998 26.2197 24.3566 25.7529C24.8133 25.2961 25.0814 24.6803 25.0814 24.0248V11.0739C25.0516 10.1502 24.6445 9.27623 23.9296 8.68032ZM22.9565 24.0248C22.9565 24.1142 22.9168 24.2036 22.8473 24.2632C22.7878 24.3327 22.6885 24.3724 22.5991 24.3724H2.42275C2.23409 24.3724 2.07522 24.2135 2.07522 24.0248V11.0739C2.07522 10.915 2.10501 10.7759 2.16459 10.6369C2.22416 10.4978 2.32346 10.3786 2.43268 10.2793L11.8159 2.34389C12.0045 2.18498 12.2428 2.09559 12.4811 2.09559C12.7294 2.09559 12.9677 2.18498 13.1563 2.34389L22.5594 10.2793C22.6785 10.3687 22.7679 10.4978 22.8275 10.6369C22.887 10.7759 22.9367 10.915 22.9367 11.0739V24.0248H22.9565Z" fill="#E6860B"/>
<path d="M8.34057 19.149C8.34057 19.6059 8.15192 20.0528 7.82425 20.3806C7.49658 20.7083 7.04976 20.897 6.59302 20.897C6.13627 20.897 5.68945 20.7083 5.36178 20.3806C5.03411 20.0528 4.84546 19.6059 4.84546 19.149C4.84546 18.6922 5.03411 18.2552 5.36178 17.9175C5.68945 17.5897 6.13627 17.4209 6.59302 17.4209C7.04976 17.4209 7.49658 17.5997 7.82425 17.9175C8.15192 18.2452 8.34057 18.6922 8.34057 19.149Z" fill="#6739B7"/>
<path d="M8.34057 13.5771C8.34057 14.0339 8.15192 14.4809 7.82425 14.8086C7.49658 15.1364 7.04976 15.3251 6.59302 15.3251C6.13627 15.3251 5.68945 15.1364 5.36178 14.8086C5.03411 14.4809 4.84546 14.0339 4.84546 13.5771C4.84546 13.1202 5.03411 12.6733 5.36178 12.3456C5.68945 12.0178 6.13627 11.8291 6.59302 11.8291C7.04976 11.8291 7.49658 12.0178 7.82425 12.3456C8.15192 12.6733 8.34057 13.1202 8.34057 13.5771Z" fill="#6739B7"/>
<path d="M14.2487 19.149C14.2487 19.6059 14.07 20.0528 13.7522 20.3806C13.4146 20.7083 12.9777 20.897 12.521 20.897C12.0642 20.897 11.6174 20.7083 11.2898 20.3806C10.9621 20.0528 10.7734 19.6059 10.7734 19.149C10.7734 18.6922 10.9621 18.2552 11.2898 17.9175C11.6174 17.5897 12.0642 17.4209 12.521 17.4209C12.9777 17.4209 13.4146 17.5997 13.7522 17.9175C14.0799 18.2452 14.2487 18.6922 14.2487 19.149Z" fill="#6739B7"/>
<path d="M14.2487 13.5771C14.2487 14.0339 14.07 14.4809 13.7522 14.8086C13.4146 15.1364 12.9777 15.3251 12.521 15.3251C12.0642 15.3251 11.6174 15.1364 11.2898 14.8086C10.9621 14.4809 10.7734 14.0339 10.7734 13.5771C10.7734 13.1202 10.9621 12.6733 11.2898 12.3456C11.6174 12.0178 12.0642 11.8291 12.521 11.8291C12.9777 11.8291 13.4146 12.0178 13.7522 12.3456C14.0799 12.6733 14.2487 13.1202 14.2487 13.5771Z" fill="#6739B7"/>
<path d="M20.1763 19.149C20.1763 19.6059 19.9877 20.0528 19.66 20.3806C19.3324 20.7083 18.8955 20.897 18.4288 20.897C17.972 20.897 17.5352 20.7083 17.2075 20.3806C16.8699 20.0528 16.6912 19.6059 16.6912 19.149C16.6912 18.6922 16.8699 18.2552 17.2075 17.9175C17.5352 17.5897 17.972 17.4209 18.4288 17.4209C18.8955 17.4209 19.3324 17.5997 19.66 17.9175C19.9877 18.2452 20.1763 18.6922 20.1763 19.149Z" fill="#6739B7"/>
<path d="M20.1763 13.5771C20.1763 14.0339 19.9877 14.4809 19.66 14.8086C19.3324 15.1364 18.8955 15.3251 18.4288 15.3251C17.972 15.3251 17.5352 15.1364 17.2075 14.8086C16.8699 14.4809 16.6912 14.0339 16.6912 13.5771C16.6912 13.1202 16.8699 12.6733 17.2075 12.3456C17.5352 12.0178 17.972 11.8291 18.4288 11.8291C18.8955 11.8291 19.3324 12.0178 19.66 12.3456C19.9877 12.6733 20.1763 13.1202 20.1763 13.5771Z" fill="#6739B7"/>
</svg>
