<svg width="19" height="15" viewBox="0 0 19 15" fill="none" xmlns="http://www.w3.org/2000/svg">
<path fill-rule="evenodd" clip-rule="evenodd" d="M0.75 1.25C0.75 0.918479 0.881696 0.600537 1.11612 0.366117C1.35054 0.131696 1.66848 0 2 0H17C17.3315 0 17.6495 0.131696 17.8839 0.366117C18.1183 0.600537 18.25 0.918479 18.25 1.25C18.25 1.58152 18.1183 1.89946 17.8839 2.13388C17.6495 2.3683 17.3315 2.5 17 2.5H2C1.66848 2.5 1.35054 2.3683 1.11612 2.13388C0.881696 1.89946 0.75 1.58152 0.75 1.25ZM0.75 7.5C0.75 7.16848 0.881696 6.85054 1.11612 6.61612C1.35054 6.3817 1.66848 6.25 2 6.25H17C17.3315 6.25 17.6495 6.3817 17.8839 6.61612C18.1183 6.85054 18.25 7.16848 18.25 7.5C18.25 7.83152 18.1183 8.14946 17.8839 8.38388C17.6495 8.6183 17.3315 8.75 17 8.75H2C1.66848 8.75 1.35054 8.6183 1.11612 8.38388C0.881696 8.14946 0.75 7.83152 0.75 7.5ZM0.75 13.75C0.75 13.4185 0.881696 13.1005 1.11612 12.8661C1.35054 12.6317 1.66848 12.5 2 12.5H17C17.3315 12.5 17.6495 12.6317 17.8839 12.8661C18.1183 13.1005 18.25 13.4185 18.25 13.75C18.25 14.0815 18.1183 14.3995 17.8839 14.6339C17.6495 14.8683 17.3315 15 17 15H2C1.66848 15 1.35054 14.8683 1.11612 14.6339C0.881696 14.3995 0.75 14.0815 0.75 13.75Z" fill="#253141"/>
</svg>
