<svg width="21" height="21" viewBox="0 0 21 21" fill="none" xmlns="http://www.w3.org/2000/svg">
<path d="M17.1818 10.0227V10.9773C17.1818 11.1165 17.1371 11.2308 17.0476 11.3203C16.9581 11.4098 16.8438 11.4545 16.7045 11.4545H4.29545C4.15625 11.4545 4.0419 11.4098 3.95241 11.3203C3.86293 11.2308 3.81818 11.1165 3.81818 10.9773V10.0227C3.81818 9.88352 3.86293 9.76918 3.95241 9.67969C4.0419 9.5902 4.15625 9.54545 4.29545 9.54545H16.7045C16.8438 9.54545 16.9581 9.5902 17.0476 9.67969C17.1371 9.76918 17.1818 9.88352 17.1818 10.0227ZM19.0909 16.7045V4.29545C19.0909 3.6392 18.8572 3.07741 18.3899 2.61009C17.9226 2.14276 17.3608 1.90909 16.7045 1.90909H4.29545C3.6392 1.90909 3.07741 2.14276 2.61009 2.61009C2.14276 3.07741 1.90909 3.6392 1.90909 4.29545V16.7045C1.90909 17.3608 2.14276 17.9226 2.61009 18.3899C3.07741 18.8572 3.6392 19.0909 4.29545 19.0909H16.7045C17.3608 19.0909 17.9226 18.8572 18.3899 18.3899C18.8572 17.9226 19.0909 17.3608 19.0909 16.7045ZM21 4.29545V16.7045C21 17.8878 20.5799 18.8995 19.7397 19.7397C18.8995 20.5799 17.8878 21 16.7045 21H4.29545C3.11222 21 2.1005 20.5799 1.2603 19.7397C0.420099 18.8995 0 17.8878 0 16.7045V4.29545C0 3.11222 0.420099 2.1005 1.2603 1.2603C2.1005 0.420099 3.11222 0 4.29545 0H16.7045C17.8878 0 18.8995 0.420099 19.7397 1.2603C20.5799 2.1005 21 3.11222 21 4.29545Z" fill="#6739B7"/>
</svg>
