<svg width="31" height="31" viewBox="0 0 31 31" fill="none" xmlns="http://www.w3.org/2000/svg">
<path d="M13.6383 17.8306C13.6383 17.4172 13.7128 17.0191 13.8504 16.6494H5.27087C4.90438 16.6492 4.54146 16.7179 4.20284 16.8514C3.86422 16.9849 3.55654 17.1806 3.29739 17.4275C3.03825 17.6743 2.83272 17.9673 2.69254 18.2899C2.55237 18.6124 2.48031 18.9581 2.48047 19.3071V20.3927C2.48047 21.0684 2.7037 21.7275 3.1142 22.2779C5.02655 24.8341 8.15676 26.0992 12.3982 26.0992C12.8918 26.0992 13.3692 26.0827 13.8331 26.0484C13.7042 25.6842 13.6384 25.3024 13.6383 24.918V17.8306ZM12.3982 2.48047C13.2125 2.48047 14.0188 2.63324 14.7711 2.93005C15.5235 3.22686 16.207 3.66191 16.7829 4.21035C17.3587 4.75878 17.8154 5.40987 18.127 6.12644C18.4387 6.84301 18.5991 7.61103 18.5991 8.38664C18.5991 9.16225 18.4387 9.93026 18.127 10.6468C17.8154 11.3634 17.3587 12.0145 16.7829 12.5629C16.207 13.1114 15.5235 13.5464 14.7711 13.8432C14.0188 14.14 13.2125 14.2928 12.3982 14.2928C10.7536 14.2928 9.17637 13.6706 8.01348 12.5629C6.85059 11.4553 6.19728 9.95305 6.19728 8.38664C6.19728 6.82022 6.85059 5.31797 8.01348 4.21035C9.17637 3.10272 10.7536 2.48047 12.3982 2.48047ZM14.8785 17.8306C14.8785 17.204 15.1398 16.6031 15.605 16.1601C16.0702 15.717 16.701 15.4681 17.3589 15.4681H26.0401C26.6979 15.4681 27.3288 15.717 27.794 16.1601C28.2591 16.6031 28.5205 17.204 28.5205 17.8306V24.918C28.5205 25.5446 28.2591 26.1455 27.794 26.5885C27.3288 27.0316 26.6979 27.2805 26.0401 27.2805H17.3589C16.701 27.2805 16.0702 27.0316 15.605 26.5885C15.1398 26.1455 14.8785 25.5446 14.8785 24.918V17.8306ZM17.979 19.0118C17.8145 19.0118 17.6568 19.0741 17.5405 19.1848C17.4242 19.2956 17.3589 19.4458 17.3589 19.6025C17.3589 19.7591 17.4242 19.9093 17.5405 20.0201C17.6568 20.1308 17.8145 20.1931 17.979 20.1931H25.42C25.5845 20.1931 25.7422 20.1308 25.8585 20.0201C25.9748 19.9093 26.0401 19.7591 26.0401 19.6025C26.0401 19.4458 25.9748 19.2956 25.8585 19.1848C25.7422 19.0741 25.5845 19.0118 25.42 19.0118H17.979ZM17.979 22.5555C17.8145 22.5555 17.6568 22.6178 17.5405 22.7285C17.4242 22.8393 17.3589 22.9895 17.3589 23.1462C17.3589 23.3028 17.4242 23.453 17.5405 23.5638C17.6568 23.6745 17.8145 23.7368 17.979 23.7368H25.42C25.5845 23.7368 25.7422 23.6745 25.8585 23.5638C25.9748 23.453 26.0401 23.3028 26.0401 23.1462C26.0401 22.9895 25.9748 22.8393 25.8585 22.7285C25.7422 22.6178 25.5845 22.5555 25.42 22.5555H17.979Z" fill="#6739B7"/>
</svg>
