<svg width="23" height="28" viewBox="0 0 23 28" fill="none" xmlns="http://www.w3.org/2000/svg">
<path d="M2.91299 5.99844L3.74999 9.56344L2.91299 13.1129L6.02849 15.0349L7.93499 18.1504L11.5 17.3134L15.065 18.1504L16.9715 15.0349L20.087 13.1129L19.25 9.56344L20.087 5.99844L16.987 4.07644L15.065 0.960938L11.5 1.81344L7.95049 0.976437L6.01299 4.07644L2.91299 5.99844ZM11.5155 15.8254C9.87115 15.8254 8.29416 15.1722 7.13143 14.0095C5.96871 12.8468 5.31549 11.2698 5.31549 9.62544C5.31549 7.98109 5.96871 6.4041 7.13143 5.24137C8.29416 4.07865 9.87115 3.42544 11.5155 3.42544C14.9255 3.42544 17.7 6.19994 17.7 9.60994C17.7 13.0509 14.9255 15.8254 11.5155 15.8254ZM11.4845 14.2754C8.91149 14.2754 6.84999 12.1984 6.84999 9.62544C6.84999 7.06794 8.91149 4.97544 11.4845 4.97544C14.0575 4.97544 16.15 7.06794 16.15 9.62544C16.15 12.1984 14.0575 14.2754 11.4845 14.2754ZM17.4365 15.9804L15.4525 19.4524L12.2285 18.7239L16.15 27.7604L18.32 24.3504H22.195L17.4365 15.9804ZM5.50149 16.0889L7.43899 19.5764L10.7405 18.7859L6.84999 27.7604L4.67999 24.3504H0.804993L5.50149 16.0889Z" fill="#6739B7"/>
</svg>
