<svg width="40" height="40" viewBox="0 0 40 40" fill="none" xmlns="http://www.w3.org/2000/svg">
<path d="M25.0002 4.54187C24.9894 4.37789 24.9464 4.21764 24.8736 4.07031C24.8008 3.92297 24.6996 3.79144 24.576 3.68323C24.4523 3.57502 24.3085 3.49227 24.1528 3.4397C23.997 3.38713 23.8325 3.36578 23.6685 3.37687C13.6819 4.03354 5.69853 12.0185 5.04353 22.0085C5.03281 22.1724 5.05446 22.3367 5.10724 22.4922C5.16003 22.6476 5.24291 22.7911 5.35117 22.9146C5.45943 23.038 5.59094 23.1389 5.73819 23.2115C5.88544 23.2841 6.04554 23.327 6.20937 23.3377C6.37319 23.3484 6.53753 23.3268 6.69298 23.274C6.84844 23.2212 6.99198 23.1383 7.1154 23.0301C7.36467 22.8114 7.51688 22.5027 7.53854 22.1719C8.1102 13.4352 15.0969 6.44687 23.8335 5.87187C23.9975 5.86128 24.1578 5.81846 24.3052 5.74586C24.4526 5.67326 24.5843 5.5723 24.6926 5.44877C24.801 5.32524 24.8839 5.18156 24.9367 5.02594C24.9895 4.87033 25.0111 4.70584 25.0002 4.54187ZM27.3519 35.6435L26.7052 36.2869C26.471 36.5194 26.1544 36.6499 25.8244 36.6499C25.4943 36.6499 25.1777 36.5194 24.9435 36.2869L22.7002 34.0585C21.4869 32.8535 20.0869 31.4602 19.3469 30.7202C18.0659 29.4391 17.1936 27.807 16.8403 26.0301C16.4869 24.2533 16.6684 22.4116 17.3617 20.7379C18.0551 19.0642 19.2291 17.6336 20.7355 16.6272C22.2418 15.6207 24.0127 15.0835 25.8244 15.0835C27.636 15.0835 29.4069 15.6207 30.9133 16.6272C32.4196 17.6336 33.5937 19.0642 34.287 20.7379C34.9803 22.4116 35.1618 24.2533 34.8084 26.0301C34.4551 27.807 33.5828 29.4391 32.3019 30.7202C30.6548 32.3643 29.0048 34.0054 27.3519 35.6435ZM25.8335 26.2502C26.3861 26.2502 26.916 26.0307 27.3067 25.64C27.6974 25.2493 27.9169 24.7194 27.9169 24.1669C27.9169 23.6143 27.6974 23.0844 27.3067 22.6937C26.916 22.303 26.3861 22.0835 25.8335 22.0835C25.281 22.0835 24.7511 22.303 24.3604 22.6937C23.9697 23.0844 23.7502 23.6143 23.7502 24.1669C23.7502 24.7194 23.9697 25.2493 24.3604 25.64C24.7511 26.0307 25.281 26.2502 25.8335 26.2502ZM23.6369 9.17187C23.8005 9.15688 23.9656 9.17431 24.1225 9.22317C24.2794 9.27203 24.4251 9.35135 24.5514 9.4566C24.6776 9.56185 24.7818 9.69095 24.8581 9.83653C24.9344 9.98211 24.9812 10.1413 24.9959 10.305C25.0106 10.4687 24.9928 10.6337 24.9437 10.7905C24.8945 10.9473 24.8149 11.0929 24.7094 11.219C24.604 11.345 24.4746 11.449 24.3289 11.525C24.1832 11.601 24.0239 11.6475 23.8602 11.6619C21.1517 11.9104 18.6157 13.0992 16.692 15.0219C14.7683 16.9447 13.5784 19.4802 13.3285 22.1885C13.2987 22.5187 13.1389 22.8236 12.8843 23.0359C12.6298 23.2483 12.3012 23.3509 11.971 23.321C11.6408 23.2912 11.336 23.1314 11.1236 22.8768C10.9113 22.6223 10.8087 22.2937 10.8385 21.9635C11.1411 18.6719 12.5868 15.5903 14.9247 13.2535C17.2627 10.9168 20.3451 9.47269 23.6369 9.17187Z" fill="#6739B7"/>
</svg>
