<svg width="33" height="33" viewBox="0 0 33 33" fill="none" xmlns="http://www.w3.org/2000/svg">
<path d="M27.7404 5.68045C27.8566 5.79653 27.9487 5.93434 28.0115 6.08602C28.0743 6.2377 28.1067 6.40027 28.1067 6.56445C28.1067 6.72863 28.0743 6.8912 28.0115 7.04288C27.9487 7.19456 27.8566 7.33238 27.7404 7.44845L7.74045 27.4485C7.62436 27.5645 7.48654 27.6566 7.33486 27.7195C7.18319 27.7823 7.02062 27.8146 6.85645 27.8146C6.69227 27.8146 6.5297 27.7823 6.37803 27.7195C6.22635 27.6566 6.08853 27.5645 5.97245 27.4485C5.85636 27.3324 5.76427 27.1945 5.70144 27.0429C5.63862 26.8912 5.60628 26.7286 5.60628 26.5645C5.60628 26.4003 5.63862 26.2377 5.70144 26.086C5.76427 25.9344 5.85636 25.7965 5.97245 25.6805L25.9724 5.68045C26.0885 5.56435 26.2263 5.47224 26.378 5.4094C26.5297 5.34656 26.6923 5.31422 26.8564 5.31422C27.0206 5.31422 27.1832 5.34656 27.3349 5.4094C27.4866 5.47224 27.6244 5.56435 27.7404 5.68045ZM9.85645 12.5645C9.0608 12.5645 8.29773 12.2484 7.73513 11.6858C7.17252 11.1232 6.85645 10.3601 6.85645 9.56445C6.85645 8.7688 7.17252 8.00574 7.73513 7.44313C8.29773 6.88052 9.0608 6.56445 9.85645 6.56445C10.6521 6.56445 11.4152 6.88052 11.9778 7.44313C12.5404 8.00574 12.8564 8.7688 12.8564 9.56445C12.8564 10.3601 12.5404 11.1232 11.9778 11.6858C11.4152 12.2484 10.6521 12.5645 9.85645 12.5645ZM9.85645 14.5645C11.1825 14.5645 12.4543 14.0377 13.392 13.1C14.3297 12.1623 14.8564 10.8905 14.8564 9.56445C14.8564 8.23837 14.3297 6.9666 13.392 6.02892C12.4543 5.09124 11.1825 4.56445 9.85645 4.56445C8.53036 4.56445 7.25859 5.09124 6.32091 6.02892C5.38323 6.9666 4.85645 8.23837 4.85645 9.56445C4.85645 10.8905 5.38323 12.1623 6.32091 13.1C7.25859 14.0377 8.53036 14.5645 9.85645 14.5645ZM23.8564 26.5645C23.0608 26.5645 22.2977 26.2484 21.7351 25.6858C21.1725 25.1232 20.8564 24.3601 20.8564 23.5645C20.8564 22.7688 21.1725 22.0057 21.7351 21.4431C22.2977 20.8805 23.0608 20.5645 23.8564 20.5645C24.6521 20.5645 25.4152 20.8805 25.9778 21.4431C26.5404 22.0057 26.8564 22.7688 26.8564 23.5645C26.8564 24.3601 26.5404 25.1232 25.9778 25.6858C25.4152 26.2484 24.6521 26.5645 23.8564 26.5645ZM23.8564 28.5645C25.1825 28.5645 26.4543 28.0377 27.392 27.1C28.3297 26.1623 28.8564 24.8905 28.8564 23.5645C28.8564 22.2384 28.3297 20.9666 27.392 20.0289C26.4543 19.0912 25.1825 18.5645 23.8564 18.5645C22.5304 18.5645 21.2586 19.0912 20.3209 20.0289C19.3832 20.9666 18.8564 22.2384 18.8564 23.5645C18.8564 24.8905 19.3832 26.1623 20.3209 27.1C21.2586 28.0377 22.5304 28.5645 23.8564 28.5645Z" fill="white"/>
</svg>
