<svg width="15" height="15" viewBox="0 0 15 15" fill="none" xmlns="http://www.w3.org/2000/svg">
<path d="M5.93745 4.3752C6.4562 4.3752 6.87495 4.79395 6.87495 5.3127C6.87495 5.83145 6.4562 6.2502 5.93745 6.2502C5.4187 6.2502 4.99995 5.83145 4.99995 5.3127C4.99995 4.79395 5.4187 4.3752 5.93745 4.3752ZM9.06245 8.7502C9.5812 8.7502 9.99995 9.16895 9.99995 9.6877C9.99995 10.2064 9.5812 10.6252 9.06245 10.6252C8.5437 10.6252 8.12495 10.2064 8.12495 9.6877C8.12495 9.16895 8.5437 8.7502 9.06245 8.7502ZM5.2562 10.6252L4.37495 9.74395L9.7437 4.3752L10.625 5.25644L5.2562 10.6252ZM11.6562 1.78145L12.0375 4.19395L14.2312 5.3127L13.125 7.5002L14.2375 9.6877L12.025 10.8064L11.6437 13.2189L9.21245 12.8377L7.4812 14.5689L5.7437 12.8127L3.3312 13.2127L2.9437 10.7814L0.762451 9.66895L1.87495 7.48145L0.768701 5.3127L2.96245 4.18145L3.3437 1.79395L5.76245 2.1877L7.49995 0.43457L9.22495 2.1627L11.6562 1.78145ZM12.5625 5.85645L10.9375 5.0002L10.625 3.19395L8.81245 3.45645L7.49995 2.1877L6.18745 3.45645L4.37495 3.19395L4.06245 5.0002L2.43745 5.85645L3.24995 7.5002L2.43745 9.14395L4.06245 10.0002L4.37495 11.8064L6.18745 11.5439L7.49995 12.8127L8.81245 11.5439L10.625 11.8064L10.9375 10.0002L12.5625 9.14395L11.75 7.5002L12.5625 5.85645Z" fill="white"/>
</svg>
