<svg width="16" height="16" viewBox="0 0 16 16" fill="none" xmlns="http://www.w3.org/2000/svg">
<path d="M8 15C6.14348 15 4.36301 14.2625 3.05025 12.9497C1.7375 11.637 1 9.85652 1 8C1 6.14348 1.7375 4.36301 3.05025 3.05025C4.36301 1.7375 6.14348 1 8 1C9.85652 1 11.637 1.7375 12.9497 3.05025C14.2625 4.36301 15 6.14348 15 8C15 9.85652 14.2625 11.637 12.9497 12.9497C11.637 14.2625 9.85652 15 8 15ZM8 16C10.1217 16 12.1566 15.1571 13.6569 13.6569C15.1571 12.1566 16 10.1217 16 8C16 5.87827 15.1571 3.84344 13.6569 2.34315C12.1566 0.842855 10.1217 0 8 0C5.87827 0 3.84344 0.842855 2.34315 2.34315C0.842855 3.84344 0 5.87827 0 8C0 10.1217 0.842855 12.1566 2.34315 13.6569C3.84344 15.1571 5.87827 16 8 16Z" fill="white"/>
<path d="M5.2551 5.786C5.25373 5.81829 5.25898 5.85053 5.27053 5.88072C5.28208 5.91091 5.29968 5.93841 5.32225 5.96155C5.34482 5.98468 5.37189 6.00296 5.40179 6.01524C5.43168 6.02753 5.46378 6.03357 5.4961 6.033H6.3211C6.4591 6.033 6.5691 5.92 6.5871 5.783C6.6771 5.127 7.1271 4.649 7.9291 4.649C8.6151 4.649 9.2431 4.992 9.2431 5.817C9.2431 6.452 8.8691 6.744 8.2781 7.188C7.6051 7.677 7.0721 8.248 7.1101 9.175L7.1131 9.392C7.11415 9.45761 7.14095 9.52017 7.18772 9.5662C7.23449 9.61222 7.29748 9.63801 7.3631 9.638H8.1741C8.2404 9.638 8.30399 9.61166 8.35087 9.56478C8.39776 9.51789 8.4241 9.4543 8.4241 9.388V9.283C8.4241 8.565 8.6971 8.356 9.4341 7.797C10.0431 7.334 10.6781 6.82 10.6781 5.741C10.6781 4.23 9.4021 3.5 8.0051 3.5C6.7381 3.5 5.3501 4.09 5.2551 5.786ZM6.8121 11.549C6.8121 12.082 7.2371 12.476 7.8221 12.476C8.4311 12.476 8.8501 12.082 8.8501 11.549C8.8501 10.997 8.4301 10.609 7.8211 10.609C7.2371 10.609 6.8121 10.997 6.8121 11.549Z" fill="white"/>
</svg>
