<svg width="25" height="25" viewBox="0 0 25 25" fill="none" xmlns="http://www.w3.org/2000/svg">
<path d="M17.9688 3.125C19.0048 3.125 19.9983 3.53655 20.7309 4.26911C21.4634 5.00168 21.875 5.99525 21.875 7.03125V9.77656C20.3369 8.50421 18.4024 7.80946 16.4062 7.8125H20.3125V7.03125C20.3125 6.40965 20.0656 5.81351 19.626 5.37397C19.1865 4.93443 18.5904 4.6875 17.9688 4.6875H7.03125C6.40965 4.6875 5.81351 4.93443 5.37397 5.37397C4.93443 5.81351 4.6875 6.40965 4.6875 7.03125V7.8125H16.4062C14.5672 7.8125 12.8625 8.39062 11.4641 9.375H4.6875V17.9688C4.6875 18.5904 4.93443 19.1865 5.37397 19.626C5.81351 20.0656 6.40965 20.3125 7.03125 20.3125H8.75C9.03594 20.8719 9.38125 21.3953 9.77656 21.875H7.03125C5.99525 21.875 5.00168 21.4634 4.26911 20.7309C3.53655 19.9983 3.125 19.0048 3.125 17.9688V7.03125C3.125 5.99525 3.53655 5.00168 4.26911 4.26911C5.00168 3.53655 5.99525 3.125 7.03125 3.125H17.9688ZM9.375 16.4062C9.375 17.3296 9.55687 18.2439 9.91022 19.097C10.2636 19.9501 10.7815 20.7252 11.4344 21.3781C12.0873 22.031 12.8624 22.5489 13.7155 22.9023C14.5686 23.2556 15.4829 23.4375 16.4062 23.4375C17.3296 23.4375 18.2439 23.2556 19.097 22.9023C19.9501 22.5489 20.7252 22.031 21.3781 21.3781C22.031 20.7252 22.5489 19.9501 22.9023 19.097C23.2556 18.2439 23.4375 17.3296 23.4375 16.4062C23.4375 14.5414 22.6967 12.753 21.3781 11.4344C20.0595 10.1158 18.2711 9.375 16.4062 9.375C14.5414 9.375 12.753 10.1158 11.4344 11.4344C10.1158 12.753 9.375 14.5414 9.375 16.4062ZM19.5312 11.7188C19.7385 11.7188 19.9372 11.8011 20.0837 11.9476C20.2302 12.0941 20.3125 12.2928 20.3125 12.5V14.8438C20.3125 15.051 20.2302 15.2497 20.0837 15.3962C19.9372 15.5427 19.7385 15.625 19.5312 15.625H17.1875C16.9803 15.625 16.7816 15.5427 16.6351 15.3962C16.4886 15.2497 16.4062 15.051 16.4062 14.8438C16.4062 14.6365 16.4886 14.4378 16.6351 14.2913C16.7816 14.1448 16.9803 14.0625 17.1875 14.0625H17.9188C17.4725 13.8141 16.9717 13.6799 16.4609 13.6719C16.0412 13.6645 15.6242 13.7417 15.2349 13.8991C14.8457 14.0564 14.4921 14.2905 14.1953 14.5875C14.0469 14.7239 13.8515 14.7977 13.6499 14.7934C13.4484 14.789 13.2563 14.707 13.1138 14.5643C12.9714 14.4217 12.8896 14.2295 12.8855 14.0279C12.8815 13.8264 12.9556 13.631 13.0922 13.4828C13.8218 12.7532 14.7717 12.2847 15.7946 12.15C16.8176 12.0152 17.8564 12.2217 18.75 12.7375V12.5C18.75 12.2928 18.8323 12.0941 18.9788 11.9476C19.1253 11.8011 19.324 11.7188 19.5312 11.7188ZM18.1625 20.3625C17.5022 20.6293 16.7897 20.7421 16.0793 20.6922C15.3689 20.6424 14.6791 20.4313 14.0625 20.075V20.3125C14.0625 20.5197 13.9802 20.7184 13.8337 20.8649C13.6872 21.0114 13.4885 21.0938 13.2812 21.0938C13.074 21.0938 12.8753 21.0114 12.7288 20.8649C12.5823 20.7184 12.5 20.5197 12.5 20.3125V17.9688C12.5 17.7615 12.5823 17.5628 12.7288 17.4163C12.8753 17.2698 13.074 17.1875 13.2812 17.1875H15.625C15.8322 17.1875 16.0309 17.2698 16.1774 17.4163C16.3239 17.5628 16.4062 17.7615 16.4062 17.9688C16.4062 18.176 16.3239 18.3747 16.1774 18.5212C16.0309 18.6677 15.8322 18.75 15.625 18.75H14.8937C15.3402 18.998 15.8409 19.1321 16.3516 19.1406C16.7713 19.148 17.1883 19.0708 17.5776 18.9134C17.9668 18.7561 18.3204 18.522 18.6172 18.225C18.7656 18.0886 18.961 18.0148 19.1626 18.0191C19.3641 18.0235 19.5562 18.1055 19.6987 18.2482C19.8411 18.3908 19.9229 18.583 19.927 18.7846C19.931 18.9861 19.8569 19.1815 19.7203 19.3297C19.275 19.775 18.7453 20.1266 18.1625 20.3609V20.3625Z" fill="#6739B7"/>
</svg>
