<svg width="33" height="33" viewBox="0 0 33 33" fill="none" xmlns="http://www.w3.org/2000/svg">
<path d="M24.7634 7.56445V5.56445H8.76343V7.56445H14.2634C15.3671 7.56769 16.431 7.97734 17.2518 8.71518C18.0727 9.45301 18.593 10.4673 18.7134 11.5645H8.76343V13.5645H18.7134C18.593 14.6616 18.0727 15.6759 17.2518 16.4137C16.431 17.1516 15.3671 17.5612 14.2634 17.5645H8.76343V19.9095L18.3804 28.5645L19.7184 27.0785L11.3694 19.5645H14.2634C15.8995 19.5621 17.4746 18.9432 18.6747 17.8311C19.8748 16.7191 20.6116 15.1956 20.7384 13.5645H24.7634V11.5645H20.7384C20.6237 10.0629 19.9889 8.64834 18.9434 7.56445H24.7634Z" fill="white"/>
<path fill-rule="evenodd" clip-rule="evenodd" d="M24.4677 15.2246C24.5919 15.2246 24.7111 15.274 24.799 15.3619C24.8869 15.4497 24.9362 15.5689 24.9362 15.6932V26.7454L27.8846 23.7961C27.9726 23.7081 28.0919 23.6586 28.2164 23.6586C28.3408 23.6586 28.4602 23.7081 28.5481 23.7961C28.6361 23.884 28.6856 24.0034 28.6856 24.1278C28.6856 24.2523 28.6361 24.3716 28.5481 24.4596L24.7994 28.2083C24.7559 28.2519 24.7042 28.2866 24.6473 28.3102C24.5903 28.3338 24.5293 28.346 24.4677 28.346C24.406 28.346 24.345 28.3338 24.2881 28.3102C24.2311 28.2866 24.1794 28.2519 24.1359 28.2083L20.3872 24.4596C20.2992 24.3716 20.2498 24.2523 20.2498 24.1278C20.2498 24.0034 20.2992 23.884 20.3872 23.7961C20.4752 23.7081 20.5945 23.6586 20.7189 23.6586C20.8434 23.6586 20.9627 23.7081 21.0507 23.7961L23.9991 26.7454V15.6932C23.9991 15.5689 24.0484 15.4497 24.1363 15.3619C24.2242 15.274 24.3434 15.2246 24.4677 15.2246Z" fill="white"/>
</svg>
