<svg width="145" height="145" viewBox="0 0 145 145" fill="none" xmlns="http://www.w3.org/2000/svg">
<path d="M85.0223 9.05859C85.9812 9.05862 86.9154 9.36299 87.6902 9.92786C88.4651 10.4927 89.0407 11.289 89.3341 12.2019L94.3163 27.6827C96.4088 28.7063 98.4107 29.8567 100.322 31.1521L116.229 27.728C117.166 27.5278 118.144 27.6304 119.019 28.0211C119.895 28.4118 120.624 29.0704 121.102 29.902L133.657 51.6331C134.136 52.4643 134.339 53.4263 134.237 54.3803C134.134 55.3343 133.731 56.2311 133.086 56.9414L122.171 68.9891C122.33 71.2993 122.33 73.6176 122.171 75.9278L133.086 87.9936C133.731 88.7039 134.134 89.6007 134.237 90.5547C134.339 91.5088 134.136 92.4707 133.657 93.3019L121.102 115.042C120.623 115.872 119.893 116.529 119.018 116.918C118.142 117.307 117.165 117.408 116.229 117.207L100.322 113.783C98.4197 115.069 96.4088 116.229 94.3253 117.252L89.3341 132.733C89.0407 133.646 88.4651 134.442 87.6902 135.007C86.9154 135.572 85.9812 135.876 85.0223 135.876H59.9124C58.9535 135.876 58.0193 135.572 57.2445 135.007C56.4696 134.442 55.894 133.646 55.6006 132.733L50.6275 117.261C48.5406 116.241 46.5278 115.076 44.6037 113.774L28.7061 117.207C27.7683 117.407 26.7911 117.305 25.9153 116.914C25.0395 116.523 24.3103 115.865 23.8327 115.033L11.2778 93.3019C10.7983 92.4707 10.5953 91.5088 10.6978 90.5547C10.8004 89.6007 11.2033 88.7039 11.8484 87.9936L22.7638 75.9278C22.6057 73.6237 22.6057 71.3114 22.7638 69.0072L11.8484 56.9414C11.2033 56.2311 10.8004 55.3343 10.6978 54.3803C10.5953 53.4263 10.7983 52.4643 11.2778 51.6331L23.8327 29.893C24.3116 29.063 25.0413 28.4062 25.917 28.0172C26.7927 27.6282 27.7693 27.5269 28.7061 27.728L44.6037 31.1611C46.524 29.8658 48.535 28.6972 50.6275 27.6736L55.6096 12.2019C55.9021 11.2919 56.475 10.4978 57.2462 9.93318C58.0174 9.36859 58.9475 9.06245 59.9033 9.05859H85.0133H85.0223ZM81.7069 18.117H63.2278L58.0826 34.1232L54.6132 35.8172C52.9077 36.6518 51.2612 37.6021 49.6854 38.6615L46.4788 40.8355L30.0287 37.2846L20.7891 53.2999L32.0668 65.7824L31.7951 69.6232C31.6649 71.5172 31.6649 73.4179 31.7951 75.3119L32.0668 79.1526L20.771 91.6351L30.0196 107.65L46.4697 104.109L49.6764 106.274C51.2522 107.333 52.8986 108.283 54.6042 109.118L58.0735 110.812L63.2278 126.818H81.7251L86.8884 110.803L90.3487 109.118C92.0523 108.285 93.6959 107.335 95.2674 106.274L98.465 104.109L114.924 107.65L124.164 91.6351L112.877 79.1526L113.149 75.3119C113.279 73.4148 113.279 71.5111 113.149 69.6141L112.877 65.7733L124.173 53.2999L114.924 37.2846L98.465 40.8174L95.2674 38.6615C93.6961 37.6 92.0525 36.6496 90.3487 35.8172L86.8884 34.1323L81.716 18.117H81.7069ZM72.4674 45.2923C79.6747 45.2923 86.5868 48.1554 91.6832 53.2517C96.7795 58.3481 99.6426 65.2602 99.6426 72.4675C99.6426 79.6748 96.7795 86.587 91.6832 91.6833C86.5868 96.7797 79.6747 99.6428 72.4674 99.6428C65.26 99.6428 58.3479 96.7797 53.2516 91.6833C48.1552 86.587 45.2921 79.6748 45.2921 72.4675C45.2921 65.2602 48.1552 58.3481 53.2516 53.2517C58.3479 48.1554 65.26 45.2923 72.4674 45.2923V45.2923ZM72.4674 54.3507C67.6625 54.3507 63.0544 56.2594 59.6568 59.657C56.2593 63.0545 54.3505 67.6626 54.3505 72.4675C54.3505 77.2724 56.2593 81.8805 59.6568 85.278C63.0544 88.6756 67.6625 90.5843 72.4674 90.5843C77.2722 90.5843 81.8803 88.6756 85.2779 85.278C88.6755 81.8805 90.5842 77.2724 90.5842 72.4675C90.5842 67.6626 88.6755 63.0545 85.2779 59.657C81.8803 56.2594 77.2722 54.3507 72.4674 54.3507V54.3507Z" fill="black"/>
</svg>
