<svg width="45" height="45" viewBox="0 0 45 45" fill="none" xmlns="http://www.w3.org/2000/svg">
<path d="M12.6562 22.5C12.5381 22.5 12.4228 22.5056 12.3075 22.5141L12.69 23.4169L12.825 23.7909L12.8475 23.8613C13.4184 25.7231 12.9319 27.8269 11.4609 29.2247L10.6031 30.0403C10.8798 30.7708 11.2772 31.4496 11.7787 32.0484L12.6872 31.7419L13.0697 31.6378L13.1484 31.6209C14.1204 31.4179 15.1308 31.5097 16.0502 31.8845C16.9697 32.2593 17.7563 32.9001 18.3094 33.7247L19.6622 35.7131L19.8647 36.0506L19.9012 36.1125C20.4203 37.0798 20.6267 38.1843 20.4919 39.2738C21.1591 39.3421 21.8293 39.3759 22.5 39.375C31.3312 39.375 36.5625 33.6684 36.5625 28.125V26.7188C36.5625 25.5999 36.118 24.5268 35.3269 23.7356C34.5357 22.9445 33.4626 22.5 32.3437 22.5H12.6562ZM13.5028 34.4363L11.4216 35.1281L11.0812 35.2406C10.1137 34.5094 9.30937 33.5897 8.6625 32.4816C8.13115 31.5892 7.76349 30.6091 7.57687 29.5875L7.50656 29.0981L9.52312 27.1856C9.84957 26.8688 10.0818 26.4676 10.194 26.0267C10.3062 25.5858 10.294 25.1225 10.1587 24.6881L10.0744 24.4491L9.1575 22.2919C8.96876 21.8139 8.619 21.4169 8.16864 21.1693C7.71828 20.9218 7.19561 20.8394 6.69093 20.9363L6.47437 20.9925L5.32969 21.3581C4.19344 21.7238 3.32156 22.6969 3.04031 23.9175C2.37375 26.8256 3.17531 30.3638 5.445 34.5319C7.71187 38.6944 10.1981 41.2003 12.9009 42.0413C13.4166 42.2016 13.9645 42.2289 14.4936 42.1207C15.0227 42.0125 15.5158 41.7724 15.9272 41.4225L16.1522 41.2144L17.0212 40.3425C17.3878 39.9653 17.6247 39.4812 17.6975 38.9603C17.7703 38.4394 17.6753 37.9089 17.4262 37.4456L17.2969 37.2375L15.9834 35.3081C15.7676 34.9851 15.4703 34.7248 15.1217 34.5535C14.7731 34.3821 14.3854 34.3058 13.9978 34.3322C13.9089 34.3397 13.8206 34.3529 13.7334 34.3716L13.5028 34.4363ZM22.5 4.21875C20.4487 4.21875 18.4814 5.03362 17.031 6.4841C15.5805 7.93457 14.7656 9.90184 14.7656 11.9531C14.7656 14.0044 15.5805 15.9717 17.031 17.4222C18.4814 18.8726 20.4487 19.6875 22.5 19.6875C24.5513 19.6875 26.5186 18.8726 27.969 17.4222C29.4195 15.9717 30.2344 14.0044 30.2344 11.9531C30.2344 9.90184 29.4195 7.93457 27.969 6.4841C26.5186 5.03362 24.5513 4.21875 22.5 4.21875Z" fill="#6739B7"/>
</svg>
