<svg width="30" height="30" viewBox="0 0 30 30" fill="none" xmlns="http://www.w3.org/2000/svg">
<path d="M4.99988 12.5C4.99988 12.1685 5.13157 11.8505 5.36599 11.6161C5.60042 11.3817 5.91836 11.25 6.24988 11.25H11.2499V6.25C11.2499 5.91848 11.3816 5.60054 11.616 5.36612C11.8504 5.1317 12.1684 5 12.4999 5C12.8314 5 13.1493 5.1317 13.3838 5.36612C13.6182 5.60054 13.7499 5.91848 13.7499 6.25V11.25H18.7499C19.0814 11.25 19.3993 11.3817 19.6338 11.6161C19.8682 11.8505 19.9999 12.1685 19.9999 12.5C19.9999 12.8315 19.8682 13.1495 19.6338 13.3839C19.3993 13.6183 19.0814 13.75 18.7499 13.75H13.7499V18.75C13.7499 19.0815 13.6182 19.3995 13.3838 19.6339C13.1493 19.8683 12.8314 20 12.4999 20C12.1684 20 11.8504 19.8683 11.616 19.6339C11.3816 19.3995 11.2499 19.0815 11.2499 18.75V13.75H6.24988C5.91836 13.75 5.60042 13.6183 5.36599 13.3839C5.13157 13.1495 4.99988 12.8315 4.99988 12.5ZM4.99988 0C3.6738 0 2.40203 0.526784 1.46434 1.46447C0.526662 2.40215 -0.00012207 3.67392 -0.00012207 5V20C-0.00012207 21.3261 0.526662 22.5979 1.46434 23.5355C2.40203 24.4732 3.6738 25 4.99988 25H19.9999C21.326 25 22.5977 24.4732 23.5354 23.5355C24.4731 22.5979 24.9999 21.3261 24.9999 20V5C24.9999 3.67392 24.4731 2.40215 23.5354 1.46447C22.5977 0.526784 21.326 0 19.9999 0H4.99988ZM2.49988 5C2.49988 4.33696 2.76327 3.70107 3.23211 3.23223C3.70095 2.76339 4.33684 2.5 4.99988 2.5H19.9999C20.6629 2.5 21.2988 2.76339 21.7676 3.23223C22.2365 3.70107 22.4999 4.33696 22.4999 5V20C22.4999 20.663 22.2365 21.2989 21.7676 21.7678C21.2988 22.2366 20.6629 22.5 19.9999 22.5H4.99988C4.33684 22.5 3.70095 22.2366 3.23211 21.7678C2.76327 21.2989 2.49988 20.663 2.49988 20V5ZM21.2499 27.5C22.9075 27.5 24.4972 26.8415 25.6693 25.6694C26.8414 24.4973 27.4999 22.9076 27.4999 21.25V3.17C28.26 3.60883 28.8911 4.24 29.33 5.00007C29.7688 5.76014 29.9999 6.62234 29.9999 7.5V21.25C29.9999 23.5706 29.078 25.7962 27.4371 27.4372C25.7961 29.0781 23.5705 30 21.2499 30H7.49988C6.62222 30 5.76002 29.7689 4.99995 29.3301C4.23988 28.8913 3.60871 28.2601 3.16988 27.5H21.2499Z" fill="#6739B7"/>
</svg>
