<svg width="40" height="40" viewBox="0 0 40 40" fill="none" xmlns="http://www.w3.org/2000/svg">
<path d="M19.9999 3.33301C10.8099 3.33301 3.33325 10.8097 3.33325 19.9997C3.33325 29.1897 10.8099 36.6663 19.9999 36.6663C29.1899 36.6663 36.6666 29.1897 36.6666 19.9997C36.6666 10.8097 29.1899 3.33301 19.9999 3.33301ZM19.9999 33.333C12.6483 33.333 6.66659 27.3513 6.66659 19.9997C6.66659 12.648 12.6483 6.66634 19.9999 6.66634C27.3516 6.66634 33.3333 12.648 33.3333 19.9997C33.3333 27.3513 27.3516 33.333 19.9999 33.333Z" fill="white"/>
<path d="M15 28.3337L28.3333 20.0003L15 11.667V28.3337Z" fill="white"/>
</svg>
