<svg width="46" height="50" viewBox="0 0 46 50" fill="none" xmlns="http://www.w3.org/2000/svg">
<path d="M23.2317 0.8125C21.807 0.8125 20.375 1.12542 19.2951 1.75214L4.79815 10.1206C2.62899 11.373 0.855927 14.4438 0.855927 16.9465V33.6861C0.855927 36.1894 2.62898 39.2611 4.79825 40.5129L19.2951 48.8831C20.375 49.5079 21.8069 49.82 23.2317 49.82C24.663 49.82 26.0941 49.5079 27.1741 48.8831L41.671 40.5129C43.837 39.2611 45.6141 36.1894 45.6141 33.6861V16.9464C45.6141 14.4437 43.837 11.3728 41.671 10.1205L27.174 1.75224C26.0941 1.12542 24.663 0.8125 23.2317 0.8125ZM33.0321 15.0773C33.4498 15.0773 33.867 15.2356 34.1833 15.5528L35.9467 17.3142C36.5792 17.9494 36.5792 18.9878 35.9467 19.6223L20.4902 35.0804C19.8513 35.7143 18.8166 35.7143 18.1841 35.0804L11.3723 28.2714C10.7397 27.6376 10.8739 26.4656 11.3723 25.9653L13.1364 24.2038C13.7691 23.5687 14.8102 23.5687 15.4426 24.2038L18.1841 26.9433C18.8166 27.5771 19.8513 27.5771 20.4902 26.9433L31.8761 15.5528C32.1833 15.2476 32.599 15.0766 33.032 15.0773H33.0321Z" fill="#6739B7"/>
</svg>
