<svg width="60" height="60" viewBox="0 0 60 60" fill="none" xmlns="http://www.w3.org/2000/svg">
<path d="M0 9.625C0 7.07229 1.01406 4.62414 2.8191 2.8191C4.62414 1.01406 7.07229 0 9.625 0H46.375C48.9277 0 51.3759 1.01406 53.1809 2.8191C54.9859 4.62414 56 7.07229 56 9.625V28.8995C54.9204 28.0081 53.7468 27.237 52.5 26.6V21H23.4745L29.239 26.761C29.5676 27.0896 29.7522 27.5353 29.7522 28C29.7522 28.4647 29.5676 28.9104 29.239 29.239C28.9104 29.5676 28.4647 29.7522 28 29.7522C27.5353 29.7522 27.0896 29.5676 26.761 29.239L21 23.4745V38.5H25.2245C24.9006 39.6441 24.6839 40.8158 24.577 42H9.625C7.07229 42 4.62414 40.9859 2.8191 39.1809C1.01406 37.3759 0 34.9277 0 32.375V9.625ZM9.625 3.5C8.00055 3.5 6.44263 4.14531 5.29397 5.29397C4.14531 6.44263 3.5 8.00055 3.5 9.625V17.5H7.938C7.16767 16.1655 6.85916 14.6142 7.06034 13.0865C7.26151 11.5588 7.96112 10.1402 9.05067 9.05067C10.1402 7.96112 11.5588 7.26151 13.0865 7.06034C14.6142 6.85916 16.1655 7.16767 17.5 7.938V3.5H9.625ZM21 3.5V7.938C22.3345 7.16767 23.8858 6.85916 25.4135 7.06034C26.9412 7.26151 28.3598 7.96112 29.4493 9.05067C30.5389 10.1402 31.2385 11.5588 31.4397 13.0865C31.6408 14.6142 31.3323 16.1655 30.562 17.5H52.5V9.625C52.5 8.00055 51.8547 6.44263 50.706 5.29397C49.5574 4.14531 47.9995 3.5 46.375 3.5H21ZM21 17.5H24.5C25.1922 17.5 25.8689 17.2947 26.4445 16.9101C27.0201 16.5256 27.4687 15.9789 27.7336 15.3394C27.9985 14.6999 28.0678 13.9961 27.9327 13.3172C27.7977 12.6383 27.4644 12.0146 26.9749 11.5251C26.4854 11.0356 25.8617 10.7023 25.1828 10.5673C24.5039 10.4322 23.8001 10.5015 23.1606 10.7664C22.5211 11.0313 21.9744 11.4799 21.5899 12.0555C21.2053 12.6311 21 13.3078 21 14V17.5ZM14 10.5C13.0717 10.5 12.1815 10.8687 11.5251 11.5251C10.8687 12.1815 10.5 13.0717 10.5 14C10.5 14.9283 10.8687 15.8185 11.5251 16.4749C12.1815 17.1313 13.0717 17.5 14 17.5H17.5V14C17.5 13.0717 17.1313 12.1815 16.4749 11.5251C15.8185 10.8687 14.9283 10.5 14 10.5ZM3.5 32.375C3.5 35.756 6.244 38.5 9.625 38.5H17.5V23.4745L11.739 29.239C11.4104 29.5676 10.9647 29.7522 10.5 29.7522C10.0353 29.7522 9.5896 29.5676 9.261 29.239C8.9324 28.9104 8.74779 28.4647 8.74779 28C8.74779 27.5353 8.9324 27.0896 9.261 26.761L15.0255 21H3.5V32.375ZM59.5 43.75C59.5 47.9272 57.8406 51.9332 54.8869 54.8869C51.9332 57.8406 47.9272 59.5 43.75 59.5C39.5728 59.5 35.5668 57.8406 32.6131 54.8869C29.6594 51.9332 28 47.9272 28 43.75C28 39.5728 29.6594 35.5668 32.6131 32.6131C35.5668 29.6594 39.5728 28 43.75 28C47.9272 28 51.9332 29.6594 54.8869 32.6131C57.8406 35.5668 59.5 39.5728 59.5 43.75ZM45.5 36.75C45.5 36.2859 45.3156 35.8408 44.9874 35.5126C44.6592 35.1844 44.2141 35 43.75 35C43.2859 35 42.8408 35.1844 42.5126 35.5126C42.1844 35.8408 42 36.2859 42 36.75V42H36.75C36.2859 42 35.8408 42.1844 35.5126 42.5126C35.1844 42.8408 35 43.2859 35 43.75C35 44.2141 35.1844 44.6592 35.5126 44.9874C35.8408 45.3156 36.2859 45.5 36.75 45.5H42V50.75C42 51.2141 42.1844 51.6592 42.5126 51.9874C42.8408 52.3156 43.2859 52.5 43.75 52.5C44.2141 52.5 44.6592 52.3156 44.9874 51.9874C45.3156 51.6592 45.5 51.2141 45.5 50.75V45.5H50.75C51.2141 45.5 51.6592 45.3156 51.9874 44.9874C52.3156 44.6592 52.5 44.2141 52.5 43.75C52.5 43.2859 52.3156 42.8408 51.9874 42.5126C51.6592 42.1844 51.2141 42 50.75 42H45.5V36.75Z" fill="#E09F1F"/>
</svg>
