<svg width="26" height="18" viewBox="0 0 26 18" fill="none" xmlns="http://www.w3.org/2000/svg">
<path d="M12.725 6.775C12.5473 6.6094 12.3122 6.51925 12.0693 6.52353C11.8265 6.52782 11.5947 6.62621 11.423 6.79797C11.2512 6.96974 11.1528 7.20147 11.1485 7.44435C11.1442 7.68722 11.2344 7.92228 11.4 8.1L12.3 9L11.4 9.9C11.3079 9.98583 11.234 10.0893 11.1828 10.2043C11.1315 10.3193 11.104 10.4435 11.1018 10.5693C11.0995 10.6952 11.1227 10.8203 11.1698 10.937C11.217 11.0537 11.2872 11.1598 11.3762 11.2488C11.4652 11.3378 11.5713 11.408 11.688 11.4552C11.8047 11.5023 11.9298 11.5255 12.0557 11.5232C12.1815 11.521 12.3057 11.4935 12.4207 11.4422C12.5357 11.391 12.6392 11.3171 12.725 11.225L13.625 10.325L14.525 11.225C14.701 11.4007 14.9397 11.4993 15.1884 11.4991C15.4371 11.4988 15.6755 11.3998 15.8513 11.2238C16.027 11.0477 16.1255 10.8091 16.1253 10.5604C16.1251 10.3116 16.026 10.0732 15.85 9.8975L14.9513 9L15.8513 8.1C15.9408 8.01348 16.0121 7.91 16.0612 7.79559C16.1103 7.68119 16.1361 7.55816 16.1371 7.43368C16.1381 7.3092 16.1143 7.18576 16.0672 7.07057C16.02 6.95538 15.9503 6.85074 15.8622 6.76275C15.7742 6.67477 15.6695 6.60521 15.5542 6.55812C15.439 6.51104 15.3155 6.48738 15.1911 6.48852C15.0666 6.48966 14.9436 6.51558 14.8292 6.56476C14.7149 6.61395 14.6114 6.68542 14.525 6.775L13.625 7.675L12.725 6.775ZM4.525 6.775C4.70078 6.59944 4.93906 6.50083 5.1875 6.50083C5.43594 6.50083 5.67422 6.59944 5.85 6.775L6.75 7.675L7.65 6.775C7.73583 6.68289 7.83933 6.60901 7.95433 6.55777C8.06933 6.50653 8.19347 6.47898 8.31935 6.47676C8.44523 6.47454 8.57026 6.4977 8.687 6.54485C8.80373 6.592 8.90977 6.66218 8.9988 6.7512C9.08782 6.84023 9.158 6.94627 9.20515 7.063C9.25231 7.17974 9.27546 7.30477 9.27324 7.43065C9.27102 7.55653 9.24347 7.68067 9.19223 7.79567C9.14099 7.91067 9.06711 8.01417 8.975 8.1L8.07625 9L8.97625 9.8975C9.06342 9.98458 9.13258 10.088 9.17978 10.2018C9.22698 10.3156 9.25131 10.4376 9.25137 10.5608C9.25143 10.684 9.22722 10.806 9.18012 10.9199C9.13302 11.0337 9.06396 11.1372 8.97688 11.2244C8.88979 11.3115 8.7864 11.3807 8.67258 11.4279C8.55877 11.4751 8.43678 11.4994 8.31357 11.4995C8.19036 11.4996 8.06834 11.4753 7.95448 11.4282C7.84063 11.3811 7.73717 11.3121 7.65 11.225L6.75 10.325L5.85 11.225C5.67228 11.3906 5.43722 11.4808 5.19435 11.4765C4.95147 11.4722 4.71974 11.3738 4.54797 11.202C4.37621 11.0303 4.27782 10.7985 4.27353 10.5557C4.26925 10.3128 4.3594 10.0777 4.525 9.9L5.425 9L4.525 8.1C4.34944 7.92422 4.25083 7.68594 4.25083 7.4375C4.25083 7.18906 4.34944 6.95078 4.525 6.775ZM18.625 10.875C18.3764 10.875 18.1379 10.9738 17.9621 11.1496C17.7863 11.3254 17.6875 11.5639 17.6875 11.8125C17.6875 12.0611 17.7863 12.2996 17.9621 12.4754C18.1379 12.6512 18.3764 12.75 18.625 12.75H20.8125C21.0611 12.75 21.2996 12.6512 21.4754 12.4754C21.6512 12.2996 21.75 12.0611 21.75 11.8125C21.75 11.5639 21.6512 11.3254 21.4754 11.1496C21.2996 10.9738 21.0611 10.875 20.8125 10.875H18.625ZM4.5625 0.25C3.48506 0.25 2.45175 0.678012 1.68988 1.43988C0.928012 2.20175 0.5 3.23506 0.5 4.3125V13.6875C0.5 14.7649 0.928012 15.7983 1.68988 16.5601C2.45175 17.322 3.48506 17.75 4.5625 17.75H21.4375C21.971 17.75 22.4993 17.6449 22.9922 17.4408C23.485 17.2366 23.9329 16.9374 24.3101 16.5601C24.6874 16.1829 24.9866 15.735 25.1908 15.2422C25.3949 14.7493 25.5 14.221 25.5 13.6875V4.3125C25.5 3.77901 25.3949 3.25073 25.1908 2.75785C24.9866 2.26496 24.6874 1.81712 24.3101 1.43988C23.9329 1.06264 23.485 0.763399 22.9922 0.55924C22.4993 0.35508 21.971 0.25 21.4375 0.25H4.5625ZM2.375 4.3125C2.375 3.10375 3.35375 2.125 4.5625 2.125H21.4375C22.6463 2.125 23.625 3.10375 23.625 4.3125V13.6875C23.625 14.2677 23.3945 14.8241 22.9843 15.2343C22.5741 15.6445 22.0177 15.875 21.4375 15.875H4.5625C3.98234 15.875 3.42594 15.6445 3.0157 15.2343C2.60547 14.8241 2.375 14.2677 2.375 13.6875V4.3125Z" fill="#FE8E00"/>
</svg>
