<svg width="16" height="18" viewBox="0 0 16 18" fill="none" xmlns="http://www.w3.org/2000/svg">
<path d="M4.625 9C4.5725 9 4.52125 9.0025 4.47 9.00625L4.64 9.4075L4.7 9.57375L4.71 9.605C4.96375 10.4325 4.7475 11.3675 4.09375 11.9888L3.7125 12.3513C3.83546 12.6759 4.01209 12.9776 4.235 13.2438L4.63875 13.1075L4.80875 13.0613L4.84375 13.0538C5.27572 12.9635 5.72479 13.0043 6.13344 13.1709C6.54209 13.3375 6.8917 13.6222 7.1375 13.9888L7.73875 14.8725L7.82875 15.0225L7.845 15.05C8.07571 15.4799 8.16742 15.9708 8.1075 16.455C8.40402 16.4854 8.70192 16.5004 9 16.5C12.925 16.5 15.25 13.9638 15.25 11.5V10.875C15.25 10.3777 15.0525 9.90081 14.7008 9.54918C14.3492 9.19755 13.8723 9 13.375 9H4.625ZM5.00125 14.305L4.07625 14.6125L3.925 14.6625C3.495 14.3375 3.1375 13.9288 2.85 13.4363C2.61384 13.0397 2.45044 12.6041 2.3675 12.15L2.33625 11.9325L3.2325 11.0825C3.37759 10.9417 3.48079 10.7634 3.53066 10.5674C3.58053 10.3715 3.57511 10.1656 3.515 9.9725L3.4775 9.86625L3.07 8.9075C2.98611 8.69507 2.83067 8.5186 2.63051 8.40859C2.43035 8.29859 2.19805 8.26195 1.97375 8.305L1.8775 8.33L1.36875 8.4925C0.86375 8.655 0.476251 9.0875 0.351251 9.63C0.0550003 10.9225 0.41125 12.495 1.42 14.3475C2.4275 16.1975 3.5325 17.3113 4.73375 17.685C4.96295 17.7562 5.20644 17.7684 5.44158 17.7203C5.67673 17.6722 5.89591 17.5655 6.07875 17.41L6.17875 17.3175L6.565 16.93C6.72791 16.7624 6.83318 16.5472 6.86555 16.3157C6.89791 16.0842 6.85569 15.8484 6.745 15.6425L6.6875 15.55L6.10375 14.6925C6.00781 14.549 5.8757 14.4333 5.72075 14.3571C5.5658 14.2809 5.39351 14.247 5.22125 14.2588C5.18175 14.2621 5.14251 14.2679 5.10375 14.2763L5.00125 14.305ZM9 0.875C8.08832 0.875 7.21398 1.23716 6.56932 1.88182C5.92466 2.52648 5.5625 3.40082 5.5625 4.3125C5.5625 5.22418 5.92466 6.09852 6.56932 6.74318C7.21398 7.38784 8.08832 7.75 9 7.75C9.91168 7.75 10.786 7.38784 11.4307 6.74318C12.0753 6.09852 12.4375 5.22418 12.4375 4.3125C12.4375 3.40082 12.0753 2.52648 11.4307 1.88182C10.786 1.23716 9.91168 0.875 9 0.875Z" fill="white"/>
</svg>
