<svg width="26" height="18" viewBox="0 0 26 18" fill="none" xmlns="http://www.w3.org/2000/svg">
<path d="M4.5625 0.25C3.48506 0.25 2.45175 0.678012 1.68988 1.43988C0.928012 2.20175 0.5 3.23506 0.5 4.3125V13.6875C0.5 14.7649 0.928012 15.7983 1.68988 16.5601C2.45175 17.322 3.48506 17.75 4.5625 17.75H21.4375C21.971 17.75 22.4993 17.6449 22.9922 17.4408C23.485 17.2366 23.9329 16.9374 24.3101 16.5601C24.6874 16.1829 24.9866 15.735 25.1908 15.2422C25.3949 14.7493 25.5 14.221 25.5 13.6875V4.3125C25.5 3.77901 25.3949 3.25073 25.1908 2.75785C24.9866 2.26496 24.6874 1.81712 24.3101 1.43988C23.9329 1.06264 23.485 0.763399 22.9922 0.55924C22.4993 0.35508 21.971 0.25 21.4375 0.25H4.5625ZM5.85 6.775L6.75 7.675L7.65 6.775C7.73583 6.68289 7.83933 6.60901 7.95433 6.55777C8.06933 6.50653 8.19347 6.47898 8.31935 6.47676C8.44523 6.47454 8.57026 6.4977 8.687 6.54485C8.80373 6.592 8.90977 6.66218 8.9988 6.7512C9.08782 6.84023 9.158 6.94627 9.20515 7.063C9.25231 7.17974 9.27546 7.30477 9.27324 7.43065C9.27102 7.55653 9.24347 7.68067 9.19223 7.79567C9.14099 7.91067 9.06711 8.01417 8.975 8.1L8.07625 9L8.97625 9.8975C9.06342 9.98458 9.13258 10.088 9.17978 10.2018C9.22698 10.3156 9.25131 10.4376 9.25137 10.5608C9.25143 10.684 9.22722 10.806 9.18012 10.9199C9.13302 11.0337 9.06396 11.1372 8.97688 11.2244C8.88979 11.3115 8.7864 11.3807 8.67258 11.4279C8.55877 11.4751 8.43678 11.4994 8.31357 11.4995C8.19036 11.4996 8.06834 11.4753 7.95448 11.4282C7.84063 11.3811 7.73717 11.3121 7.65 11.225L6.75 10.325L5.85 11.225C5.67228 11.3906 5.43722 11.4808 5.19435 11.4765C4.95147 11.4722 4.71974 11.3738 4.54797 11.202C4.37621 11.0303 4.27782 10.7985 4.27353 10.5557C4.26925 10.3128 4.3594 10.0777 4.525 9.9L5.425 9L4.525 8.1C4.3594 7.92228 4.26925 7.68722 4.27353 7.44435C4.27782 7.20147 4.37621 6.96974 4.54797 6.79797C4.71974 6.62621 4.95147 6.52782 5.19435 6.52353C5.43722 6.51925 5.67228 6.6094 5.85 6.775ZM12.725 6.775L13.625 7.675L14.525 6.775C14.6108 6.68289 14.7143 6.60901 14.8293 6.55777C14.9443 6.50653 15.0685 6.47898 15.1943 6.47676C15.3202 6.47454 15.4453 6.4977 15.562 6.54485C15.6787 6.592 15.7848 6.66218 15.8738 6.7512C15.9628 6.84023 16.033 6.94627 16.0802 7.063C16.1273 7.17974 16.1505 7.30477 16.1482 7.43065C16.146 7.55653 16.1185 7.68067 16.0672 7.79567C16.016 7.91067 15.9421 8.01417 15.85 8.1L14.9513 9L15.8513 9.8975C16.0271 10.0734 16.1259 10.3119 16.1259 10.5606C16.1259 10.8093 16.0271 11.0479 15.8513 11.2238C15.6754 11.3996 15.4368 11.4984 15.1881 11.4984C14.9394 11.4984 14.7009 11.3996 14.525 11.2238L13.625 10.325L12.725 11.225C12.6392 11.3171 12.5357 11.391 12.4207 11.4422C12.3057 11.4935 12.1815 11.521 12.0557 11.5232C11.9298 11.5255 11.8047 11.5023 11.688 11.4552C11.5713 11.408 11.4652 11.3378 11.3762 11.2488C11.2872 11.1598 11.217 11.0537 11.1698 10.937C11.1227 10.8203 11.0995 10.6952 11.1018 10.5693C11.104 10.4435 11.1315 10.3193 11.1828 10.2043C11.234 10.0893 11.3079 9.98583 11.4 9.9L12.3 9L11.4 8.1C11.2344 7.92228 11.1442 7.68722 11.1485 7.44435C11.1528 7.20147 11.2512 6.96974 11.423 6.79797C11.5947 6.62621 11.8265 6.52782 12.0693 6.52353C12.3122 6.51925 12.5473 6.6094 12.725 6.775ZM17.6875 11.8125C17.6875 11.5639 17.7863 11.3254 17.9621 11.1496C18.1379 10.9738 18.3764 10.875 18.625 10.875H20.8125C21.0611 10.875 21.2996 10.9738 21.4754 11.1496C21.6512 11.3254 21.75 11.5639 21.75 11.8125C21.75 12.0611 21.6512 12.2996 21.4754 12.4754C21.2996 12.6512 21.0611 12.75 20.8125 12.75H18.625C18.3764 12.75 18.1379 12.6512 17.9621 12.4754C17.7863 12.2996 17.6875 12.0611 17.6875 11.8125Z" fill="#FE8E00"/>
</svg>
