<svg width="34" height="34" viewBox="0 0 34 34" fill="none" xmlns="http://www.w3.org/2000/svg">
<path d="M31.62 18.9252L29.34 12.0852C29.0093 11.0893 28.3731 10.223 27.5219 9.60934C26.6706 8.99569 25.6477 8.6659 24.5983 8.66683H9.40167C8.35232 8.6659 7.32936 8.99569 6.47814 9.60934C5.62693 10.223 4.99075 11.0893 4.66 12.0852L2.38 18.9252C1.77384 19.179 1.25619 19.6063 0.89206 20.1534C0.527931 20.7005 0.333554 21.343 0.333336 22.0002V27.0002C0.333336 28.2302 1.00667 29.2935 2 29.8718V32.0002C2 32.4422 2.1756 32.8661 2.48816 33.1787C2.80072 33.4912 3.22464 33.6668 3.66667 33.6668H5.33334C5.77536 33.6668 6.19929 33.4912 6.51185 33.1787C6.82441 32.8661 7 32.4422 7 32.0002V30.3335H27V32.0002C27 32.4422 27.1756 32.8661 27.4882 33.1787C27.8007 33.4912 28.2246 33.6668 28.6667 33.6668H30.3333C30.7754 33.6668 31.1993 33.4912 31.5118 33.1787C31.8244 32.8661 32 32.4422 32 32.0002V29.8718C32.5057 29.5818 32.926 29.1637 33.2185 28.6596C33.5111 28.1554 33.6657 27.5831 33.6667 27.0002V22.0002C33.6667 20.6152 32.8217 19.4302 31.62 18.9252ZM9.40167 12.0002H24.5967C24.9466 12.0001 25.2877 12.1101 25.5716 12.3148C25.8555 12.5194 26.0678 12.8082 26.1783 13.1402L28.0217 18.6668H5.97834L7.82 13.1402C8.04834 12.4585 8.685 12.0002 9.40167 12.0002V12.0002ZM6.16667 27.0002C5.83825 27.0001 5.51308 26.9353 5.20971 26.8095C4.90633 26.6837 4.6307 26.4994 4.39856 26.2671C3.92972 25.7979 3.66645 25.1618 3.66667 24.4985C3.66689 23.8352 3.93058 23.1992 4.39974 22.7304C4.86889 22.2615 5.50507 21.9983 6.16834 21.9985C6.8316 21.9987 7.46761 22.2624 7.93645 22.7316C8.40529 23.2007 8.66856 23.8369 8.66834 24.5002C8.66811 25.1634 8.40442 25.7994 7.93527 26.2683C7.46612 26.7371 6.82993 27.0004 6.16667 27.0002V27.0002ZM27.8333 27.0002C27.1701 26.9999 26.5341 26.7362 26.0652 26.2671C25.5964 25.7979 25.3331 25.1618 25.3333 24.4985C25.3336 23.8352 25.5972 23.1992 26.0664 22.7304C26.5356 22.2615 27.1717 21.9983 27.835 21.9985C28.4983 21.9987 29.1343 22.2624 29.6031 22.7316C30.072 23.2007 30.3352 23.8369 30.335 24.5002C30.3348 25.1634 30.0711 25.7994 29.6019 26.2683C29.1328 26.7371 28.4966 27.0004 27.8333 27.0002V27.0002ZM12 4.29683C12.0083 2.4835 10.2717 0.878497 9.68834 0.390163C9.6353 0.345071 9.56795 0.320313 9.49834 0.320313C9.42872 0.320313 9.36137 0.345071 9.30834 0.390163C8.72167 0.875163 6.99167 2.45183 7 4.29516C7 5.78683 8.12167 7.00016 9.5 7.00016C10.8783 7.00016 12 5.78683 12 4.29683ZM19.5 4.29683C19.5083 2.4835 17.7717 0.87683 17.1883 0.390163C17.1353 0.345071 17.068 0.320312 16.9983 0.320313C16.9287 0.320313 16.8614 0.345071 16.8083 0.390163C16.22 0.875163 14.49 2.4535 14.4983 4.29683C14.5 5.78683 15.6217 7.00016 17 7.00016C18.3783 7.00016 19.5 5.78683 19.5 4.29683ZM27 4.29683C27.0083 2.4835 25.2717 0.87683 24.6883 0.390163C24.6353 0.345071 24.568 0.320312 24.4983 0.320313C24.4287 0.320312 24.3614 0.345071 24.3083 0.390163C23.7217 0.875163 21.9917 2.45183 22 4.29516C22 5.78683 23.1217 7.00016 24.5 7.00016C25.8783 7.00016 27 5.78683 27 4.29683Z" fill="#E09F1F"/>
</svg>
