<svg width="32" height="32" viewBox="0 0 32 32" fill="none" xmlns="http://www.w3.org/2000/svg">
<path d="M13 0C12.7348 0 12.4804 0.105357 12.2929 0.292893C12.1054 0.48043 12 0.734784 12 1C12 1.26522 12.1054 1.51957 12.2929 1.70711C12.4804 1.89464 12.7348 2 13 2H15V30H13C12.7348 30 12.4804 30.1054 12.2929 30.2929C12.1054 30.4804 12 30.7348 12 31C12 31.2652 12.1054 31.5196 12.2929 31.7071C12.4804 31.8946 12.7348 32 13 32H19C19.2652 32 19.5196 31.8946 19.7071 31.7071C19.8946 31.5196 20 31.2652 20 31C20 30.7348 19.8946 30.4804 19.7071 30.2929C19.5196 30.1054 19.2652 30 19 30H17V2H19C19.2652 2 19.5196 1.89464 19.7071 1.70711C19.8946 1.51957 20 1.26522 20 1C20 0.734784 19.8946 0.48043 19.7071 0.292893C19.5196 0.105357 19.2652 0 19 0H13ZM5 4H13V28H5C3.67392 28 2.40215 27.4732 1.46447 26.5355C0.526784 25.5979 0 24.3261 0 23V9C0 7.67392 0.526784 6.40215 1.46447 5.46447C2.40215 4.52678 3.67392 4 5 4ZM27 28H19V4H27C28.3261 4 29.5979 4.52678 30.5355 5.46447C31.4732 6.40215 32 7.67392 32 9V23C32 24.3261 31.4732 25.5979 30.5355 26.5355C29.5979 27.4732 28.3261 28 27 28Z" fill="#FE8E00"/>
</svg>
