<svg width="50" height="50" viewBox="0 0 50 50" fill="none" xmlns="http://www.w3.org/2000/svg">
<path d="M8.48933 7.14258C7.18693 7.14258 5.93787 7.65996 5.01693 8.58089C4.09599 9.50183 3.57861 10.7509 3.57861 12.0533V37.9462C3.57861 39.2486 4.09599 40.4976 5.01693 41.4186C5.93787 42.3395 7.18693 42.8569 8.48933 42.8569H32.1429V38.6837C31.0179 37.0854 30.3572 35.1372 30.3572 33.0354C30.3572 31.7747 30.5947 30.5712 31.0268 29.464H28.125C27.7698 29.464 27.4292 29.3229 27.178 29.0717C26.9269 28.8206 26.7858 28.4799 26.7858 28.1247C26.7858 27.7695 26.9269 27.4289 27.178 27.1777C27.4292 26.9265 27.7698 26.7854 28.125 26.7854H32.6018C33.5224 25.6673 34.6794 24.7671 35.9895 24.1496C37.2996 23.5321 38.7303 23.2125 40.1786 23.214C42.5536 23.214 44.7322 24.0569 46.4286 25.4604V12.0533C46.4286 10.7509 45.9112 9.50183 44.9903 8.58089C44.0694 7.65996 42.8203 7.14258 41.5179 7.14258H8.49111H8.48933ZM26.7858 20.9819C26.7858 20.6267 26.9269 20.286 27.178 20.0348C27.4292 19.7837 27.7698 19.6426 28.125 19.6426H37.9465C38.3017 19.6426 38.6423 19.7837 38.8935 20.0348C39.1447 20.286 39.2858 20.6267 39.2858 20.9819C39.2858 21.3371 39.1447 21.6777 38.8935 21.9289C38.6423 22.18 38.3017 22.3212 37.9465 22.3212H28.125C27.7698 22.3212 27.4292 22.18 27.178 21.9289C26.9269 21.6777 26.7858 21.3371 26.7858 20.9819ZM20.0893 20.9819C20.0893 21.8107 19.7601 22.6055 19.174 23.1916C18.588 23.7776 17.7931 24.1069 16.9643 24.1069C16.1355 24.1069 15.3407 23.7776 14.7546 23.1916C14.1686 22.6055 13.8393 21.8107 13.8393 20.9819C13.8393 20.1531 14.1686 19.3582 14.7546 18.7722C15.3407 18.1861 16.1355 17.8569 16.9643 17.8569C17.7931 17.8569 18.588 18.1861 19.174 18.7722C19.7601 19.3582 20.0893 20.1531 20.0893 20.9819ZM12.5 25.8926H21.4286C21.9022 25.8926 22.3564 26.0807 22.6913 26.4156C23.0262 26.7505 23.2143 27.2047 23.2143 27.6783V28.5712C23.2143 28.5712 22.3215 33.0354 16.9643 33.0354C11.6072 33.0354 10.7143 28.5712 10.7143 28.5712V27.6783C10.7143 27.2047 10.9025 26.7505 11.2374 26.4156C11.5722 26.0807 12.0264 25.8926 12.5 25.8926ZM46.4286 27.9854C47.5864 29.4136 48.2171 31.1969 48.2143 33.0354C48.2177 34.8752 47.5871 36.6599 46.4286 38.089C45.384 39.3812 43.9645 40.3178 42.3655 40.7699C40.7666 41.2219 39.0668 41.1672 37.5002 40.6131C35.9337 40.0591 34.5774 39.0331 33.6181 37.6764C32.6588 36.3196 32.1437 34.6989 32.1437 33.0372C32.1437 31.3756 32.6588 29.7548 33.6181 28.3981C34.5774 27.0413 35.9337 26.0153 37.5002 25.4613C39.0668 24.9073 40.7666 24.8525 42.3655 25.3046C43.9645 25.7566 45.384 26.6932 46.4286 27.9854ZM44.4661 41.8747C43.1562 42.5112 41.7206 42.8468 40.2643 42.8569H40.0929C37.8408 42.842 35.663 42.049 33.9286 40.6122V46.9694C33.9291 47.2034 33.9953 47.4325 34.1197 47.6308C34.244 47.829 34.4215 47.9883 34.632 48.0907C34.8424 48.193 35.0773 48.2342 35.31 48.2096C35.5427 48.185 35.7639 48.0956 35.9483 47.9515L40.1786 44.6426L44.409 47.9533C44.5935 48.0975 44.8148 48.1869 45.0476 48.2115C45.2805 48.236 45.5156 48.1946 45.7261 48.0921C45.9366 47.9895 46.114 47.8299 46.2383 47.6314C46.3625 47.4329 46.4284 47.2035 46.4286 46.9694V40.6122C45.8269 41.1095 45.1681 41.5333 44.4661 41.8747Z" fill="white"/>
</svg>
