<svg width="10" height="10" viewBox="0 0 10 10" fill="none" xmlns="http://www.w3.org/2000/svg">
<path d="M4.77906 2.90406C4.72048 2.96267 4.68757 3.04214 4.68757 3.125C4.68757 3.20786 4.72048 3.28733 4.77906 3.34594L6.12063 4.6875H3.125C3.04212 4.6875 2.96263 4.72042 2.90403 4.77903C2.84542 4.83763 2.8125 4.91712 2.8125 5C2.8125 5.08288 2.84542 5.16237 2.90403 5.22097C2.96263 5.27958 3.04212 5.3125 3.125 5.3125H6.12063L4.77906 6.65406C4.72214 6.713 4.69064 6.79194 4.69135 6.87388C4.69206 6.95581 4.72493 7.03419 4.78287 7.09213C4.84081 7.15007 4.91919 7.18294 5.00112 7.18365C5.08306 7.18436 5.162 7.15286 5.22094 7.09594L7.09594 5.22094C7.15452 5.16234 7.18743 5.08286 7.18743 5C7.18743 4.91714 7.15452 4.83767 7.09594 4.77906L5.22094 2.90406C5.16234 2.84548 5.08286 2.81257 5 2.81257C4.91714 2.81257 4.83767 2.84548 4.77906 2.90406ZM5 0.625C2.58375 0.625 0.625 2.58375 0.625 5C0.625 7.41625 2.58375 9.375 5 9.375C7.41625 9.375 9.375 7.41625 9.375 5C9.375 2.58375 7.41625 0.625 5 0.625ZM1.25 5C1.25 2.92906 2.92906 1.25 5 1.25C7.07094 1.25 8.75 2.92906 8.75 5C8.75 7.07094 7.07094 8.75 5 8.75C2.92906 8.75 1.25 7.07094 1.25 5Z" fill="#6739B7"/>
</svg>
