<svg width="80" height="80" viewBox="0 0 80 80" fill="none" xmlns="http://www.w3.org/2000/svg">
<path d="M28 15.3113C28.6134 14.2071 29.511 13.287 30.5997 12.6464C31.6883 12.0058 32.9285 11.668 34.1917 11.668H45.8083C47.0715 11.668 48.3117 12.0058 49.4003 12.6464C50.489 13.287 51.3866 14.2071 52 15.3113L54.1433 19.168H60.4167C62.9583 19.168 65.3959 20.1776 67.1931 21.9749C68.9903 23.7721 70 26.2096 70 28.7513V40.0746C66.5181 37.8441 62.4684 36.6616 58.3333 36.668C56.365 36.668 54.4567 36.9313 52.6433 37.423C51.9029 35.2204 50.5998 33.2496 48.8631 31.7059C47.1264 30.1622 45.0164 29.0991 42.7422 28.6221C40.4681 28.1451 38.1087 28.2706 35.8981 28.9863C33.6874 29.7021 31.7021 30.9831 30.1391 32.7024C28.576 34.4218 27.4895 36.5198 26.987 38.7885C26.4846 41.0571 26.5838 43.4177 27.2748 45.6363C27.9657 47.8548 29.2245 49.8542 30.9263 51.4364C32.628 53.0186 34.7138 54.1285 36.9767 54.6563C36.2859 58.7074 36.7539 62.8713 38.3267 66.668H19.5833C17.0417 66.668 14.6041 65.6583 12.8069 63.8611C11.0097 62.0639 10 59.6263 10 57.0846V28.7513C10 26.2096 11.0097 23.7721 12.8069 21.9749C14.6041 20.1776 17.0417 19.168 19.5833 19.168H25.8567L28 15.3113ZM40 32.5013C37.7342 32.4981 35.5475 33.3342 33.8618 34.8483C32.1761 36.3623 31.1109 38.4471 30.8717 40.7002C30.6325 42.9533 31.2363 45.2152 32.5665 47.0495C33.8966 48.8837 35.859 50.1603 38.075 50.633C40.027 45.5191 43.8361 41.3297 48.7417 38.9013C48.153 37.0445 46.9885 35.4233 45.4168 34.2726C43.8451 33.122 41.9479 32.5016 40 32.5013ZM58.3333 76.668C68.4583 76.668 76.6667 68.4596 76.6667 58.3346C76.6667 48.2096 68.4583 40.0013 58.3333 40.0013C48.2083 40.0013 40 48.2096 40 58.3346C40 68.4596 48.2083 76.668 58.3333 76.668ZM58.3333 46.668C58.7754 46.668 59.1993 46.8436 59.5118 47.1561C59.8244 47.4687 60 47.8926 60 48.3346V56.668H68.3333C68.7754 56.668 69.1993 56.8436 69.5118 57.1561C69.8244 57.4687 70 57.8926 70 58.3346C70 58.7767 69.8244 59.2006 69.5118 59.5131C69.1993 59.8257 68.7754 60.0013 68.3333 60.0013H60V68.3346C60 68.7767 59.8244 69.2006 59.5118 69.5131C59.1993 69.8257 58.7754 70.0013 58.3333 70.0013C57.8913 70.0013 57.4674 69.8257 57.1548 69.5131C56.8423 69.2006 56.6667 68.7767 56.6667 68.3346V60.0013H48.3333C47.8913 60.0013 47.4674 59.8257 47.1548 59.5131C46.8423 59.2006 46.6667 58.7767 46.6667 58.3346C46.6667 57.8926 46.8423 57.4687 47.1548 57.1561C47.4674 56.8436 47.8913 56.668 48.3333 56.668H56.6667V48.3346C56.6667 47.8926 56.8423 47.4687 57.1548 47.1561C57.4674 46.8436 57.8913 46.668 58.3333 46.668Z" fill="#E09F1F"/>
</svg>
