<svg width="50" height="50" viewBox="0 0 50 50" fill="none" xmlns="http://www.w3.org/2000/svg">
<path d="M24.9999 13.542C26.2431 13.542 27.4354 13.0481 28.3145 12.1691C29.1935 11.29 29.6874 10.0977 29.6874 8.85449C29.6874 7.61129 29.1935 6.41901 28.3145 5.53993C27.4354 4.66085 26.2431 4.16699 24.9999 4.16699C23.7567 4.16699 22.5644 4.66085 21.6853 5.53993C20.8063 6.41901 20.3124 7.61129 20.3124 8.85449C20.3124 10.0977 20.8063 11.29 21.6853 12.1691C22.5644 13.0481 23.7567 13.542 24.9999 13.542ZM12.8124 8.70449C11.6664 8.21923 10.3751 8.20614 9.21942 8.66809C8.06379 9.13003 7.13732 10.0296 6.64156 11.1712C6.39638 11.7366 6.26562 12.3449 6.25682 12.9612C6.24803 13.5774 6.36138 14.1892 6.59033 14.7614C6.81927 15.3336 7.15929 15.8547 7.59073 16.2948C8.02218 16.7349 8.53652 17.0851 9.10406 17.3253L15.402 20.0003C15.7785 20.1598 16.0998 20.4266 16.3258 20.7674C16.5518 21.1083 16.6725 21.5081 16.6728 21.917V28.2503L12.7561 39.6191C12.5557 40.2011 12.4719 40.817 12.5095 41.4314C12.5471 42.0458 12.7054 42.6469 12.9753 43.2001C13.2451 43.7534 13.6213 44.2481 14.0824 44.656C14.5435 45.0639 15.0803 45.377 15.6624 45.5774C16.2444 45.7778 16.8603 45.8616 17.4747 45.824C18.0892 45.7864 18.6902 45.6282 19.2435 45.3583C20.3609 44.8133 21.216 43.8467 21.6207 42.6712L23.0666 38.4753C22.5611 35.1157 23.3364 31.6887 25.2387 28.8738C27.1411 26.0588 30.0316 24.0614 33.3374 23.2774V21.9128C33.3377 21.5039 33.4584 21.1041 33.6844 20.7633C33.9104 20.4224 34.2317 20.1556 34.6082 19.9962L40.8957 17.3253C41.4631 17.0849 41.9772 16.7345 42.4084 16.2944C42.8397 15.8542 43.1795 15.333 43.4082 14.7609C43.637 14.1887 43.7501 13.5769 43.7412 12.9608C43.7323 12.3447 43.6014 11.7364 43.3561 11.1712C42.8604 10.0301 41.9343 9.13094 40.7791 8.66903C39.624 8.20713 38.3332 8.21988 37.1874 8.70449L33.8416 10.1253C33.1332 10.4253 32.6374 11.0066 32.3936 11.6462C31.826 13.148 30.8145 14.4414 29.4937 15.3542C28.1729 16.267 26.6054 16.756 24.9999 16.756C23.3943 16.756 21.8269 16.267 20.5061 15.3542C19.1853 14.4414 18.1737 13.148 17.6061 11.6462C17.48 11.308 17.2866 10.999 17.0378 10.7376C16.7889 10.4762 16.4897 10.2679 16.1582 10.1253L12.8124 8.70449ZM47.9166 36.4587C47.9166 39.4976 46.7093 42.4121 44.5605 44.5609C42.4116 46.7098 39.4972 47.917 36.4582 47.917C33.4193 47.917 30.5048 46.7098 28.356 44.5609C26.2071 42.4121 24.9999 39.4976 24.9999 36.4587C24.9999 33.4197 26.2071 30.5052 28.356 28.3564C30.5048 26.2075 33.4193 25.0003 36.4582 25.0003C39.4972 25.0003 42.4116 26.2075 44.5605 28.3564C46.7093 30.5052 47.9166 33.4197 47.9166 36.4587ZM43.4457 31.5545C43.349 31.4575 43.234 31.3805 43.1075 31.328C42.9809 31.2755 42.8452 31.2485 42.7082 31.2485C42.5712 31.2485 42.4355 31.2755 42.309 31.328C42.1824 31.3805 42.0675 31.4575 41.9707 31.5545L34.3749 39.1524L30.9457 35.7212C30.7501 35.5256 30.4848 35.4157 30.2082 35.4157C29.9316 35.4157 29.6663 35.5256 29.4707 35.7212C29.2751 35.9168 29.1652 36.182 29.1652 36.4587C29.1652 36.7353 29.2751 37.0006 29.4707 37.1962L33.6374 41.3628C33.7342 41.4598 33.8491 41.5368 33.9757 41.5893C34.1022 41.6418 34.2379 41.6689 34.3749 41.6689C34.5119 41.6689 34.6476 41.6418 34.7741 41.5893C34.9007 41.5368 35.0156 41.4598 35.1124 41.3628L43.4457 33.0295C43.5427 32.9327 43.6197 32.8178 43.6722 32.6912C43.7247 32.5647 43.7518 32.429 43.7518 32.292C43.7518 32.155 43.7247 32.0193 43.6722 31.8928C43.6197 31.7662 43.5427 31.6513 43.4457 31.5545Z" fill="white"/>
</svg>
