<svg width="8" height="8" viewBox="0 0 8 8" fill="none" xmlns="http://www.w3.org/2000/svg">
<path d="M5.51081 0.899742C5.61451 0.792726 5.73847 0.707411 5.87546 0.648765C6.01245 0.590118 6.15974 0.559312 6.30875 0.55814C6.45777 0.556968 6.60552 0.585454 6.74342 0.641939C6.88132 0.698424 7.0066 0.781779 7.11197 0.88715C7.21734 0.992521 7.3007 1.1178 7.35718 1.2557C7.41367 1.3936 7.44215 1.54136 7.44098 1.69037C7.43981 1.83938 7.409 1.98667 7.35036 2.12366C7.29171 2.26066 7.2064 2.38461 7.09938 2.48831L6.65938 2.92831L5.07081 1.33974L5.51081 0.899742ZM4.76795 1.6426L1.28595 5.1246C1.16024 5.25031 1.06881 5.40631 1.02081 5.57774L0.57881 7.15631C0.568597 7.19291 0.568297 7.23156 0.57794 7.2683C0.587583 7.30505 0.606822 7.33857 0.633686 7.36544C0.66055 7.3923 0.694072 7.41154 0.73082 7.42118C0.767567 7.43083 0.806217 7.43053 0.84281 7.42031L2.4211 6.97831C2.59251 6.93035 2.74867 6.83904 2.87452 6.71317L6.35681 3.23146L4.76824 1.64288L4.76795 1.6426Z" fill="#0072F9"/>
</svg>
