<svg width="40" height="40" viewBox="0 0 40 40" fill="none" xmlns="http://www.w3.org/2000/svg">
<path d="M22.906 18L22.048 22H17.094L17.952 18H22.904H22.906ZM11 6C9.67392 6 8.40215 6.52678 7.46447 7.46447C6.52678 8.40215 6 9.67392 6 11V29C6 30.3261 6.52678 31.5979 7.46447 32.5355C8.40215 33.4732 9.67392 34 11 34H29C30.3261 34 31.5979 33.4732 32.5355 32.5355C33.4732 31.5979 34 30.3261 34 29V11C34 9.67392 33.4732 8.40215 32.5355 7.46447C31.5979 6.52678 30.3261 6 29 6H11ZM18.21 12.022C18.3385 12.0495 18.4602 12.1021 18.5683 12.1767C18.6765 12.2514 18.7688 12.3466 18.8401 12.4569C18.9115 12.5672 18.9603 12.6905 18.984 12.8197C19.0077 12.9489 19.0056 13.0816 18.978 13.21L18.38 16H23.334L24.02 12.79C24.0757 12.5306 24.2321 12.304 24.4549 12.16C24.6777 12.0159 24.9486 11.9663 25.208 12.022C25.4674 12.0777 25.694 12.2341 25.838 12.4569C25.9821 12.6797 26.0317 12.9506 25.976 13.21L25.38 16H27.002C27.2672 16 27.5216 16.1054 27.7091 16.2929C27.8966 16.4804 28.002 16.7348 28.002 17C28.002 17.2652 27.8966 17.5196 27.7091 17.7071C27.5216 17.8946 27.2672 18 27.002 18H24.952L24.096 22H26C26.2652 22 26.5196 22.1054 26.7071 22.2929C26.8946 22.4804 27 22.7348 27 23C27 23.2652 26.8946 23.5196 26.7071 23.7071C26.5196 23.8946 26.2652 24 26 24H23.666L22.978 27.208C22.9223 27.4674 22.7659 27.694 22.5431 27.838C22.3203 27.9821 22.0494 28.0317 21.79 27.976C21.5306 27.9203 21.304 27.7639 21.16 27.5411C21.0159 27.3183 20.9663 27.0474 21.022 26.788L21.62 24H16.666L15.978 27.21C15.9504 27.3384 15.8978 27.4602 15.8232 27.5683C15.7486 27.6764 15.6534 27.7687 15.5431 27.84C15.3203 27.9841 15.0494 28.0337 14.79 27.978C14.5306 27.9223 14.304 27.7659 14.16 27.5431C14.0159 27.3203 13.9663 27.0494 14.022 26.79L14.622 24H13C12.7348 24 12.4804 23.8946 12.2929 23.7071C12.1054 23.5196 12 23.2652 12 23C12 22.7348 12.1054 22.4804 12.2929 22.2929C12.4804 22.1054 12.7348 22 13 22H15.048L15.908 18H14C13.7348 18 13.4804 17.8946 13.2929 17.7071C13.1054 17.5196 13 17.2652 13 17C13 16.7348 13.1054 16.4804 13.2929 16.2929C13.4804 16.1054 13.7348 16 14 16H16.334L17.022 12.79C17.0495 12.6615 17.1021 12.5398 17.1767 12.4317C17.2514 12.3235 17.3466 12.2312 17.4569 12.1599C17.5672 12.0885 17.6905 12.0396 17.8197 12.016C17.9489 11.9923 18.0816 11.9944 18.21 12.022Z" fill="#6739B7"/>
</svg>
