<svg width="50" height="50" viewBox="0 0 50 50" fill="none" xmlns="http://www.w3.org/2000/svg">
<path opacity="0.3" d="M25 8.33301C18.1042 8.33301 12.5 13.9372 12.5 20.833C12.5 27.7288 18.1042 33.333 25 33.333C31.8958 33.333 37.5 27.7288 37.5 20.833C37.5 13.9372 31.8958 8.33301 25 8.33301ZM29.8125 28.5205L25 24.8538L20.1667 28.5205L22 22.583L17.1875 18.7497H23.1042L25 12.8955L26.8958 18.7497H32.8125L27.9792 22.583L29.8125 28.5205ZM25 39.583L16.6667 41.708V35.2497C19.125 36.6663 21.9583 37.4997 25 37.4997C28.0417 37.4997 30.875 36.6663 33.3333 35.2497V41.708L25 39.583Z" fill="white"/>
<path d="M20.1666 28.5212L24.9999 24.8545L29.8124 28.5212L27.9791 22.5837L32.8124 18.7503H26.8958L24.9999 12.8962L23.1041 18.7503H17.1874L21.9999 22.5837L20.1666 28.5212ZM41.6666 20.8337C41.6666 11.6253 34.2083 4.16699 24.9999 4.16699C15.7916 4.16699 8.33325 11.6253 8.33325 20.8337C8.33325 25.0628 9.91659 28.8962 12.4999 31.8337V47.917L24.9999 43.7503L37.4999 47.917V31.8337C40.1862 28.7993 41.6684 24.8863 41.6666 20.8337ZM24.9999 8.33366C31.8958 8.33366 37.4999 13.9378 37.4999 20.8337C37.4999 27.7295 31.8958 33.3337 24.9999 33.3337C18.1041 33.3337 12.4999 27.7295 12.4999 20.8337C12.4999 13.9378 18.1041 8.33366 24.9999 8.33366ZM24.9999 39.5837L16.6666 41.7087V35.2503C19.1249 36.667 21.9583 37.5003 24.9999 37.5003C28.0416 37.5003 30.8749 36.667 33.3333 35.2503V41.7087L24.9999 39.5837Z" fill="white"/>
</svg>
