<svg width="56" height="34" viewBox="0 0 56 34" fill="none" xmlns="http://www.w3.org/2000/svg">
<path d="M5.25893 26.3398L2.6875 32.0003H30.9732L25.8304 26.3398" stroke="#1E73B0" stroke-width="3" stroke-linejoin="round"/>
<path d="M26.8571 22.5192L29.4286 12.2596L32 2C32 2 23 3.41512 23 6.24536C23 8.01426 26.4286 9.0756 25.1429 10.1369C23.8571 11.1983 19.1429 12.2596 19.1429 15.0899C19.1429 16.8588 20.5486 18.1748 19.1429 19.3352C17.8571 20.3966 16.5714 19.8404 14.4286 19.3352C12.0286 18.7692 7.14286 18.2739 5.42857 18.6277C3.71429 18.9814 2 19.689 2 21.8117C2 22.9792 2.85714 24.2881 5 24.6419C7.14286 24.9957 9.71429 23.2268 13.1429 23.2268C16.5714 23.2268 20.8571 25.3495 23.4286 25.3495C26 25.3495 26.8571 22.5192 26.8571 22.5192Z" stroke="#1E73B0" stroke-width="3" stroke-linejoin="round"/>
</svg>
