<svg width="40" height="40" viewBox="0 0 40 40" fill="none" xmlns="http://www.w3.org/2000/svg">
<path d="M28.2833 30.0935L30.2616 28.1369C32.291 26.1073 33.673 23.5216 34.2329 20.7066C34.7927 17.8917 34.5053 14.9739 33.4069 12.3223C32.3085 9.67071 30.4485 7.40436 28.0621 5.80984C25.6757 4.21533 22.87 3.36426 20 3.36426C17.1299 3.36426 14.3242 4.21533 11.9378 5.80984C9.5514 7.40436 7.69141 9.67071 6.59302 12.3223C5.49464 14.9739 5.2072 17.8917 5.76705 20.7066C6.3269 23.5216 7.7089 26.1073 9.73829 28.1369C10.2316 28.6302 10.8433 29.2369 11.575 29.9535L17.3933 35.6135C18.0926 36.2897 19.0272 36.6676 20 36.6676C20.9727 36.6676 21.9073 36.2897 22.6066 35.6135C24.5055 33.7804 26.3977 31.9404 28.2833 30.0935ZM20 11.6669C20.3315 11.6669 20.6494 11.7985 20.8838 12.033C21.1183 12.2674 21.25 12.5853 21.25 12.9169V16.6669H25.4166C25.7481 16.6669 26.0661 16.7985 26.3005 17.033C26.5349 17.2674 26.6666 17.5853 26.6666 17.9169C26.6666 18.2484 26.5349 18.5663 26.3005 18.8007C26.0661 19.0352 25.7481 19.1669 25.4166 19.1669H21.25V22.9169C21.25 23.2484 21.1183 23.5663 20.8838 23.8007C20.6494 24.0352 20.3315 24.1669 20 24.1669C19.6684 24.1669 19.3505 24.0352 19.1161 23.8007C18.8817 23.5663 18.75 23.2484 18.75 22.9169V19.1669H14.5833C14.2518 19.1669 13.9338 19.0352 13.6994 18.8007C13.465 18.5663 13.3333 18.2484 13.3333 17.9169C13.3333 17.5853 13.465 17.2674 13.6994 17.033C13.9338 16.7985 14.2518 16.6669 14.5833 16.6669H18.75V12.9169C18.75 12.5853 18.8817 12.2674 19.1161 12.033C19.3505 11.7985 19.6684 11.6669 20 11.6669Z" fill="#6739B7"/>
</svg>
