<svg width="21" height="13" viewBox="0 0 21 13" fill="none" xmlns="http://www.w3.org/2000/svg">
<path d="M6.78668 2.53755C6.95228 2.35983 7.04243 2.12478 7.03814 1.8819C7.03386 1.63902 6.93547 1.40729 6.7637 1.23552C6.59194 1.06376 6.3602 0.965369 6.11733 0.961084C5.87445 0.956798 5.63939 1.04695 5.46167 1.21255L0.461675 6.21255C0.286112 6.38833 0.1875 6.62661 0.1875 6.87505C0.1875 7.12349 0.286112 7.36177 0.461675 7.53755L5.46167 12.5376C5.63939 12.7032 5.87445 12.7933 6.11733 12.789C6.3602 12.7847 6.59194 12.6863 6.7637 12.5146C6.93547 12.3428 7.03386 12.1111 7.03814 11.8682C7.04243 11.6253 6.95228 11.3903 6.78668 11.2126L3.38667 7.81255L10.1867 7.81255C12.6204 7.81255 14.3379 8.1188 15.6442 8.73755C16.9267 9.34505 17.8942 10.2913 18.7567 11.7326C18.82 11.8382 18.9036 11.9303 19.0026 12.0036C19.1015 12.077 19.214 12.1301 19.3334 12.16C19.4529 12.1899 19.5772 12.196 19.699 12.1778C19.8208 12.1597 19.9379 12.1178 20.0436 12.0544C20.1492 11.9911 20.2413 11.9075 20.3146 11.8086C20.388 11.7096 20.4411 11.5971 20.471 11.4777C20.5009 11.3582 20.507 11.2339 20.4888 11.1121C20.4707 10.9903 20.4288 10.8732 20.3654 10.7676C19.3554 9.0838 18.1342 7.84255 16.4479 7.04255C14.7854 6.25505 12.7529 5.93755 10.1867 5.93755L3.38667 5.93755L6.78668 2.53755Z" fill="#7B8D9E"/>
</svg>
