<svg width="31" height="31" viewBox="0 0 31 31" fill="none" xmlns="http://www.w3.org/2000/svg">
<path d="M14.2083 2.58203L23.6349 5.52703C23.8978 5.60911 24.1276 5.77307 24.2907 5.99499C24.4539 6.2169 24.5418 6.48515 24.5417 6.76057V9.04037H27.125C27.4676 9.04037 27.7961 9.17645 28.0383 9.41869C28.2806 9.66092 28.4167 9.98946 28.4167 10.332V12.9154H11.625V10.332C11.625 9.98946 11.7611 9.66092 12.0033 9.41869C12.2456 9.17645 12.5741 9.04036 12.9167 9.04037H21.9583V7.70995L14.2083 5.28678L6.45833 7.70995V17.2734C6.45815 18.0642 6.63949 18.8445 6.98839 19.5542C7.33729 20.2639 7.84443 20.884 8.47075 21.3667L8.71488 21.5424L14.2083 25.2895L19.0934 21.957H12.9167C12.5741 21.957 12.2456 21.8209 12.0033 21.5787C11.7611 21.3365 11.625 21.0079 11.625 20.6654V15.4987H28.4167V20.6654C28.4167 21.0079 28.2806 21.3365 28.0383 21.5787C27.7961 21.8209 27.4676 21.957 27.125 21.957L22.9658 21.9583C22.466 22.6171 21.8589 23.1983 21.1575 23.6762L14.2083 28.4154L7.25917 23.6775C6.21617 22.9664 5.36268 22.0113 4.77289 20.8952C4.1831 19.7791 3.87487 18.5358 3.875 17.2734V6.76057C3.87516 6.48537 3.9632 6.21742 4.12631 5.99576C4.28942 5.7741 4.51905 5.61033 4.78175 5.52832L14.2083 2.58203Z" fill="#6739B7"/>
</svg>
