<svg width="26" height="26" viewBox="0 0 26 26" fill="none" xmlns="http://www.w3.org/2000/svg">
<path d="M18.4169 3.25195C18.9528 3.25205 19.4804 3.38475 19.9525 3.63821C20.4247 3.89167 20.8268 4.25802 21.123 4.7046C21.4192 5.15118 21.6003 5.66411 21.6501 6.19767C21.6999 6.73123 21.617 7.26883 21.4086 7.76255C21.2003 8.25627 20.873 8.69076 20.456 9.02729C20.039 9.36383 19.5451 9.59194 19.0185 9.6913C18.492 9.79066 17.949 9.75818 17.438 9.59676C16.927 9.43533 16.4639 9.14997 16.0899 8.76612L10.1782 12.1461C10.3304 12.7054 10.3304 13.2952 10.1782 13.8545L16.091 17.2335C16.6429 16.6677 17.3821 16.3225 18.1701 16.2626C18.9582 16.2028 19.7411 16.4323 20.372 16.9082C21.003 17.3842 21.4387 18.0739 21.5976 18.8481C21.7566 19.6223 21.6277 20.4279 21.2352 21.1139C20.8428 21.7999 20.2136 22.3193 19.4657 22.5747C18.7178 22.8301 17.9024 22.804 17.1723 22.5013C16.4422 22.1986 15.8475 21.6401 15.4997 20.9304C15.1519 20.2208 15.0748 19.4086 15.2829 18.6461L9.37111 15.2661C8.92035 15.7288 8.34184 16.0466 7.70954 16.1788C7.07724 16.3111 6.41988 16.2518 5.82146 16.0085C5.22305 15.7652 4.71079 15.3489 4.35015 14.813C3.98951 14.2771 3.79688 13.6458 3.79688 12.9998C3.79687 12.3538 3.98951 11.7225 4.35015 11.1866C4.71079 10.6506 5.22305 10.2344 5.82146 9.99112C6.41988 9.74782 7.07724 9.6885 7.70954 9.82073C8.34184 9.95296 8.92035 10.2707 9.37111 10.7335L15.2829 7.35345C15.1523 6.87175 15.1344 6.36644 15.2305 5.8767C15.3267 5.38697 15.5344 4.92596 15.8375 4.52943C16.1406 4.1329 16.5309 3.8115 16.9782 3.59015C17.4256 3.3688 17.9179 3.25345 18.4169 3.25304V3.25195Z" fill="#6739B7"/>
</svg>
