<svg width="31" height="31" viewBox="0 0 31 31" fill="none" xmlns="http://www.w3.org/2000/svg">
<path d="M10.3325 2.58398H6.45752C5.42981 2.58398 4.44418 2.99224 3.71748 3.71895C2.99078 4.44565 2.58252 5.43127 2.58252 6.45898V10.334H6.08035C5.82029 9.73901 5.74564 9.07945 5.86615 8.44141C5.98665 7.80336 6.29671 7.21646 6.75585 6.75732C7.215 6.29817 7.8019 5.98812 8.43994 5.86761C9.07799 5.74711 9.73755 5.82176 10.3325 6.08182V2.58398ZM2.58252 12.2715V18.084C2.58252 19.1117 2.99078 20.0973 3.71748 20.824C4.44418 21.5507 5.42981 21.959 6.45752 21.959H10.3325V13.6406L8.11085 15.8623C7.92721 16.0334 7.68432 16.1266 7.43334 16.1222C7.18237 16.1177 6.94292 16.0161 6.76542 15.8386C6.58793 15.6611 6.48626 15.4216 6.48184 15.1707C6.47741 14.9197 6.57057 14.6768 6.74169 14.4931L8.96335 12.2715H2.58252ZM12.27 21.959H14.2075V21.3131C14.2075 20.4567 14.5477 19.6354 15.1533 19.0298C15.7589 18.4242 16.5803 18.084 17.4367 18.084H27.77C27.9909 18.084 28.2066 18.1059 28.4159 18.1486V12.2715H13.6392L15.8609 14.4931C15.956 14.5818 16.0324 14.6888 16.0853 14.8076C16.1383 14.9265 16.1667 15.0547 16.169 15.1848C16.1713 15.3149 16.1474 15.4441 16.0987 15.5647C16.05 15.6853 15.9774 15.7949 15.8854 15.8869C15.7935 15.9789 15.6839 16.0514 15.5632 16.1001C15.4426 16.1489 15.3134 16.1728 15.1833 16.1705C15.0533 16.1682 14.925 16.1397 14.8062 16.0868C14.6873 16.0338 14.5804 15.9575 14.4917 15.8623L12.27 13.6406V21.959ZM28.4159 10.334H16.5222C16.7822 9.73901 16.8569 9.07945 16.7364 8.44141C16.6159 7.80336 16.3058 7.21646 15.8467 6.75732C15.3875 6.29817 14.8006 5.98812 14.1626 5.86761C13.5245 5.74711 12.865 5.82176 12.27 6.08182V2.58398H24.5409C25.5686 2.58398 26.5542 2.99224 27.2809 3.71895C28.0076 4.44565 28.4159 5.43127 28.4159 6.45898V10.334ZM13.5617 10.334H12.27V9.04232C12.27 8.78685 12.3458 8.53712 12.4877 8.32471C12.6296 8.11229 12.8314 7.94674 13.0674 7.84897C13.3034 7.75121 13.5631 7.72563 13.8137 7.77547C14.0642 7.82531 14.2944 7.94833 14.475 8.12897C14.6557 8.30961 14.7787 8.53977 14.8285 8.79033C14.8784 9.04088 14.8528 9.30059 14.755 9.53662C14.6573 9.77264 14.4917 9.97437 14.2793 10.1163C14.0669 10.2582 13.8172 10.334 13.5617 10.334ZM10.3325 10.334H9.04085C8.78583 10.334 8.53651 10.2585 8.32433 10.117C8.11214 9.97552 7.94659 9.77439 7.84853 9.53897C7.75047 9.30355 7.72429 9.04437 7.7733 8.7941C7.82231 8.54383 7.94431 8.31366 8.12392 8.13262C8.30353 7.95157 8.53271 7.82774 8.78259 7.77674C9.03246 7.72574 9.29184 7.74985 9.52803 7.84603C9.76423 7.94221 9.96666 8.10616 10.1098 8.31721C10.253 8.52826 10.3305 8.77697 10.3325 9.03198V10.334ZM15.4992 21.3131C15.4992 20.7993 15.7033 20.3065 16.0667 19.9431C16.43 19.5798 16.9228 19.3756 17.4367 19.3756H27.77C28.2839 19.3756 28.7767 19.5798 29.14 19.9431C29.5034 20.3065 29.7075 20.7993 29.7075 21.3131V26.4798C29.7075 26.9937 29.5034 27.4865 29.14 27.8498C28.7767 28.2132 28.2839 28.4173 27.77 28.4173H17.4367C16.9228 28.4173 16.43 28.2132 16.0667 27.8498C15.7033 27.4865 15.4992 26.9937 15.4992 26.4798V21.3131ZM28.4159 21.959C28.0733 21.959 27.7447 21.8229 27.5025 21.5807C27.2603 21.3384 27.1242 21.0099 27.1242 20.6673H25.8325C25.8325 21.3525 26.1047 22.0095 26.5892 22.494C27.0736 22.9785 27.7307 23.2506 28.4159 23.2506V21.959ZM28.4159 24.5423C27.7307 24.5423 27.0736 24.8145 26.5892 25.299C26.1047 25.7834 25.8325 26.4405 25.8325 27.1256H27.1242C27.1242 26.7831 27.2603 26.4545 27.5025 26.2123C27.7447 25.9701 28.0733 25.834 28.4159 25.834V24.5423ZM18.0825 20.6673C18.0825 21.0099 17.9464 21.3384 17.7042 21.5807C17.462 21.8229 17.1334 21.959 16.7909 21.959V23.2506C17.476 23.2506 18.1331 22.9785 18.6175 22.494C19.102 22.0095 19.3742 21.3525 19.3742 20.6673H18.0825ZM19.3742 27.1256C19.3742 26.4405 19.102 25.7834 18.6175 25.299C18.1331 24.8145 17.476 24.5423 16.7909 24.5423V25.834C17.1334 25.834 17.462 25.9701 17.7042 26.2123C17.9464 26.4545 18.0825 26.7831 18.0825 27.1256H19.3742ZM24.8638 23.8965C24.8638 23.297 24.6256 22.722 24.2017 22.2981C23.7778 21.8742 23.2029 21.6361 22.6034 21.6361C22.0039 21.6361 21.4289 21.8742 21.005 22.2981C20.5811 22.722 20.3429 23.297 20.3429 23.8965C20.3429 24.496 20.5811 25.0709 21.005 25.4948C21.4289 25.9187 22.0039 26.1569 22.6034 26.1569C23.2029 26.1569 23.7778 25.9187 24.2017 25.4948C24.6256 25.0709 24.8638 24.496 24.8638 23.8965Z" fill="#6739B7"/>
</svg>
