<svg width="26" height="26" viewBox="0 0 26 26" fill="none" xmlns="http://www.w3.org/2000/svg">
<path d="M7.80065 3.25028C8.04515 2.82661 8.39693 2.47481 8.82059 2.2303C9.24425 1.98578 9.72485 1.85718 10.214 1.85742H16.4819C19.1747 1.85742 21.3569 4.03957 21.3569 6.73242V18.5717C21.357 19.0608 21.2284 19.5414 20.9839 19.9651C20.7394 20.3887 20.3876 20.7405 19.964 20.9851V6.73242C19.964 5.8089 19.5971 4.9232 18.9441 4.27018C18.2911 3.61715 17.4054 3.25028 16.4819 3.25028H7.80065ZM4.64258 7.42885C4.64258 6.69003 4.93607 5.98148 5.4585 5.45905C5.98092 4.93663 6.68948 4.64314 7.42829 4.64314H15.7854C16.5243 4.64314 17.2328 4.93663 17.7552 5.45905C18.2777 5.98148 18.5711 6.69003 18.5711 7.42885V23.4467C18.5711 23.5728 18.5369 23.6964 18.4721 23.8046C18.4074 23.9127 18.3145 24.0012 18.2033 24.0607C18.0922 24.1202 17.967 24.1484 17.8411 24.1423C17.7152 24.1362 17.5933 24.0961 17.4884 24.0261L11.6069 20.1048L5.72529 24.0261C5.62041 24.0961 5.49852 24.1362 5.37262 24.1423C5.24672 24.1484 5.12153 24.1202 5.0104 24.0607C4.89927 24.0012 4.80636 23.9127 4.74158 23.8046C4.6768 23.6964 4.64259 23.5728 4.64258 23.4467V7.42885Z" fill="#6739B7"/>
</svg>
