<svg width="31" height="31" viewBox="0 0 31 31" fill="none" xmlns="http://www.w3.org/2000/svg">
<path d="M14.6139 20.0215C14.8344 19.3391 15.1418 18.688 15.5284 18.084H6.78385C6.01386 18.0844 5.2755 18.3904 4.73103 18.9349C4.18656 19.4793 3.88053 20.2177 3.88019 20.9877V21.7343C3.88019 22.8864 4.29094 24.0024 5.0401 24.8795C7.06285 27.2484 10.1448 28.4174 14.2084 28.4174C14.9834 28.4174 15.7235 28.3734 16.4261 28.2882C15.9185 27.7371 15.4867 27.1207 15.1422 26.4553C14.8312 26.471 14.5198 26.4788 14.2084 26.4786C10.6718 26.4786 8.13235 25.5163 6.5139 23.6201C6.06414 23.0942 5.8168 22.425 5.8164 21.733V20.9864C5.81674 20.7297 5.91895 20.4836 6.10059 20.3022C6.28223 20.1208 6.52844 20.0189 6.78515 20.0189H14.6126L14.6139 20.0215ZM14.2084 2.58789C15.9212 2.58789 17.5639 3.26832 18.7751 4.47949C19.9863 5.69067 20.6667 7.33337 20.6667 9.04622C20.6667 10.7591 19.9863 12.4018 18.7751 13.613C17.5639 14.8241 15.9212 15.5046 14.2084 15.5046C12.4955 15.5046 10.8528 14.8241 9.64162 13.613C8.43045 12.4018 7.75002 10.7591 7.75002 9.04622C7.75002 7.33337 8.43045 5.69067 9.64162 4.47949C10.8528 3.26832 12.4955 2.58789 14.2084 2.58789ZM14.2084 4.52539C13.0094 4.52539 11.8595 5.00169 11.0116 5.84951C10.1638 6.69733 9.68752 7.84722 9.68752 9.04622C9.68752 10.2452 10.1638 11.3951 11.0116 12.2429C11.8595 13.0908 13.0094 13.5671 14.2084 13.5671C15.4074 13.5671 16.5572 13.0908 17.4051 12.2429C18.2529 11.3951 18.7292 10.2452 18.7292 9.04622C18.7292 7.84722 18.2529 6.69733 17.4051 5.84951C16.5572 5.00169 15.4074 4.52539 14.2084 4.52539ZM29.7084 22.6049C29.7084 24.489 28.9599 26.296 27.6276 27.6283C26.2953 28.9605 24.4883 29.709 22.6042 29.709C20.72 29.709 18.9131 28.9605 17.5808 27.6283C16.2485 26.296 15.5 24.489 15.5 22.6049C15.5 20.7207 16.2485 18.9137 17.5808 17.5814C18.9131 16.2492 20.72 15.5007 22.6042 15.5007C24.4883 15.5007 26.2953 16.2492 27.6276 17.5814C28.9599 18.9137 29.7084 20.7207 29.7084 22.6049ZM23.3211 18.6265C23.2767 18.4706 23.1827 18.3333 23.0534 18.2356C22.924 18.1379 22.7663 18.0851 22.6042 18.0851C22.4421 18.0851 22.2844 18.1379 22.155 18.2356C22.0256 18.3333 21.9317 18.4706 21.8873 18.6265L21.1679 20.936H18.839C18.1079 20.936 17.8056 21.9099 18.3959 22.3568L20.2792 23.7841L19.5597 26.0924C19.3337 26.817 20.1294 27.4202 20.7209 26.972L22.6042 25.546L24.4874 26.972C25.079 27.4202 25.8747 26.817 25.6486 26.0936L24.9292 23.7841L26.8124 22.3581C27.404 21.9099 27.1005 20.936 26.3694 20.936H24.0405L23.3211 18.6278V18.6265Z" fill="#6739B7"/>
</svg>
