<svg width="26" height="26" viewBox="0 0 26 26" fill="none" xmlns="http://www.w3.org/2000/svg">
<path d="M13.0007 2.16797C8.66298 2.16797 5.14648 5.68447 5.14648 10.0221C5.14648 12.3183 6.13232 14.3847 7.70207 15.8201C7.94582 16.0428 8.10886 16.2941 8.17494 16.5525L8.86015 19.2305H12.3236V11.6471C12.3236 11.4676 12.3949 11.2953 12.5219 11.1684C12.6489 11.0414 12.8211 10.9701 13.0007 10.9701C13.1802 10.9701 13.3524 11.0414 13.4794 11.1684C13.6064 11.2953 13.6777 11.4676 13.6777 11.6471V19.2305H17.1422L17.828 16.5503C17.8941 16.2925 18.0571 16.0411 18.3009 15.8191C19.1066 15.0838 19.75 14.1884 20.1898 13.1902C20.6296 12.192 20.8561 11.1129 20.8548 10.0221C20.8548 5.68447 17.3383 2.16797 13.0007 2.16797ZM16.7956 20.5846H9.20628L9.54211 21.8993C9.68375 22.453 10.0058 22.9439 10.4573 23.2943C10.9089 23.6448 11.4643 23.8349 12.0359 23.8346H13.967C14.5383 23.8347 15.0934 23.6446 15.5448 23.2942C15.9961 22.9439 16.318 22.4533 16.4597 21.8998L16.7956 20.5846ZM13.6777 6.63672V8.53255C13.6777 8.71213 13.6064 8.88435 13.4794 9.01132C13.3524 9.1383 13.1802 9.20964 13.0007 9.20964C12.8211 9.20964 12.6489 9.1383 12.5219 9.01132C12.3949 8.88435 12.3236 8.71213 12.3236 8.53255V6.63672C12.3236 6.45715 12.3949 6.28493 12.5219 6.15795C12.6489 6.03097 12.8211 5.95964 13.0007 5.95964C13.1802 5.95964 13.3524 6.03097 13.4794 6.15795C13.6064 6.28493 13.6777 6.45715 13.6777 6.63672ZM17.6763 8.32455C17.8032 8.45151 17.8744 8.62364 17.8744 8.80311C17.8744 8.98259 17.8032 9.15472 17.6763 9.28168L16.3238 10.6342C16.1968 10.7613 16.0245 10.8327 15.8449 10.8328C15.6652 10.8328 15.4929 10.7615 15.3658 10.6345C15.2388 10.5075 15.1674 10.3352 15.1673 10.1556C15.1673 9.97593 15.2386 9.80362 15.3656 9.67655L16.7187 8.32455C16.7815 8.26166 16.8562 8.21177 16.9383 8.17773C17.0205 8.14369 17.1086 8.12618 17.1975 8.12618C17.2864 8.12618 17.3745 8.14369 17.4566 8.17773C17.5388 8.21177 17.6134 8.26166 17.6763 8.32455ZM10.6347 9.67655C10.7616 9.80355 10.833 9.97579 10.833 10.1554C10.833 10.335 10.7616 10.5072 10.6347 10.6342C10.5077 10.7612 10.3354 10.8326 10.1558 10.8326C9.97622 10.8326 9.80398 10.7612 9.67698 10.6342L8.3239 9.28168C8.25925 9.2192 8.20769 9.14447 8.17223 9.06186C8.13677 8.97924 8.11811 8.89039 8.11736 8.80048C8.1166 8.71058 8.13376 8.62143 8.16783 8.53823C8.2019 8.45503 8.25219 8.37944 8.31578 8.31589C8.37937 8.25233 8.45499 8.20208 8.53821 8.16806C8.62143 8.13404 8.71059 8.11693 8.80049 8.11774C8.89039 8.11854 8.97924 8.13725 9.06183 8.17276C9.14443 8.20826 9.21913 8.25987 9.28157 8.32455L10.6347 9.67655Z" fill="#6739B7"/>
</svg>
