<svg width="31" height="31" viewBox="0 0 31 31" fill="none" xmlns="http://www.w3.org/2000/svg">
<path d="M6.45835 8.07227C6.45835 7.30148 6.76455 6.56226 7.30957 6.01724C7.8546 5.47221 8.59382 5.16602 9.3646 5.16602H20.3438C21.1146 5.16602 21.8538 5.47221 22.3988 6.01724C22.9438 6.56226 23.25 7.30148 23.25 8.07227V18.0827H27.7709V22.2806C27.7709 23.394 27.3286 24.4617 26.5413 25.249C25.754 26.0362 24.6863 26.4785 23.5729 26.4785H16.7917V21.3118H18.4063C18.6632 21.3118 18.9096 21.2098 19.0913 21.0281C19.273 20.8464 19.375 20.6 19.375 20.3431C19.375 20.0862 19.273 19.8398 19.0913 19.6581C18.9096 19.4764 18.6632 19.3743 18.4063 19.3743H16.1459C15.8453 18.973 15.4554 18.6473 15.0069 18.423C14.5585 18.1988 14.0639 18.0823 13.5625 18.0827H6.45835V8.07227ZM23.25 24.541H23.5729C24.1724 24.541 24.7474 24.3029 25.1713 23.879C25.5952 23.455 25.8334 22.8801 25.8334 22.2806V20.0202H23.25V24.541ZM11.3021 10.3327C11.0452 10.3327 10.7988 10.4347 10.6171 10.6164C10.4354 10.7981 10.3334 11.0445 10.3334 11.3014C10.3334 11.5584 10.4354 11.8048 10.6171 11.9864C10.7988 12.1681 11.0452 12.2702 11.3021 12.2702H18.4063C18.6632 12.2702 18.9096 12.1681 19.0913 11.9864C19.273 11.8048 19.375 11.5584 19.375 11.3014C19.375 11.0445 19.273 10.7981 19.0913 10.6164C18.9096 10.4347 18.6632 10.3327 18.4063 10.3327H11.3021ZM11.3021 14.8535C11.0452 14.8535 10.7988 14.9556 10.6171 15.1373C10.4354 15.3189 10.3334 15.5653 10.3334 15.8223C10.3334 16.0792 10.4354 16.3256 10.6171 16.5073C10.7988 16.689 11.0452 16.791 11.3021 16.791H18.4063C18.6632 16.791 18.9096 16.689 19.0913 16.5073C19.273 16.3256 19.375 16.0792 19.375 15.8223C19.375 15.5653 19.273 15.3189 19.0913 15.1373C18.9096 14.9556 18.6632 14.8535 18.4063 14.8535H11.3021ZM1.29169 21.3118C1.29169 20.798 1.49582 20.3052 1.85917 19.9418C2.22252 19.5785 2.71533 19.3743 3.22919 19.3743H13.5625C14.0764 19.3743 14.5692 19.5785 14.9325 19.9418C15.2959 20.3052 15.5 20.798 15.5 21.3118V26.4785C15.5 26.9924 15.2959 27.4852 14.9325 27.8485C14.5692 28.2119 14.0764 28.416 13.5625 28.416H3.22919C2.71533 28.416 2.22252 28.2119 1.85917 27.8485C1.49582 27.4852 1.29169 26.9924 1.29169 26.4785V21.3118ZM14.2084 21.9577C13.8658 21.9577 13.5372 21.8216 13.295 21.5794C13.0528 21.3371 12.9167 21.0086 12.9167 20.666H11.625C11.625 21.3512 11.8972 22.0082 12.3817 22.4927C12.8661 22.9772 13.5232 23.2493 14.2084 23.2493V21.9577ZM14.2084 24.541C13.5232 24.541 12.8661 24.8132 12.3817 25.2977C11.8972 25.7821 11.625 26.4392 11.625 27.1243H12.9167C12.9167 26.7818 13.0528 26.4532 13.295 26.211C13.5372 25.9688 13.8658 25.8327 14.2084 25.8327V24.541ZM3.87502 20.666C3.87502 21.0086 3.73893 21.3371 3.4967 21.5794C3.25447 21.8216 2.92592 21.9577 2.58335 21.9577V23.2493C3.2685 23.2493 3.92558 22.9772 4.41005 22.4927C4.89452 22.0082 5.16669 21.3512 5.16669 20.666H3.87502ZM5.16669 27.1243C5.16669 26.4392 4.89452 25.7821 4.41005 25.2977C3.92558 24.8132 3.2685 24.541 2.58335 24.541V25.8327C2.92592 25.8327 3.25447 25.9688 3.4967 26.211C3.73893 26.4532 3.87502 26.7818 3.87502 27.1243H5.16669ZM10.6563 23.8952C10.6563 23.2957 10.4181 22.7207 9.99421 22.2968C9.5703 21.8729 8.99535 21.6348 8.39585 21.6348C7.79635 21.6348 7.22141 21.8729 6.7975 22.2968C6.37359 22.7207 6.13544 23.2957 6.13544 23.8952C6.13544 24.4947 6.37359 25.0696 6.7975 25.4935C7.22141 25.9174 7.79635 26.1556 8.39585 26.1556C8.99535 26.1556 9.5703 25.9174 9.99421 25.4935C10.4181 25.0696 10.6563 24.4947 10.6563 23.8952Z" fill="#6739B7"/>
</svg>
