<svg width="88" height="82" viewBox="0 0 88 82" fill="none" xmlns="http://www.w3.org/2000/svg">
<path d="M87.1425 27.5553C87.1425 22.9656 85.3086 18.5639 82.0444 15.3185C78.7802 12.073 74.3529 10.2498 69.7366 10.2498C66.8347 10.2498 64.1045 10.9667 61.7 12.2127C56.523 5.22376 48.2104 0.669922 38.8112 0.669922C26.0502 0.669922 15.2511 9.02603 11.6505 20.5367C8.3706 21.2942 5.44511 23.1332 3.35019 25.7543C1.25528 28.3753 0.114277 31.6241 0.1129 34.972C0.114784 38.4842 1.37092 41.8817 3.65745 44.5589C5.94399 47.2361 9.11235 49.0191 12.5979 49.5902C13.135 59.3531 21.2437 67.1109 31.1949 67.1109C36.6056 67.1109 41.4644 64.8043 44.871 61.1454C46.6114 63.0263 48.7256 64.5276 51.0796 65.5545C53.4336 66.5813 55.9764 67.1113 58.547 67.1109C68.8489 67.1109 77.1962 58.8116 77.1962 48.5692C77.1923 46.8591 76.9505 45.1577 76.4776 43.5135C79.6382 42.1932 82.3363 39.9744 84.2336 37.1355C86.1308 34.2965 87.1428 30.9638 87.1425 27.5553V27.5553Z" fill="#BDDDF4"/>
<path d="M10.0592 81.9447C14.179 81.9447 17.5189 78.6241 17.5189 74.528C17.5189 70.4319 14.179 67.1113 10.0592 67.1113C5.93931 67.1113 2.5995 70.4319 2.5995 74.528C2.5995 78.6241 5.93931 81.9447 10.0592 81.9447Z" fill="#BDDDF4"/>
<g clip-path="url(#clip0_1466_323)">
<path d="M44.094 18.4707V24.4024H42.0676V18.4707H44.0942H44.094V18.4707ZM52.3687 20.2533L54.029 21.409L50.6076 26.2667L48.9482 25.1109L52.3687 20.2533ZM33.7932 20.2533L37.2136 25.111L35.554 26.2668L32.1327 21.409L33.793 20.2533H33.7932V20.2533ZM43.0812 26.0253C48.0386 26.0253 52.0572 29.0183 52.0572 32.7109L46.9575 48.0662H39.2041L34.1048 32.7109C34.1048 29.0184 38.1232 26.0253 43.0807 26.0253H43.0812V26.0253ZM59.2016 27.8055L59.894 29.6999L54.2905 31.7282L53.5956 29.8347L59.2017 27.8055H59.2016V27.8055ZM26.9604 27.8055L32.5666 29.8349L31.874 31.7285L26.2678 29.6999L26.9604 27.8055V27.8055ZM53.8662 36.4655L59.628 38.002L59.1052 39.9467L53.3435 38.4124L53.8662 36.4655H53.8662V36.4655ZM32.2957 36.4655L32.8181 38.4124L27.0564 39.9464L26.534 38.0017L32.2957 36.4654V36.4655V36.4655ZM47.0705 49.1856V51.8547H39.091V49.186H47.0705L47.0705 49.1856ZM47.0705 53.1816V55.8507H39.091V53.182H47.0705L47.0705 53.1816Z" fill="#FFC700"/>
</g>
<defs>
<clipPath id="clip0_1466_323">
<rect width="37.5968" height="37.38" fill="white" transform="translate(24.2823 18.4707)"/>
</clipPath>
</defs>
</svg>
